ComicNeue_Oblique.ufo
<glyph name="exclam" format="1">
  <advance width="196"/>
  <unicode hex="0021"/>
  <outline>
    <contour>
      <point x="73" y="152" type="curve" smooth="yes"/>
      <point x="89" y="152"/>
      <point x="105" y="165"/>
      <point x="108" y="181" type="curve" smooth="yes"/>
      <point x="210" y="663" type="line" smooth="yes"/>
      <point x="210.597" y="665.388"/>
      <point x="210.882" y="667.73"/>
      <point x="210.882" y="669.989" type="curve" smooth="yes"/>
      <point x="210.882" y="682.866"/>
      <point x="201.612" y="693"/>
      <point x="188" y="693" type="curve" smooth="yes"/>
      <point x="172" y="693"/>
      <point x="156" y="679"/>
      <point x="152" y="663" type="curve" smooth="yes"/>
      <point x="50" y="181" type="line" smooth="yes"/>
      <point x="49.6424" y="179.093"/>
      <point x="49.4695" y="177.228"/>
      <point x="49.4695" y="175.423" type="curve" smooth="yes"/>
      <point x="49.4695" y="162.085"/>
      <point x="58.9074" y="152"/>
    </contour>
    <contour>
      <point x="32" y="0" type="curve" smooth="yes"/>
      <point x="52" y="0"/>
      <point x="76" y="20"/>
      <point x="81" y="47" type="curve"/>
      <point x="81.8631" y="50.2799"/>
      <point x="82.2793" y="53.5002"/>
      <point x="82.2793" y="56.5838" type="curve" smooth="yes"/>
      <point x="82.2793" y="71.3627"/>
      <point x="72.7201" y="83"/>
      <point x="57" y="83" type="curve" smooth="yes"/>
      <point x="36" y="83"/>
      <point x="12" y="61"/>
      <point x="7" y="37" type="curve" smooth="yes"/>
      <point x="6.4132" y="33.9193"/>
      <point x="6.12769" y="30.9462"/>
      <point x="6.12769" y="28.1154" type="curve" smooth="yes"/>
      <point x="6.12769" y="11.6499"/>
      <point x="15.7873" y="0"/>
    </contour>
  </outline>
</glyph>
<glyph name="numbersign" format="1">
  <advance width="746"/>
  <unicode hex="0023"/>
  <outline>
    <contour>
      <point x="603" y="485" type="line"/>
      <point x="704" y="485" type="line" smooth="yes"/>
      <point x="717.203" y="485"/>
      <point x="726.532" y="474.928"/>
      <point x="726.532" y="462.286" type="curve" smooth="yes"/>
      <point x="726.532" y="460.565"/>
      <point x="726.359" y="458.797"/>
      <point x="726" y="457" type="curve" smooth="yes"/>
      <point x="722" y="441"/>
      <point x="707" y="429"/>
      <point x="692" y="429" type="curve" smooth="yes"/>
      <point x="575" y="429" type="line"/>
      <point x="492" y="266" type="line"/>
      <point x="612" y="266" type="line" smooth="yes"/>
      <point x="625.203" y="266"/>
      <point x="634.532" y="255.928"/>
      <point x="634.532" y="243.286" type="curve" smooth="yes"/>
      <point x="634.532" y="241.565"/>
      <point x="634.359" y="239.797"/>
      <point x="634" y="238" type="curve" smooth="yes"/>
      <point x="631" y="222"/>
      <point x="615" y="210"/>
      <point x="600" y="210" type="curve" smooth="yes"/>
      <point x="464" y="210" type="line"/>
      <point x="369" y="20" type="line"/>
      <point x="362" y="8"/>
      <point x="349" y="0"/>
      <point x="338" y="0" type="curve" smooth="yes"/>
      <point x="323.171" y="0"/>
      <point x="314.429" y="9.89137"/>
      <point x="314.429" y="22.3734" type="curve" smooth="yes"/>
      <point x="314.429" y="24.2011"/>
      <point x="314.617" y="26.0842"/>
      <point x="315" y="28" type="curve" smooth="yes"/>
      <point x="316" y="31"/>
      <point x="318" y="37"/>
      <point x="323" y="46" type="curve" smooth="yes"/>
      <point x="406" y="210" type="line"/>
      <point x="253" y="210" type="line"/>
      <point x="158" y="20" type="line"/>
      <point x="151" y="8"/>
      <point x="138" y="0"/>
      <point x="127" y="0" type="curve" smooth="yes"/>
      <point x="112.171" y="-1.77636e-15"/>
      <point x="103.429" y="9.89137"/>
      <point x="103.429" y="21.0461" type="curve" smooth="yes"/>
      <point x="103.429" y="22.6793"/>
      <point x="103.617" y="24.3397"/>
      <point x="104" y="26" type="curve" smooth="yes"/>
      <point x="105" y="31"/>
      <point x="107" y="36"/>
      <point x="112" y="45" type="curve" smooth="yes"/>
      <point x="195" y="210" type="line"/>
      <point x="78" y="210" type="line" smooth="yes"/>
      <point x="64.055" y="210"/>
      <point x="55.4273" y="219.115"/>
      <point x="55.4273" y="232.05" type="curve" smooth="yes"/>
      <point x="55.4273" y="233.956"/>
      <point x="55.6147" y="235.945"/>
      <point x="56" y="238" type="curve" smooth="yes"/>
      <point x="59" y="253"/>
      <point x="74" y="266"/>
      <point x="90" y="266" type="curve" smooth="yes"/>
      <point x="223" y="266" type="line"/>
      <point x="305" y="429" type="line"/>
      <point x="170" y="429" type="line" smooth="yes"/>
      <point x="156.388" y="429"/>
      <point x="147.118" y="437.686"/>
      <point x="147.118" y="450.131" type="curve" smooth="yes"/>
      <point x="147.118" y="452.314"/>
      <point x="147.403" y="454.612"/>
      <point x="148" y="457" type="curve" smooth="yes"/>
      <point x="151" y="472"/>
      <point x="166" y="485"/>
      <point x="182" y="485" type="curve" smooth="yes"/>
      <point x="334" y="485" type="line"/>
      <point x="426" y="669" type="line"/>
      <point x="431" y="681"/>
      <point x="445" y="689"/>
      <point x="457" y="689" type="curve" smooth="yes"/>
      <point x="471.652" y="689"/>
      <point x="479.619" y="679.343"/>
      <point x="479.619" y="667.711" type="curve" smooth="yes"/>
      <point x="479.619" y="665.848"/>
      <point x="479.414" y="663.933"/>
      <point x="479" y="662" type="curve" smooth="yes"/>
      <point x="478" y="656"/>
      <point x="476" y="651"/>
      <point x="473" y="645" type="curve" smooth="yes"/>
      <point x="392" y="485" type="line"/>
      <point x="545" y="485" type="line"/>
      <point x="637" y="669" type="line"/>
      <point x="642" y="681"/>
      <point x="656" y="689"/>
      <point x="668" y="689" type="curve" smooth="yes"/>
      <point x="682.652" y="689"/>
      <point x="690.619" y="678.6"/>
      <point x="690.619" y="666.763" type="curve" smooth="yes"/>
      <point x="690.619" y="664.867"/>
      <point x="690.414" y="662.933"/>
      <point x="690" y="661" type="curve" smooth="yes"/>
      <point x="689" y="658"/>
      <point x="687" y="653"/>
      <point x="684" y="646" type="curve" smooth="yes"/>
    </contour>
    <contour>
      <point x="434" y="266" type="line"/>
      <point x="516" y="429" type="line"/>
      <point x="364" y="429" type="line"/>
      <point x="281" y="266" type="line"/>
    </contour>
  </outline>
</glyph>
<glyph name="dollar" format="1">
  <advance width="604"/>
  <unicode hex="0024"/>
  <outline>
    <contour>
      <point x="218" y="-46" type="curve" smooth="yes"/>
      <point x="228" y="0" type="line"/>
      <point x="127" y="8"/>
      <point x="55" y="62"/>
      <point x="42" y="142" type="curve" smooth="yes"/>
      <point x="41" y="145"/>
      <point x="40" y="149"/>
      <point x="42" y="158" type="curve" smooth="yes"/>
      <point x="44" y="168"/>
      <point x="60" y="185"/>
      <point x="79" y="185" type="curve" smooth="yes"/>
      <point x="93" y="185"/>
      <point x="102" y="175"/>
      <point x="104" y="162" type="curve" smooth="yes"/>
      <point x="113" y="95"/>
      <point x="174" y="61"/>
      <point x="239" y="54" type="curve"/>
      <point x="299" y="337" type="line"/>
      <point x="223.674" y="363.005"/>
      <point x="149.957" y="407.506"/>
      <point x="149.957" y="482.759" type="curve" smooth="yes"/>
      <point x="149.957" y="491.425"/>
      <point x="150.935" y="500.499"/>
      <point x="153" y="510" type="curve" smooth="yes"/>
      <point x="177" y="624"/>
      <point x="281" y="671"/>
      <point x="372" y="678" type="curve"/>
      <point x="381" y="723" type="line" smooth="yes"/>
      <point x="384" y="738"/>
      <point x="399" y="751"/>
      <point x="414" y="751" type="curve" smooth="yes"/>
      <point x="427.203" y="751"/>
      <point x="436.532" y="740.928"/>
      <point x="436.532" y="728.286" type="curve" smooth="yes"/>
      <point x="436.532" y="726.565"/>
      <point x="436.359" y="724.797"/>
      <point x="436" y="723" type="curve" smooth="yes"/>
      <point x="427" y="680" type="line"/>
      <point x="507.025" y="680"/>
      <point x="601.936" y="651.883"/>
      <point x="601.936" y="568.576" type="curve" smooth="yes"/>
      <point x="601.936" y="560.274"/>
      <point x="600.994" y="551.425"/>
      <point x="599" y="542" type="curve" smooth="yes"/>
      <point x="596" y="528"/>
      <point x="581" y="517"/>
      <point x="567" y="517" type="curve" smooth="yes"/>
      <point x="551" y="517"/>
      <point x="543" y="527"/>
      <point x="543" y="541" type="curve"/>
      <point x="543.264" y="543.704"/>
      <point x="543.392" y="546.326"/>
      <point x="543.392" y="548.867" type="curve" smooth="yes"/>
      <point x="543.392" y="623.391"/>
      <point x="433.439" y="629.066"/>
      <point x="417" y="631" type="curve"/>
      <point x="364" y="382" type="line"/>
      <point x="475.157" y="347.263"/>
      <point x="529.754" y="295.181"/>
      <point x="529.754" y="224.444" type="curve" smooth="yes"/>
      <point x="529.754" y="213.726"/>
      <point x="528.5" y="202.579"/>
      <point x="526" y="191" type="curve" smooth="yes"/>
      <point x="503" y="84"/>
      <point x="406" y="16"/>
      <point x="283" y="1" type="curve"/>
      <point x="273" y="-46" type="line" smooth="yes"/>
      <point x="270" y="-61"/>
      <point x="254" y="-74"/>
      <point x="239" y="-74" type="curve" smooth="yes"/>
      <point x="225.938" y="-74"/>
      <point x="217.425" y="-64.1415"/>
      <point x="217.425" y="-51.6889" type="curve" smooth="yes"/>
      <point x="217.425" y="-49.8418"/>
      <point x="217.612" y="-47.9376"/>
    </contour>
    <contour>
      <point x="215" y="507" type="curve" smooth="yes"/>
      <point x="214.014" y="502.177"/>
      <point x="213.52" y="497.45"/>
      <point x="213.52" y="492.82" type="curve" smooth="yes"/>
      <point x="213.52" y="455.204"/>
      <point x="246.111" y="423.931"/>
      <point x="312" y="399" type="curve"/>
      <point x="361" y="627" type="line"/>
      <point x="259" y="612"/>
      <point x="226" y="556"/>
    </contour>
    <contour>
      <point x="294" y="55" type="line"/>
      <point x="375" y="67"/>
      <point x="447" y="109"/>
      <point x="465" y="197" type="curve" smooth="yes"/>
      <point x="466.156" y="202.397"/>
      <point x="467.164" y="208.76"/>
      <point x="467.164" y="215.816" type="curve" smooth="yes"/>
      <point x="467.164" y="245.371"/>
      <point x="449.485" y="287.095"/>
      <point x="351" y="321" type="curve"/>
    </contour>
  </outline>
</glyph>
<glyph name="percent" format="1">
  <advance width="728"/>
  <unicode hex="0025"/>
  <outline>
    <contour>
      <point x="231" y="422" type="curve" smooth="yes"/>
      <point x="165.741" y="422"/>
      <point x="120.924" y="468.184"/>
      <point x="120.924" y="529.589" type="curve" smooth="yes"/>
      <point x="120.924" y="538.755"/>
      <point x="121.922" y="548.259"/>
      <point x="124" y="558" type="curve" smooth="yes"/>
      <point x="140" y="633"/>
      <point x="214" y="694"/>
      <point x="289" y="694" type="curve" smooth="yes"/>
      <point x="354.259" y="694"/>
      <point x="399.076" y="647.816"/>
      <point x="399.076" y="586.411" type="curve" smooth="yes"/>
      <point x="399.076" y="577.245"/>
      <point x="398.078" y="567.741"/>
      <point x="396" y="558" type="curve" smooth="yes"/>
      <point x="380" y="483"/>
      <point x="306" y="422"/>
    </contour>
    <contour>
      <point x="278" y="640" type="curve" smooth="yes"/>
      <point x="233" y="640"/>
      <point x="188" y="603"/>
      <point x="178" y="558" type="curve" smooth="yes"/>
      <point x="176.697" y="552.006"/>
      <point x="176.073" y="546.182"/>
      <point x="176.073" y="540.585" type="curve" smooth="yes"/>
      <point x="176.073" y="503.229"/>
      <point x="203.864" y="476"/>
      <point x="243" y="476" type="curve" smooth="yes"/>
      <point x="288" y="476"/>
      <point x="332" y="512"/>
      <point x="342" y="558" type="curve" smooth="yes"/>
      <point x="343.335" y="564.006"/>
      <point x="343.975" y="569.869"/>
      <point x="343.975" y="575.52" type="curve" smooth="yes"/>
      <point x="343.975" y="612.217"/>
      <point x="316.994" y="640"/>
    </contour>
    <contour>
      <point x="466" y="-8" type="curve" smooth="yes"/>
      <point x="400.741" y="-8"/>
      <point x="355.924" y="38.1841"/>
      <point x="355.924" y="99.5893" type="curve" smooth="yes"/>
      <point x="355.924" y="108.755"/>
      <point x="356.922" y="118.259"/>
      <point x="359" y="128" type="curve" smooth="yes"/>
      <point x="375" y="203"/>
      <point x="449" y="264"/>
      <point x="524" y="264" type="curve" smooth="yes"/>
      <point x="589.259" y="264"/>
      <point x="634.076" y="217.816"/>
      <point x="634.076" y="156.411" type="curve" smooth="yes"/>
      <point x="634.076" y="147.245"/>
      <point x="633.078" y="137.741"/>
      <point x="631" y="128" type="curve" smooth="yes"/>
      <point x="615" y="53"/>
      <point x="541" y="-8"/>
    </contour>
    <contour>
      <point x="512" y="210" type="curve" smooth="yes"/>
      <point x="467" y="210"/>
      <point x="422" y="173"/>
      <point x="413" y="128" type="curve" smooth="yes"/>
      <point x="411.665" y="121.861"/>
      <point x="411.025" y="115.9"/>
      <point x="411.025" y="110.179" type="curve" smooth="yes"/>
      <point x="411.025" y="73.0323"/>
      <point x="438.006" y="46"/>
      <point x="477" y="46" type="curve" smooth="yes"/>
      <point x="522" y="46"/>
      <point x="567" y="82"/>
      <point x="577" y="128" type="curve" smooth="yes"/>
      <point x="578.105" y="133.525"/>
      <point x="578.637" y="138.93"/>
      <point x="578.637" y="144.16" type="curve" smooth="yes"/>
      <point x="578.637" y="181.528"/>
      <point x="551.475" y="210"/>
    </contour>
    <contour>
      <point x="130" y="0" type="curve" smooth="yes"/>
      <point x="117.099" y="-1.77636e-15"/>
      <point x="109.376" y="8.87678"/>
      <point x="109.376" y="18.9956" type="curve" smooth="yes"/>
      <point x="109.376" y="20.6418"/>
      <point x="109.58" y="22.3209"/>
      <point x="110" y="24" type="curve"/>
      <point x="110" y="28"/>
      <point x="113" y="34"/>
      <point x="118" y="41" type="curve" smooth="yes"/>
      <point x="605" y="677" type="line" smooth="yes"/>
      <point x="612" y="685"/>
      <point x="621" y="690"/>
      <point x="630" y="690" type="curve" smooth="yes"/>
      <point x="643.477" y="690"/>
      <point x="651.303" y="679.506"/>
      <point x="651.303" y="667.947" type="curve" smooth="yes"/>
      <point x="651.303" y="661.129"/>
      <point x="648.728" y="656.971"/>
      <point x="645" y="652" type="curve" smooth="yes"/>
      <point x="155" y="13" type="line" smooth="yes"/>
      <point x="148" y="4"/>
      <point x="139" y="0"/>
    </contour>
  </outline>
</glyph>
<glyph name="ampersand" format="1">
  <advance width="660"/>
  <unicode hex="0026"/>
  <outline>
    <contour>
      <point x="470" y="159" type="curve"/>
      <point x="542" y="44" type="line" smooth="yes"/>
      <point x="544" y="40"/>
      <point x="546" y="33"/>
      <point x="544" y="27" type="curve" smooth="yes"/>
      <point x="541" y="12"/>
      <point x="527" y="0"/>
      <point x="512" y="0" type="curve" smooth="yes"/>
      <point x="504" y="0"/>
      <point x="496" y="4"/>
      <point x="493" y="10" type="curve" smooth="yes"/>
      <point x="430" y="110" type="line"/>
      <point x="330" y="3"/>
      <point x="233" y="-4"/>
      <point x="208" y="-4" type="curve" smooth="yes"/>
      <point x="121.679" y="-4"/>
      <point x="40.1094" y="52.2275"/>
      <point x="40.1094" y="144.949" type="curve" smooth="yes"/>
      <point x="40.1094" y="156.42"/>
      <point x="41.3578" y="168.45"/>
      <point x="44" y="181" type="curve" smooth="yes"/>
      <point x="69" y="297"/>
      <point x="160" y="346"/>
      <point x="251" y="390" type="curve"/>
      <point x="232.442" y="418.68"/>
      <point x="206.058" y="466.571"/>
      <point x="206.058" y="518.669" type="curve" smooth="yes"/>
      <point x="206.058" y="528.333"/>
      <point x="206.966" y="538.142"/>
      <point x="209" y="548" type="curve" smooth="yes"/>
      <point x="225" y="623"/>
      <point x="310" y="690"/>
      <point x="386" y="690" type="curve" smooth="yes"/>
      <point x="453.754" y="690"/>
      <point x="506.407" y="635.955"/>
      <point x="506.407" y="573.921" type="curve" smooth="yes"/>
      <point x="506.407" y="566.372"/>
      <point x="505.627" y="558.703"/>
      <point x="504" y="551" type="curve" smooth="yes"/>
      <point x="486" y="470"/>
      <point x="435" y="424"/>
      <point x="334" y="376" type="curve"/>
      <point x="442" y="204" type="line"/>
      <point x="456" y="223"/>
      <point x="468" y="246"/>
      <point x="481" y="272" type="curve" smooth="yes"/>
      <point x="494" y="296"/>
      <point x="501" y="304"/>
      <point x="518" y="304" type="curve" smooth="yes"/>
      <point x="531.062" y="304"/>
      <point x="539.575" y="295.658"/>
      <point x="539.575" y="283.597" type="curve" smooth="yes"/>
      <point x="539.575" y="281.808"/>
      <point x="539.388" y="279.938"/>
      <point x="539" y="278" type="curve" smooth="yes"/>
      <point x="538" y="276"/>
      <point x="537" y="272"/>
      <point x="530" y="258" type="curve" smooth="yes"/>
      <point x="511" y="220"/>
      <point x="491" y="187"/>
    </contour>
    <contour>
      <point x="263" y="548" type="curve" smooth="yes"/>
      <point x="261.673" y="541.631"/>
      <point x="261.068" y="535.139"/>
      <point x="261.068" y="528.603" type="curve" smooth="yes"/>
      <point x="261.068" y="485.88"/>
      <point x="286.919" y="441.285"/>
      <point x="306" y="417" type="curve"/>
      <point x="433" y="474"/>
      <point x="443" y="514"/>
      <point x="450" y="549" type="curve" smooth="yes"/>
      <point x="450.936" y="553.47"/>
      <point x="451.385" y="557.952"/>
      <point x="451.385" y="562.393" type="curve" smooth="yes"/>
      <point x="451.385" y="600.673"/>
      <point x="418.01" y="636"/>
      <point x="375" y="636" type="curve" smooth="yes"/>
      <point x="332" y="636"/>
      <point x="274" y="598"/>
    </contour>
    <contour>
      <point x="219" y="50" type="curve" smooth="yes"/>
      <point x="240" y="50"/>
      <point x="319" y="56"/>
      <point x="403" y="153" type="curve"/>
      <point x="281" y="350" type="line"/>
      <point x="190" y="306"/>
      <point x="117" y="270"/>
      <point x="98" y="181" type="curve" smooth="yes"/>
      <point x="96.0574" y="171.798"/>
      <point x="95.1497" y="163.109"/>
      <point x="95.1497" y="154.923" type="curve" smooth="yes"/>
      <point x="95.1497" y="83.0447"/>
      <point x="165.135" y="50"/>
    </contour>
  </outline>
</glyph>
<glyph name="quotesingle" format="1">
  <advance width="194"/>
  <unicode hex="0027"/>
  <outline>
    <contour>
      <point x="148" y="500" type="curve" smooth="yes"/>
      <point x="163" y="500"/>
      <point x="178" y="512"/>
      <point x="182" y="528" type="curve" smooth="yes"/>
      <point x="210" y="662" type="line" smooth="yes"/>
      <point x="210.359" y="663.797"/>
      <point x="210.532" y="665.565"/>
      <point x="210.532" y="667.286" type="curve" smooth="yes"/>
      <point x="210.532" y="679.928"/>
      <point x="201.203" y="690"/>
      <point x="188" y="690" type="curve" smooth="yes"/>
      <point x="172" y="690"/>
      <point x="157" y="677"/>
      <point x="154" y="662" type="curve" smooth="yes"/>
      <point x="126" y="528" type="line" smooth="yes"/>
      <point x="125.403" y="525.612"/>
      <point x="125.118" y="523.314"/>
      <point x="125.118" y="521.131" type="curve" smooth="yes"/>
      <point x="125.118" y="508.686"/>
      <point x="134.388" y="500"/>
    </contour>
  </outline>
</glyph>
<glyph name="parenleft" format="1">
  <advance width="369"/>
  <unicode hex="0028"/>
  <outline>
    <contour>
      <point x="185" y="-108" type="curve" smooth="yes"/>
      <point x="198" y="-108"/>
      <point x="214" y="-96"/>
      <point x="217" y="-81" type="curve" smooth="yes"/>
      <point x="219" y="-73"/>
      <point x="217" y="-66"/>
      <point x="213" y="-60" type="curve" smooth="yes"/>
      <point x="210.526" y="-57.5259"/>
      <point x="127.116" y="54.4497"/>
      <point x="127.116" y="230.493" type="curve" smooth="yes"/>
      <point x="127.116" y="267.913"/>
      <point x="130.885" y="308.227"/>
      <point x="140" y="351" type="curve" smooth="yes"/>
      <point x="191" y="592"/>
      <point x="392" y="743"/>
      <point x="397" y="746" type="curve" smooth="yes"/>
      <point x="404.873" y="752.749"/>
      <point x="412.495" y="760.316"/>
      <point x="412.495" y="771.932" type="curve" smooth="yes"/>
      <point x="412.495" y="784.739"/>
      <point x="402.326" y="795"/>
      <point x="389" y="795" type="curve" smooth="yes"/>
      <point x="383" y="795"/>
      <point x="376" y="792"/>
      <point x="364" y="783" type="curve" smooth="yes"/>
      <point x="230" y="678"/>
      <point x="120" y="522"/>
      <point x="84" y="351" type="curve" smooth="yes"/>
      <point x="73.9065" y="303.285"/>
      <point x="69.7405" y="258.77"/>
      <point x="69.7405" y="217.751" type="curve" smooth="yes"/>
      <point x="69.7405" y="35.255"/>
      <point x="152.202" y="-78.0374"/>
      <point x="162" y="-96" type="curve" smooth="yes"/>
      <point x="166" y="-102"/>
      <point x="173" y="-108"/>
    </contour>
  </outline>
</glyph>
<glyph name="parenright" format="1">
  <advance width="369"/>
  <unicode hex="0029"/>
  <outline>
    <contour>
      <point x="177" y="746" type="curve" smooth="yes"/>
      <point x="172" y="752"/>
      <point x="170" y="759"/>
      <point x="172" y="767" type="curve" smooth="yes"/>
      <point x="175" y="782"/>
      <point x="190" y="795"/>
      <point x="205" y="795" type="curve" smooth="yes"/>
      <point x="211" y="795"/>
      <point x="218" y="792"/>
      <point x="226" y="783" type="curve" smooth="yes"/>
      <point x="294.217" y="703.414"/>
      <point x="334.857" y="594.527"/>
      <point x="334.857" y="472.017" type="curve" smooth="yes"/>
      <point x="334.857" y="432.897"/>
      <point x="330.713" y="392.388"/>
      <point x="322" y="351" type="curve" smooth="yes"/>
      <point x="267" y="91"/>
      <point x="76" y="-74"/>
      <point x="54" y="-96" type="curve" smooth="yes"/>
      <point x="48" y="-102"/>
      <point x="39" y="-108"/>
      <point x="27" y="-108" type="curve" smooth="yes"/>
      <point x="15.3671" y="-108"/>
      <point x="4.53492" y="-98.3912"/>
      <point x="4.53492" y="-85.6222" type="curve" smooth="yes"/>
      <point x="4.53492" y="-74.5867"/>
      <point x="10.4425" y="-66.4182"/>
      <point x="19" y="-60" type="curve" smooth="yes"/>
      <point x="22" y="-57"/>
      <point x="214" y="107"/>
      <point x="266" y="351" type="curve" smooth="yes"/>
      <point x="273.989" y="388.754"/>
      <point x="277.365" y="424.299"/>
      <point x="277.365" y="457.412" type="curve" smooth="yes"/>
      <point x="277.365" y="635.678"/>
      <point x="179.53" y="743.47"/>
    </contour>
  </outline>
</glyph>
<glyph name="asterisk" format="1">
  <advance width="397"/>
  <unicode hex="002A"/>
  <outline>
    <contour>
      <point x="153" y="439" type="curve" smooth="yes"/>
      <point x="160" y="439"/>
      <point x="167" y="442"/>
      <point x="174" y="448" type="curve" smooth="yes"/>
      <point x="217" y="486" type="line" smooth="yes"/>
      <point x="230" y="498"/>
      <point x="254" y="527"/>
      <point x="254" y="527" type="curve"/>
      <point x="254" y="527"/>
      <point x="264" y="498"/>
      <point x="273" y="486" type="curve" smooth="yes"/>
      <point x="300" y="448" type="line"/>
      <point x="303" y="442"/>
      <point x="310" y="439"/>
      <point x="317" y="439" type="curve" smooth="yes"/>
      <point x="330" y="439"/>
      <point x="345" y="450"/>
      <point x="349" y="466" type="curve" smooth="yes"/>
      <point x="350" y="473"/>
      <point x="350" y="480"/>
      <point x="346" y="486" type="curve" smooth="yes"/>
      <point x="321" y="521" type="line" smooth="yes"/>
      <point x="311" y="536"/>
      <point x="292" y="551"/>
      <point x="292" y="551" type="curve"/>
      <point x="292" y="551"/>
      <point x="325" y="557"/>
      <point x="342" y="565" type="curve" smooth="yes"/>
      <point x="378" y="582" type="line" smooth="yes"/>
      <point x="388" y="587"/>
      <point x="395" y="596"/>
      <point x="397" y="606" type="curve" smooth="yes"/>
      <point x="397.42" y="607.679"/>
      <point x="397.624" y="609.397"/>
      <point x="397.624" y="611.111" type="curve" smooth="yes"/>
      <point x="397.624" y="621.644"/>
      <point x="389.901" y="632"/>
      <point x="377" y="632" type="curve" smooth="yes"/>
      <point x="371" y="632"/>
      <point x="367" y="631"/>
      <point x="362" y="629" type="curve" smooth="yes"/>
      <point x="331" y="615" type="line" smooth="yes"/>
      <point x="315" y="607"/>
      <point x="289" y="589"/>
      <point x="289" y="589" type="curve"/>
      <point x="289" y="589"/>
      <point x="300" y="618"/>
      <point x="304" y="636" type="curve" smooth="yes"/>
      <point x="309" y="663" type="line"/>
      <point x="309.6" y="665.251"/>
      <point x="309.885" y="667.435"/>
      <point x="309.885" y="669.521" type="curve" smooth="yes"/>
      <point x="309.885" y="681.332"/>
      <point x="300.749" y="690"/>
      <point x="288" y="690" type="curve" smooth="yes"/>
      <point x="273" y="690"/>
      <point x="259" y="678"/>
      <point x="255" y="663" type="curve"/>
      <point x="250" y="636" type="line" smooth="yes"/>
      <point x="246" y="618"/>
      <point x="245" y="589"/>
      <point x="245" y="589" type="curve"/>
      <point x="245" y="589"/>
      <point x="227" y="607"/>
      <point x="213" y="615" type="curve" smooth="yes"/>
      <point x="188" y="629" type="line" smooth="yes"/>
      <point x="185" y="631"/>
      <point x="181" y="632"/>
      <point x="175" y="632" type="curve" smooth="yes"/>
      <point x="160" y="632"/>
      <point x="146" y="618"/>
      <point x="143" y="606" type="curve" smooth="yes"/>
      <point x="141" y="596"/>
      <point x="144" y="587"/>
      <point x="152" y="582" type="curve" smooth="yes"/>
      <point x="182" y="565" type="line" smooth="yes"/>
      <point x="195" y="557"/>
      <point x="226" y="551"/>
      <point x="226" y="551" type="curve"/>
      <point x="226" y="551"/>
      <point x="199" y="536"/>
      <point x="183" y="521" type="curve" smooth="yes"/>
      <point x="144" y="486" type="line" smooth="yes"/>
      <point x="138" y="480"/>
      <point x="134" y="473"/>
      <point x="133" y="466" type="curve" smooth="yes"/>
      <point x="132.432" y="463.727"/>
      <point x="132.166" y="461.554"/>
      <point x="132.166" y="459.5" type="curve" smooth="yes"/>
      <point x="132.166" y="447.096"/>
      <point x="141.847" y="439"/>
    </contour>
  </outline>
</glyph>
<glyph name="plus" format="1">
  <advance width="443"/>
  <unicode hex="002B"/>
  <outline>
    <contour>
      <point x="184" y="85" type="curve" smooth="yes"/>
      <point x="199" y="85"/>
      <point x="213" y="97"/>
      <point x="216" y="112" type="curve" smooth="yes"/>
      <point x="240" y="224" type="line"/>
      <point x="354" y="224" type="line" smooth="yes"/>
      <point x="369" y="224"/>
      <point x="384" y="236"/>
      <point x="387" y="251" type="curve" smooth="yes"/>
      <point x="387.388" y="252.938"/>
      <point x="387.575" y="254.825"/>
      <point x="387.575" y="256.643" type="curve" smooth="yes"/>
      <point x="387.575" y="268.9"/>
      <point x="379.062" y="278"/>
      <point x="366" y="278" type="curve" smooth="yes"/>
      <point x="252" y="278" type="line"/>
      <point x="273" y="380" type="line" smooth="yes"/>
      <point x="273.388" y="381.938"/>
      <point x="273.575" y="383.825"/>
      <point x="273.575" y="385.643" type="curve" smooth="yes"/>
      <point x="273.575" y="397.9"/>
      <point x="265.062" y="407"/>
      <point x="252" y="407" type="curve" smooth="yes"/>
      <point x="237" y="407"/>
      <point x="222" y="395"/>
      <point x="219" y="380" type="curve" smooth="yes"/>
      <point x="198" y="278" type="line"/>
      <point x="85" y="278" type="line" smooth="yes"/>
      <point x="70" y="278"/>
      <point x="55" y="266"/>
      <point x="52" y="251" type="curve" smooth="yes"/>
      <point x="51.6125" y="249.062"/>
      <point x="51.4252" y="247.175"/>
      <point x="51.4252" y="245.357" type="curve" smooth="yes"/>
      <point x="51.4252" y="233.1"/>
      <point x="59.9376" y="224"/>
      <point x="73" y="224" type="curve" smooth="yes"/>
      <point x="186" y="224" type="line"/>
      <point x="162" y="112" type="line" smooth="yes"/>
      <point x="161.641" y="110.203"/>
      <point x="161.468" y="108.449"/>
      <point x="161.468" y="106.754" type="curve" smooth="yes"/>
      <point x="161.468" y="94.297"/>
      <point x="170.797" y="85"/>
    </contour>
  </outline>
</glyph>
<glyph name="period" format="1">
  <advance width="214"/>
  <unicode hex="002E"/>
  <outline>
    <contour>
      <point x="47" y="0" type="curve" smooth="yes"/>
      <point x="31.2799" y="0"/>
      <point x="21.7207" y="11.6373"/>
      <point x="21.7207" y="27.549" type="curve" smooth="yes"/>
      <point x="21.7207" y="30.8689"/>
      <point x="22.1369" y="34.3748"/>
      <point x="23" y="38" type="curve"/>
      <point x="27" y="61"/>
      <point x="51" y="83"/>
      <point x="72" y="83" type="curve" smooth="yes"/>
      <point x="87.0517" y="83"/>
      <point x="97.2087" y="71.8122"/>
      <point x="97.2087" y="56.4531" type="curve" smooth="yes"/>
      <point x="97.2087" y="53.4445"/>
      <point x="96.819" y="50.2759"/>
      <point x="96" y="47" type="curve"/>
      <point x="91" y="21"/>
      <point x="68" y="0"/>
    </contour>
  </outline>
</glyph>
<glyph name="slash" format="1">
  <advance width="545"/>
  <unicode hex="002F"/>
  <outline>
    <contour>
      <point x="41" y="-1" type="curve" smooth="yes"/>
      <point x="51" y="-1"/>
      <point x="61" y="4"/>
      <point x="68" y="13" type="curve" smooth="yes"/>
      <point x="550" y="641" type="line" smooth="yes"/>
      <point x="555" y="648"/>
      <point x="562" y="657"/>
      <point x="564" y="666" type="curve" smooth="yes"/>
      <point x="564.385" y="667.67"/>
      <point x="564.573" y="669.339"/>
      <point x="564.573" y="670.981" type="curve" smooth="yes"/>
      <point x="564.573" y="682.125"/>
      <point x="555.945" y="692"/>
      <point x="542" y="692" type="curve" smooth="yes"/>
      <point x="532" y="692"/>
      <point x="521" y="688"/>
      <point x="514" y="678" type="curve" smooth="yes"/>
      <point x="25" y="41" type="line" smooth="yes"/>
      <point x="22" y="37"/>
      <point x="20" y="32"/>
      <point x="19" y="27" type="curve" smooth="yes"/>
      <point x="18.5857" y="24.9285"/>
      <point x="18.3812" y="22.8952"/>
      <point x="18.3812" y="20.929" type="curve" smooth="yes"/>
      <point x="18.3812" y="8.65739"/>
      <point x="26.3477" y="-1"/>
    </contour>
  </outline>
</glyph>
<glyph name="zero" format="1">
  <advance width="614"/>
  <unicode hex="0030"/>
  <outline>
    <contour>
      <point x="240" y="-3" type="curve" smooth="yes"/>
      <point x="133.164" y="-3"/>
      <point x="71.5273" y="97.2265"/>
      <point x="71.5273" y="227.694" type="curve" smooth="yes"/>
      <point x="71.5273" y="258.423"/>
      <point x="74.9466" y="290.83"/>
      <point x="82" y="324" type="curve" smooth="yes"/>
      <point x="123" y="515"/>
      <point x="269" y="686"/>
      <point x="409" y="686" type="curve" smooth="yes"/>
      <point x="515.619" y="686"/>
      <point x="576.569" y="586.834"/>
      <point x="576.569" y="455.954" type="curve" smooth="yes"/>
      <point x="576.569" y="424.797"/>
      <point x="573.115" y="391.842"/>
      <point x="566" y="358" type="curve" smooth="yes"/>
      <point x="524" y="164"/>
      <point x="377" y="-3"/>
    </contour>
    <contour>
      <point x="398" y="631" type="curve" smooth="yes"/>
      <point x="293" y="631"/>
      <point x="172" y="493"/>
      <point x="137" y="326" type="curve" smooth="yes"/>
      <point x="130.436" y="295.72"/>
      <point x="127.234" y="265.978"/>
      <point x="127.234" y="237.904" type="curve" smooth="yes"/>
      <point x="127.234" y="133.396"/>
      <point x="171.598" y="52"/>
      <point x="252" y="52" type="curve" smooth="yes"/>
      <point x="356" y="52"/>
      <point x="477" y="190"/>
      <point x="512" y="356" type="curve" smooth="yes"/>
      <point x="518.449" y="386.166"/>
      <point x="521.566" y="415.684"/>
      <point x="521.566" y="443.516" type="curve" smooth="yes"/>
      <point x="521.566" y="549.465"/>
      <point x="476.404" y="631"/>
    </contour>
  </outline>
</glyph>
<glyph name="one" format="1">
  <advance width="404"/>
  <unicode hex="0031"/>
  <outline>
    <contour>
      <point x="193" y="56" type="line"/>
      <point x="264" y="56" type="line" smooth="yes"/>
      <point x="280.023" y="56"/>
      <point x="288.934" y="46.7545"/>
      <point x="288.934" y="34.8609" type="curve" smooth="yes"/>
      <point x="288.934" y="32.6513"/>
      <point x="288.627" y="30.3502"/>
      <point x="288" y="28" type="curve"/>
      <point x="285" y="12"/>
      <point x="270" y="0"/>
      <point x="255" y="0" type="curve" smooth="yes"/>
      <point x="37" y="0" type="line" smooth="yes"/>
      <point x="22.9074" y="-1.77636e-15"/>
      <point x="13.4695" y="9.30948"/>
      <point x="13.4695" y="22.462" type="curve" smooth="yes"/>
      <point x="13.4695" y="24.2421"/>
      <point x="13.6424" y="26.0926"/>
      <point x="14" y="28" type="curve"/>
      <point x="18" y="43"/>
      <point x="32" y="56"/>
      <point x="48" y="56" type="curve" smooth="yes"/>
      <point x="137" y="56" type="line"/>
      <point x="257" y="579" type="line"/>
      <point x="160" y="494" type="line"/>
      <point x="152" y="488"/>
      <point x="144" y="485"/>
      <point x="137" y="485" type="curve" smooth="yes"/>
      <point x="123.388" y="485"/>
      <point x="114.118" y="494.41"/>
      <point x="114.118" y="506.455" type="curve" smooth="yes"/>
      <point x="114.118" y="508.568"/>
      <point x="114.403" y="510.762"/>
      <point x="115" y="513" type="curve" smooth="yes"/>
      <point x="116" y="520"/>
      <point x="121" y="527"/>
      <point x="127" y="532" type="curve" smooth="yes"/>
      <point x="284" y="671" type="line" smooth="yes"/>
      <point x="290" y="677"/>
      <point x="299" y="680"/>
      <point x="306" y="680" type="curve" smooth="yes"/>
      <point x="321.53" y="680"/>
      <point x="329.616" y="669.579"/>
      <point x="329.616" y="657.727" type="curve" smooth="yes"/>
      <point x="329.616" y="655.842"/>
      <point x="329.412" y="653.921"/>
      <point x="329" y="652" type="curve" smooth="yes"/>
    </contour>
  </outline>
</glyph>
<glyph name="three" format="1">
  <advance width="543"/>
  <unicode hex="0033"/>
  <outline>
    <contour>
      <point x="210" y="-6" type="curve" smooth="yes"/>
      <point x="289" y="-6"/>
      <point x="429" y="48"/>
      <point x="461" y="200" type="curve" smooth="yes"/>
      <point x="464.424" y="216.315"/>
      <point x="466.144" y="232.183"/>
      <point x="466.144" y="247.384" type="curve" smooth="yes"/>
      <point x="466.144" y="307.657"/>
      <point x="439.102" y="357.445"/>
      <point x="384" y="383" type="curve"/>
      <point x="450" y="415"/>
      <point x="502" y="469"/>
      <point x="516" y="532" type="curve" smooth="yes"/>
      <point x="517.898" y="541.067"/>
      <point x="518.817" y="549.912"/>
      <point x="518.817" y="558.48" type="curve" smooth="yes"/>
      <point x="518.817" y="631.183"/>
      <point x="452.613" y="684"/>
      <point x="356" y="684" type="curve" smooth="yes"/>
      <point x="298" y="684"/>
      <point x="245" y="664"/>
      <point x="212" y="646" type="curve" smooth="yes"/>
      <point x="181" y="629"/>
      <point x="173" y="617"/>
      <point x="171" y="607" type="curve" smooth="yes"/>
      <point x="170.517" y="604.908"/>
      <point x="170.268" y="602.764"/>
      <point x="170.268" y="600.64" type="curve" smooth="yes"/>
      <point x="170.268" y="589.561"/>
      <point x="177.057" y="579"/>
      <point x="193" y="579" type="curve" smooth="yes"/>
      <point x="200" y="579"/>
      <point x="205" y="582"/>
      <point x="214" y="588" type="curve" smooth="yes"/>
      <point x="232" y="599"/>
      <point x="273" y="628"/>
      <point x="344" y="628" type="curve" smooth="yes"/>
      <point x="423.437" y="628"/>
      <point x="461.316" y="587.258"/>
      <point x="461.316" y="545.493" type="curve" smooth="yes"/>
      <point x="461.316" y="540.991"/>
      <point x="460.876" y="536.476"/>
      <point x="460" y="532" type="curve"/>
      <point x="445" y="465"/>
      <point x="352" y="409"/>
      <point x="280" y="409" type="curve" smooth="yes"/>
      <point x="264" y="409"/>
      <point x="250" y="397"/>
      <point x="246" y="381" type="curve" smooth="yes"/>
      <point x="245.641" y="379.203"/>
      <point x="245.468" y="377.435"/>
      <point x="245.468" y="375.714" type="curve" smooth="yes"/>
      <point x="245.468" y="363.072"/>
      <point x="254.797" y="353"/>
      <point x="268" y="353" type="curve" smooth="yes"/>
      <point x="311.099" y="353"/>
      <point x="409.023" y="331.232"/>
      <point x="409.023" y="235.573" type="curve" smooth="yes"/>
      <point x="409.023" y="224.696"/>
      <point x="407.757" y="212.864"/>
      <point x="405" y="200" type="curve" smooth="yes"/>
      <point x="383" y="97"/>
      <point x="291" y="50"/>
      <point x="220" y="50" type="curve" smooth="yes"/>
      <point x="132" y="50"/>
      <point x="101" y="109"/>
      <point x="93" y="133" type="curve" smooth="yes"/>
      <point x="90" y="142"/>
      <point x="83" y="148"/>
      <point x="71" y="148" type="curve" smooth="yes"/>
      <point x="56" y="148"/>
      <point x="42" y="137"/>
      <point x="38" y="122" type="curve"/>
      <point x="38" y="118"/>
      <point x="36" y="112"/>
      <point x="39" y="104" type="curve" smooth="yes"/>
      <point x="40" y="101"/>
      <point x="69" y="-6"/>
    </contour>
  </outline>
</glyph>
<glyph name="five" format="1">
  <advance width="559"/>
  <unicode hex="0035"/>
  <outline>
    <contour>
      <point x="211" y="-3" type="curve" smooth="yes"/>
      <point x="330" y="-3"/>
      <point x="463" y="112"/>
      <point x="493" y="253" type="curve" smooth="yes"/>
      <point x="497.687" y="274.559"/>
      <point x="499.933" y="294.995"/>
      <point x="499.933" y="314.133" type="curve" smooth="yes"/>
      <point x="499.933" y="417.5"/>
      <point x="434.409" y="483"/>
      <point x="334" y="483" type="curve" smooth="yes"/>
      <point x="279" y="483"/>
      <point x="231" y="464"/>
      <point x="195" y="445" type="curve"/>
      <point x="249" y="617" type="line"/>
      <point x="515" y="617" type="line" smooth="yes"/>
      <point x="530" y="617"/>
      <point x="545" y="629"/>
      <point x="549" y="645" type="curve" smooth="yes"/>
      <point x="549.359" y="646.797"/>
      <point x="549.532" y="648.565"/>
      <point x="549.532" y="650.286" type="curve" smooth="yes"/>
      <point x="549.532" y="662.928"/>
      <point x="540.203" y="673"/>
      <point x="527" y="673" type="curve" smooth="yes"/>
      <point x="236" y="673" type="line" smooth="yes"/>
      <point x="222" y="673"/>
      <point x="206" y="662"/>
      <point x="202" y="648" type="curve" smooth="yes"/>
      <point x="119" y="385" type="line" smooth="yes"/>
      <point x="117.967" y="381.489"/>
      <point x="117.446" y="378.02"/>
      <point x="117.446" y="374.726" type="curve" smooth="yes"/>
      <point x="117.446" y="362.073"/>
      <point x="125.131" y="352"/>
      <point x="141" y="352" type="curve" smooth="yes"/>
      <point x="149" y="352"/>
      <point x="156" y="355"/>
      <point x="164" y="362" type="curve" smooth="yes"/>
      <point x="171" y="367"/>
      <point x="234" y="427"/>
      <point x="322" y="427" type="curve" smooth="yes"/>
      <point x="407.297" y="427"/>
      <point x="442.44" y="368.927"/>
      <point x="442.44" y="301.029" type="curve" smooth="yes"/>
      <point x="442.44" y="285.346"/>
      <point x="440.565" y="269.138"/>
      <point x="437" y="253" type="curve" smooth="yes"/>
      <point x="414" y="145"/>
      <point x="314" y="53"/>
      <point x="223" y="53" type="curve" smooth="yes"/>
      <point x="156" y="53"/>
      <point x="118" y="82"/>
      <point x="93" y="133" type="curve" smooth="yes"/>
      <point x="88" y="142"/>
      <point x="85" y="148"/>
      <point x="71" y="148" type="curve" smooth="yes"/>
      <point x="56" y="148"/>
      <point x="40" y="135"/>
      <point x="37" y="120" type="curve" smooth="yes"/>
      <point x="36" y="115"/>
      <point x="36" y="110"/>
      <point x="37" y="106" type="curve" smooth="yes"/>
      <point x="45" y="75"/>
      <point x="98" y="-3"/>
    </contour>
  </outline>
</glyph>
<glyph name="seven" format="1">
  <advance width="501"/>
  <unicode hex="0037"/>
  <outline>
    <contour>
      <point x="88" y="1" type="curve" smooth="yes"/>
      <point x="74.3875" y="1"/>
      <point x="65.118" y="10.4098"/>
      <point x="65.118" y="22.4553" type="curve" smooth="yes"/>
      <point x="65.118" y="24.568"/>
      <point x="65.4031" y="26.7617"/>
      <point x="66" y="29" type="curve" smooth="yes"/>
      <point x="67" y="33"/>
      <point x="68" y="37"/>
      <point x="71" y="41" type="curve" smooth="yes"/>
      <point x="482" y="614" type="line"/>
      <point x="167" y="614" type="line" smooth="yes"/>
      <point x="153.055" y="614"/>
      <point x="144.427" y="623.115"/>
      <point x="144.427" y="636.05" type="curve" smooth="yes"/>
      <point x="144.427" y="637.956"/>
      <point x="144.615" y="639.945"/>
      <point x="145" y="642" type="curve" smooth="yes"/>
      <point x="148" y="657"/>
      <point x="163" y="670"/>
      <point x="179" y="670" type="curve" smooth="yes"/>
      <point x="539" y="670" type="line" smooth="yes"/>
      <point x="552.945" y="670"/>
      <point x="561.573" y="660.125"/>
      <point x="561.573" y="646.995" type="curve" smooth="yes"/>
      <point x="561.573" y="645.06"/>
      <point x="561.385" y="643.055"/>
      <point x="561" y="641" type="curve" smooth="yes"/>
      <point x="560" y="637"/>
      <point x="558" y="633"/>
      <point x="555" y="629" type="curve" smooth="yes"/>
      <point x="116" y="16" type="line" smooth="yes"/>
      <point x="109" y="6"/>
      <point x="98" y="1"/>
    </contour>
  </outline>
</glyph>
<glyph name="eight" format="1">
  <advance width="547"/>
  <unicode hex="0038"/>
  <outline>
    <contour>
      <point x="216" y="-3" type="curve" smooth="yes"/>
      <point x="335" y="-3"/>
      <point x="439" y="79"/>
      <point x="463" y="189" type="curve"/>
      <point x="465.71" y="202.379"/>
      <point x="467.043" y="215.414"/>
      <point x="467.043" y="228.032" type="curve" smooth="yes"/>
      <point x="467.043" y="289.919"/>
      <point x="434.976" y="341.774"/>
      <point x="376" y="375" type="curve"/>
      <point x="437" y="403"/>
      <point x="500" y="446"/>
      <point x="517" y="526" type="curve" smooth="yes"/>
      <point x="519.575" y="538.1"/>
      <point x="520.823" y="549.737"/>
      <point x="520.823" y="560.828" type="curve" smooth="yes"/>
      <point x="520.823" y="635.898"/>
      <point x="463.612" y="686"/>
      <point x="373" y="686" type="curve" smooth="yes"/>
      <point x="274" y="686"/>
      <point x="175" y="620"/>
      <point x="152" y="510" type="curve" smooth="yes"/>
      <point x="149.607" y="498.632"/>
      <point x="148.489" y="488.048"/>
      <point x="148.489" y="478.183" type="curve" smooth="yes"/>
      <point x="148.489" y="422.093"/>
      <point x="184.628" y="389.261"/>
      <point x="228" y="368" type="curve"/>
      <point x="156" y="336"/>
      <point x="74" y="284"/>
      <point x="49" y="179" type="curve"/>
      <point x="46.0696" y="165.622"/>
      <point x="44.6489" y="152.699"/>
      <point x="44.6489" y="140.331" type="curve" smooth="yes"/>
      <point x="44.6489" y="55.629"/>
      <point x="111.289" y="-3"/>
    </contour>
    <contour>
      <point x="228" y="52" type="curve" smooth="yes"/>
      <point x="153.055" y="52"/>
      <point x="99.6027" y="91.8012"/>
      <point x="99.6027" y="150.807" type="curve" smooth="yes"/>
      <point x="99.6027" y="157.937"/>
      <point x="100.383" y="165.346"/>
      <point x="102" y="173" type="curve" smooth="yes"/>
      <point x="124" y="277"/>
      <point x="221" y="311"/>
      <point x="299" y="343" type="curve"/>
      <point x="357.814" y="323.688"/>
      <point x="411.234" y="282.029"/>
      <point x="411.234" y="215.318" type="curve" smooth="yes"/>
      <point x="411.234" y="206.033"/>
      <point x="410.199" y="196.263"/>
      <point x="408" y="186" type="curve" smooth="yes"/>
      <point x="388" y="94"/>
      <point x="299" y="52"/>
    </contour>
    <contour>
      <point x="308" y="401" type="curve"/>
      <point x="236" y="422.429"/>
      <point x="204.408" y="449.735"/>
      <point x="204.408" y="491.735" type="curve" smooth="yes"/>
      <point x="204.408" y="498.735"/>
      <point x="205.286" y="506.143"/>
      <point x="207" y="514" type="curve" smooth="yes"/>
      <point x="231" y="629"/>
      <point x="358" y="630"/>
      <point x="361" y="630" type="curve" smooth="yes"/>
      <point x="421.474" y="630"/>
      <point x="466.13" y="600.737"/>
      <point x="466.13" y="551.354" type="curve" smooth="yes"/>
      <point x="466.13" y="545.208"/>
      <point x="465.439" y="538.751"/>
      <point x="464" y="532" type="curve" smooth="yes"/>
      <point x="454" y="485"/>
      <point x="422" y="442"/>
    </contour>
  </outline>
</glyph>
<glyph name="nine" format="1">
  <advance width="546"/>
  <unicode hex="0039"/>
  <outline>
    <contour>
      <point x="444" y="361" type="curve"/>
      <point x="453" y="385"/>
      <point x="459" y="409"/>
      <point x="465" y="434" type="curve"/>
      <point x="470.441" y="460.083"/>
      <point x="472.911" y="482.862"/>
      <point x="472.911" y="502.728" type="curve" smooth="yes"/>
      <point x="472.911" y="607.011"/>
      <point x="404.839" y="631"/>
      <point x="341" y="631" type="curve" smooth="yes"/>
      <point x="299" y="631"/>
      <point x="184" y="597"/>
      <point x="151" y="439" type="curve"/>
      <point x="147.291" y="421.939"/>
      <point x="145.63" y="406.819"/>
      <point x="145.63" y="393.421" type="curve" smooth="yes"/>
      <point x="145.63" y="298.448"/>
      <point x="229.08" y="290"/>
      <point x="258" y="290" type="curve" smooth="yes"/>
      <point x="351" y="290"/>
      <point x="421" y="342"/>
    </contour>
    <contour>
      <point x="159" y="5" type="curve" smooth="yes"/>
      <point x="152" y="2"/>
      <point x="147" y="0"/>
      <point x="140" y="0" type="curve" smooth="yes"/>
      <point x="126.938" y="0"/>
      <point x="118.425" y="8.34177"/>
      <point x="118.425" y="20.4026" type="curve" smooth="yes"/>
      <point x="118.425" y="22.1916"/>
      <point x="118.612" y="24.0624"/>
      <point x="119" y="26" type="curve" smooth="yes"/>
      <point x="121" y="37"/>
      <point x="129" y="46"/>
      <point x="139" y="50" type="curve" smooth="yes"/>
      <point x="248" y="98"/>
      <point x="350" y="180"/>
      <point x="406" y="279" type="curve"/>
      <point x="364" y="257"/>
      <point x="310" y="237"/>
      <point x="247" y="237" type="curve" smooth="yes"/>
      <point x="157.61" y="237"/>
      <point x="92.8627" y="287.009"/>
      <point x="92.8627" y="383.941" type="curve" smooth="yes"/>
      <point x="92.8627" y="400.868"/>
      <point x="94.8372" y="419.227"/>
      <point x="99" y="439" type="curve" smooth="yes"/>
      <point x="142" y="641"/>
      <point x="298" y="684"/>
      <point x="352" y="684" type="curve" smooth="yes"/>
      <point x="441.534" y="684"/>
      <point x="526.073" y="641.193"/>
      <point x="526.073" y="513.397" type="curve" smooth="yes"/>
      <point x="526.073" y="489.893"/>
      <point x="523.214" y="463.515"/>
      <point x="517" y="434" type="curve" smooth="yes"/>
      <point x="455" y="142"/>
      <point x="209" y="28"/>
    </contour>
  </outline>
</glyph>
<glyph name="colon" format="1">
  <advance width="235"/>
  <unicode hex="003A"/>
  <outline>
    <contour>
      <point x="149" y="358" type="curve" smooth="yes"/>
      <point x="170" y="358"/>
      <point x="193" y="379"/>
      <point x="199" y="405" type="curve" smooth="yes"/>
      <point x="199.554" y="407.769"/>
      <point x="199.82" y="410.461"/>
      <point x="199.82" y="413.045" type="curve" smooth="yes"/>
      <point x="199.82" y="429.124"/>
      <point x="189.508" y="441"/>
      <point x="174" y="441" type="curve" smooth="yes"/>
      <point x="153" y="441"/>
      <point x="130" y="419"/>
      <point x="125" y="396" type="curve" smooth="yes"/>
      <point x="124.137" y="392.375"/>
      <point x="123.721" y="388.869"/>
      <point x="123.721" y="385.549" type="curve" smooth="yes"/>
      <point x="123.721" y="369.637"/>
      <point x="133.28" y="358"/>
    </contour>
    <contour>
      <point x="44" y="0" type="curve" smooth="yes"/>
      <point x="65" y="0"/>
      <point x="88" y="21"/>
      <point x="93" y="47" type="curve"/>
      <point x="93.819" y="50.2759"/>
      <point x="94.2087" y="53.4445"/>
      <point x="94.2087" y="56.4531" type="curve" smooth="yes"/>
      <point x="94.2087" y="71.8122"/>
      <point x="84.0517" y="83"/>
      <point x="69" y="83" type="curve" smooth="yes"/>
      <point x="48" y="83"/>
      <point x="24" y="61"/>
      <point x="20" y="38" type="curve"/>
      <point x="19.1369" y="34.3748"/>
      <point x="18.7207" y="30.8689"/>
      <point x="18.7207" y="27.549" type="curve" smooth="yes"/>
      <point x="18.7207" y="11.6373"/>
      <point x="28.2799" y="0"/>
    </contour>
  </outline>
</glyph>
<glyph name="semicolon" format="1">
  <advance width="271"/>
  <unicode hex="003B"/>
  <outline>
    <contour>
      <point x="34" y="-93" type="curve" smooth="yes"/>
      <point x="53" y="-93"/>
      <point x="57" y="-77"/>
      <point x="93" y="-19" type="curve" smooth="yes"/>
      <point x="116" y="17"/>
      <point x="122" y="26"/>
      <point x="126" y="45" type="curve" smooth="yes"/>
      <point x="126.354" y="46.771"/>
      <point x="126.527" y="48.5698"/>
      <point x="126.527" y="50.3653" type="curve" smooth="yes"/>
      <point x="126.527" y="63.7772"/>
      <point x="116.875" y="77"/>
      <point x="101" y="77" type="curve" smooth="yes"/>
      <point x="80" y="77"/>
      <point x="56" y="56"/>
      <point x="51" y="32" type="curve" smooth="yes"/>
      <point x="50.5" y="29"/>
      <point x="50.25" y="26.0625"/>
      <point x="50.25" y="23.2344" type="curve" smooth="yes"/>
      <point x="50.25" y="14.75"/>
      <point x="52.5" y="7.25"/>
      <point x="57" y="2" type="curve"/>
      <point x="19" y="-62" type="line" smooth="yes"/>
      <point x="17.6064" y="-66.1809"/>
      <point x="14.6948" y="-69.077"/>
      <point x="14.6948" y="-74.623" type="curve" smooth="yes"/>
      <point x="14.6948" y="-84.9473"/>
      <point x="22.3342" y="-93"/>
    </contour>
    <contour>
      <point x="189" y="358" type="curve" smooth="yes"/>
      <point x="210" y="358"/>
      <point x="233" y="379"/>
      <point x="239" y="405" type="curve" smooth="yes"/>
      <point x="239.554" y="407.769"/>
      <point x="239.82" y="410.461"/>
      <point x="239.82" y="413.045" type="curve" smooth="yes"/>
      <point x="239.82" y="429.124"/>
      <point x="229.508" y="441"/>
      <point x="214" y="441" type="curve" smooth="yes"/>
      <point x="193" y="441"/>
      <point x="170" y="419"/>
      <point x="165" y="396" type="curve" smooth="yes"/>
      <point x="164.137" y="392.375"/>
      <point x="163.721" y="388.869"/>
      <point x="163.721" y="385.549" type="curve" smooth="yes"/>
      <point x="163.721" y="369.637"/>
      <point x="173.28" y="358"/>
    </contour>
  </outline>
</glyph>
<glyph name="equal" format="1">
  <advance width="493"/>
  <unicode hex="003D"/>
  <outline>
    <contour>
      <point x="398" y="299" type="curve" smooth="yes"/>
      <point x="112" y="299" type="line" smooth="yes"/>
      <point x="98.9376" y="299"/>
      <point x="90.4252" y="308.1"/>
      <point x="90.4252" y="320.357" type="curve" smooth="yes"/>
      <point x="90.4252" y="322.175"/>
      <point x="90.6125" y="324.062"/>
      <point x="91" y="326" type="curve" smooth="yes"/>
      <point x="94" y="341"/>
      <point x="109" y="354"/>
      <point x="124" y="354" type="curve" smooth="yes"/>
      <point x="410" y="354" type="line" smooth="yes"/>
      <point x="423.203" y="354"/>
      <point x="432.532" y="343.928"/>
      <point x="432.532" y="331.286" type="curve" smooth="yes"/>
      <point x="432.532" y="329.565"/>
      <point x="432.359" y="327.797"/>
      <point x="432" y="326" type="curve" smooth="yes"/>
      <point x="429" y="311"/>
      <point x="413" y="299"/>
    </contour>
    <contour>
      <point x="365" y="145" type="curve" smooth="yes"/>
      <point x="79" y="145" type="line" smooth="yes"/>
      <point x="65.9376" y="145"/>
      <point x="57.4252" y="154.1"/>
      <point x="57.4252" y="166.357" type="curve" smooth="yes"/>
      <point x="57.4252" y="168.175"/>
      <point x="57.6125" y="170.062"/>
      <point x="58" y="172" type="curve" smooth="yes"/>
      <point x="61" y="187"/>
      <point x="76" y="200"/>
      <point x="91" y="200" type="curve" smooth="yes"/>
      <point x="377" y="200" type="line" smooth="yes"/>
      <point x="390.203" y="200"/>
      <point x="399.532" y="189.928"/>
      <point x="399.532" y="177.286" type="curve" smooth="yes"/>
      <point x="399.532" y="175.565"/>
      <point x="399.359" y="173.797"/>
      <point x="399" y="172" type="curve" smooth="yes"/>
      <point x="396" y="157"/>
      <point x="380" y="145"/>
    </contour>
  </outline>
</glyph>
<glyph name="greater" format="1">
  <advance width="540"/>
  <unicode hex="003E"/>
  <outline>
    <contour>
      <point x="69" y="8" type="curve" smooth="yes"/>
      <point x="55.797" y="8"/>
      <point x="46.4678" y="18.0718"/>
      <point x="46.4678" y="30.714" type="curve" smooth="yes"/>
      <point x="46.4678" y="32.4347"/>
      <point x="46.6406" y="34.203"/>
      <point x="47" y="36" type="curve" smooth="yes"/>
      <point x="49" y="45"/>
      <point x="56" y="54"/>
      <point x="65" y="60" type="curve" smooth="yes"/>
      <point x="388" y="247" type="line"/>
      <point x="127" y="440" type="line" smooth="yes"/>
      <point x="120" y="445"/>
      <point x="117" y="454"/>
      <point x="119" y="463" type="curve" smooth="yes"/>
      <point x="122" y="479"/>
      <point x="138" y="492"/>
      <point x="153" y="492" type="curve" smooth="yes"/>
      <point x="158" y="492"/>
      <point x="163" y="490"/>
      <point x="167" y="487" type="curve" smooth="yes"/>
      <point x="459" y="271" type="line" smooth="yes"/>
      <point x="466" y="266"/>
      <point x="469" y="257"/>
      <point x="467" y="248" type="curve" smooth="yes"/>
      <point x="465" y="238"/>
      <point x="459" y="229"/>
      <point x="450" y="224" type="curve" smooth="yes"/>
      <point x="86" y="13" type="line" smooth="yes"/>
      <point x="81" y="10"/>
      <point x="74" y="8"/>
    </contour>
  </outline>
</glyph>
<glyph name="question" format="1">
  <advance width="533"/>
  <unicode hex="003F"/>
  <outline>
    <contour>
      <point x="178" y="175" type="curve" smooth="yes"/>
      <point x="185" y="175"/>
      <point x="192" y="178"/>
      <point x="198" y="183" type="curve" smooth="yes"/>
      <point x="224" y="202"/>
      <point x="286" y="249"/>
      <point x="338" y="287" type="curve" smooth="yes"/>
      <point x="399" y="330"/>
      <point x="494" y="395"/>
      <point x="518" y="505" type="curve" smooth="yes"/>
      <point x="521.576" y="521.916"/>
      <point x="523.317" y="538.076"/>
      <point x="523.317" y="553.367" type="curve" smooth="yes"/>
      <point x="523.317" y="649.26"/>
      <point x="454.846" y="711"/>
      <point x="341" y="711" type="curve" smooth="yes"/>
      <point x="265" y="711"/>
      <point x="200" y="671"/>
      <point x="161" y="636" type="curve" smooth="yes"/>
      <point x="146" y="623"/>
      <point x="135" y="612"/>
      <point x="132" y="602" type="curve"/>
      <point x="131.665" y="600.215"/>
      <point x="131.505" y="598.491"/>
      <point x="131.505" y="596.839" type="curve" smooth="yes"/>
      <point x="131.505" y="583.682"/>
      <point x="141.674" y="575"/>
      <point x="155" y="575" type="curve" smooth="yes"/>
      <point x="161" y="575"/>
      <point x="168" y="578"/>
      <point x="173" y="582" type="curve" smooth="yes"/>
      <point x="210" y="616"/>
      <point x="261" y="657"/>
      <point x="329" y="657" type="curve" smooth="yes"/>
      <point x="432.975" y="657"/>
      <point x="468.749" y="601.456"/>
      <point x="468.749" y="540.479" type="curve" smooth="yes"/>
      <point x="468.749" y="528.735"/>
      <point x="467.422" y="516.789"/>
      <point x="465" y="505" type="curve" smooth="yes"/>
      <point x="447" y="422"/>
      <point x="370" y="373"/>
      <point x="314" y="330" type="curve" smooth="yes"/>
      <point x="259" y="287"/>
      <point x="194" y="239"/>
      <point x="171" y="222" type="curve" smooth="yes"/>
      <point x="164" y="217"/>
      <point x="158" y="210"/>
      <point x="156" y="202" type="curve" smooth="yes"/>
      <point x="155.641" y="200.203"/>
      <point x="155.468" y="198.449"/>
      <point x="155.468" y="196.754" type="curve" smooth="yes"/>
      <point x="155.468" y="184.297"/>
      <point x="164.797" y="175"/>
    </contour>
    <contour>
      <point x="107" y="0" type="curve" smooth="yes"/>
      <point x="128" y="0"/>
      <point x="151" y="21"/>
      <point x="156" y="47" type="curve"/>
      <point x="156.819" y="50.2759"/>
      <point x="157.209" y="53.4445"/>
      <point x="157.209" y="56.4531" type="curve" smooth="yes"/>
      <point x="157.209" y="71.8122"/>
      <point x="147.052" y="83"/>
      <point x="132" y="83" type="curve" smooth="yes"/>
      <point x="111" y="83"/>
      <point x="87" y="61"/>
      <point x="83" y="38" type="curve"/>
      <point x="82.1369" y="34.3748"/>
      <point x="81.7207" y="30.8689"/>
      <point x="81.7207" y="27.549" type="curve" smooth="yes"/>
      <point x="81.7207" y="11.6373"/>
      <point x="91.2799" y="0"/>
    </contour>
  </outline>
</glyph>
<glyph name="at" format="1">
  <advance width="828"/>
  <unicode hex="0040"/>
  <outline>
    <contour>
      <point x="347" y="-94" type="curve" smooth="yes"/>
      <point x="446" y="-94"/>
      <point x="528" y="-58"/>
      <point x="574" y="-29" type="curve" smooth="yes"/>
      <point x="589" y="-19"/>
      <point x="595" y="-12"/>
      <point x="597" y="-3" type="curve" smooth="yes"/>
      <point x="597.388" y="-1.06243"/>
      <point x="597.575" y="0.82508"/>
      <point x="597.575" y="2.64314" type="curve" smooth="yes"/>
      <point x="597.575" y="14.8999"/>
      <point x="589.062" y="24"/>
      <point x="576" y="24" type="curve" smooth="yes"/>
      <point x="570" y="24"/>
      <point x="564" y="22"/>
      <point x="553" y="15" type="curve" smooth="yes"/>
      <point x="513" y="-8"/>
      <point x="442" y="-41"/>
      <point x="358" y="-41" type="curve" smooth="yes"/>
      <point x="246.23" y="-41"/>
      <point x="113.214" y="39.2622"/>
      <point x="113.214" y="191.411" type="curve" smooth="yes"/>
      <point x="113.214" y="210.781"/>
      <point x="115.37" y="231.317"/>
      <point x="120" y="253" type="curve" smooth="yes"/>
      <point x="164" y="457"/>
      <point x="341" y="564"/>
      <point x="495" y="564" type="curve" smooth="yes"/>
      <point x="650.986" y="564"/>
      <point x="722.887" y="463.385"/>
      <point x="722.887" y="348.669" type="curve" smooth="yes"/>
      <point x="722.887" y="328.067"/>
      <point x="720.567" y="307.01"/>
      <point x="716" y="286" type="curve"/>
      <point x="690" y="161"/>
      <point x="611" y="149"/>
      <point x="583" y="149" type="curve" smooth="yes"/>
      <point x="583" y="149"/>
      <point x="501.982" y="149.844"/>
      <point x="501.982" y="210.454" type="curve" smooth="yes"/>
      <point x="501.982" y="215.82"/>
      <point x="502.617" y="221.656"/>
      <point x="504" y="228" type="curve" smooth="yes"/>
      <point x="510" y="258"/>
      <point x="519" y="263"/>
      <point x="523" y="279" type="curve" smooth="yes"/>
      <point x="523.39" y="280.949"/>
      <point x="523.577" y="282.847"/>
      <point x="523.577" y="284.675" type="curve" smooth="yes"/>
      <point x="523.577" y="296.916"/>
      <point x="515.181" y="306"/>
      <point x="503" y="306" type="curve" smooth="yes"/>
      <point x="491" y="306"/>
      <point x="481" y="302"/>
      <point x="473" y="289" type="curve" smooth="yes"/>
      <point x="453" y="256"/>
      <point x="383" y="162"/>
      <point x="328" y="162" type="curve" smooth="yes"/>
      <point x="287.711" y="162"/>
      <point x="279.397" y="190.976"/>
      <point x="279.397" y="214.323" type="curve" smooth="yes"/>
      <point x="279.397" y="224.007"/>
      <point x="280.827" y="232.723"/>
      <point x="282" y="238" type="curve" smooth="yes"/>
      <point x="297" y="309"/>
      <point x="361" y="376"/>
      <point x="428" y="376" type="curve" smooth="yes"/>
      <point x="449" y="376"/>
      <point x="470" y="368"/>
      <point x="489" y="354" type="curve" smooth="yes"/>
      <point x="497" y="347"/>
      <point x="502" y="346"/>
      <point x="507" y="346" type="curve" smooth="yes"/>
      <point x="522.387" y="346"/>
      <point x="541.483" y="359.357"/>
      <point x="541.483" y="377.215" type="curve" smooth="yes"/>
      <point x="541.483" y="384.608"/>
      <point x="536.784" y="391.741"/>
      <point x="525" y="401" type="curve" smooth="yes"/>
      <point x="499" y="420"/>
      <point x="470" y="429"/>
      <point x="439" y="429" type="curve" smooth="yes"/>
      <point x="343" y="429"/>
      <point x="249" y="337"/>
      <point x="228" y="238" type="curve" smooth="yes"/>
      <point x="226.857" y="232"/>
      <point x="224.653" y="218.898"/>
      <point x="224.653" y="203.242" type="curve" smooth="yes"/>
      <point x="224.653" y="164.102"/>
      <point x="238.429" y="109"/>
      <point x="317" y="109" type="curve" smooth="yes"/>
      <point x="366" y="109"/>
      <point x="413" y="143"/>
      <point x="449" y="180" type="curve"/>
      <point x="464" y="99"/>
      <point x="561" y="95"/>
      <point x="569" y="95" type="curve" smooth="yes"/>
      <point x="602" y="95"/>
      <point x="733" y="109"/>
      <point x="770" y="286" type="curve" smooth="yes"/>
      <point x="775.321" y="311.142"/>
      <point x="777.882" y="335.47"/>
      <point x="777.882" y="358.755" type="curve" smooth="yes"/>
      <point x="777.882" y="510.515"/>
      <point x="669.124" y="618"/>
      <point x="507" y="618" type="curve" smooth="yes"/>
      <point x="298" y="618"/>
      <point x="111" y="462"/>
      <point x="66" y="253" type="curve" smooth="yes"/>
      <point x="60.8427" y="228.687"/>
      <point x="58.3843" y="205.112"/>
      <point x="58.3843" y="182.462" type="curve" smooth="yes"/>
      <point x="58.3843" y="20.6541"/>
      <point x="183.84" y="-94"/>
    </contour>
  </outline>
</glyph>
<glyph name="A" format="1">
  <advance width="624"/>
  <unicode hex="0041"/>
  <outline>
    <contour>
      <point x="441" y="670" type="curve" smooth="yes"/>
      <point x="524" y="37" type="line"/>
      <point x="525" y="34"/>
      <point x="524" y="31"/>
      <point x="523" y="28" type="curve" smooth="yes"/>
      <point x="520" y="13"/>
      <point x="506" y="-1"/>
      <point x="489" y="-1" type="curve" smooth="yes"/>
      <point x="477" y="-1"/>
      <point x="468" y="6"/>
      <point x="466" y="18" type="curve" smooth="yes"/>
      <point x="434" y="262" type="line"/>
      <point x="167" y="206" type="line"/>
      <point x="53" y="18" type="line" smooth="yes"/>
      <point x="47" y="7"/>
      <point x="35" y="0"/>
      <point x="24" y="0" type="curve" smooth="yes"/>
      <point x="9.17122" y="0"/>
      <point x="0.429433" y="11.4131"/>
      <point x="0.429433" y="23.6202" type="curve" smooth="yes"/>
      <point x="0.429433" y="25.4076"/>
      <point x="0.616844" y="27.2119"/>
      <point x="1" y="29" type="curve" smooth="yes"/>
      <point x="1" y="32"/>
      <point x="3" y="36"/>
      <point x="5" y="39" type="curve" smooth="yes"/>
      <point x="97" y="192" type="line"/>
      <point x="80" y="188"/>
      <point x="78" y="188"/>
      <point x="76" y="188" type="curve" smooth="yes"/>
      <point x="62.3875" y="188"/>
      <point x="53.118" y="196.686"/>
      <point x="53.118" y="209.747" type="curve" smooth="yes"/>
      <point x="53.118" y="212.038"/>
      <point x="53.4031" y="214.463"/>
      <point x="54" y="217" type="curve"/>
      <point x="56" y="230"/>
      <point x="68" y="241"/>
      <point x="81" y="244" type="curve" smooth="yes"/>
      <point x="136" y="256" type="line"/>
      <point x="387" y="671" type="line" smooth="yes"/>
      <point x="394" y="682"/>
      <point x="407" y="689"/>
      <point x="419" y="689" type="curve" smooth="yes"/>
      <point x="430" y="689"/>
      <point x="439" y="681"/>
    </contour>
    <contour>
      <point x="206" y="270" type="line"/>
      <point x="427" y="316" type="line"/>
      <point x="392" y="578" type="line"/>
    </contour>
  </outline>
</glyph>
<glyph name="B" format="1">
  <advance width="603"/>
  <unicode hex="0042"/>
  <outline>
    <contour>
      <point x="48" y="-2" type="curve" smooth="yes"/>
      <point x="352" y="-2"/>
      <point x="513" y="74"/>
      <point x="541" y="204" type="curve" smooth="yes"/>
      <point x="543.871" y="217.85"/>
      <point x="545.288" y="230.93"/>
      <point x="545.288" y="243.244" type="curve" smooth="yes"/>
      <point x="545.288" y="303.838"/>
      <point x="510.994" y="345.898"/>
      <point x="447" y="370" type="curve"/>
      <point x="487" y="395"/>
      <point x="532" y="439"/>
      <point x="548" y="513" type="curve" smooth="yes"/>
      <point x="549.056" y="518.281"/>
      <point x="550.143" y="526.908"/>
      <point x="550.143" y="537.54" type="curve" smooth="yes"/>
      <point x="550.143" y="587.308"/>
      <point x="526.323" y="681"/>
      <point x="364" y="681" type="curve" smooth="yes"/>
      <point x="182" y="681" type="line" smooth="yes"/>
      <point x="167" y="681"/>
      <point x="151" y="668"/>
      <point x="148" y="653" type="curve" smooth="yes"/>
      <point x="16" y="32" type="line" smooth="yes"/>
      <point x="15.1012" y="27.8055"/>
      <point x="14.6736" y="24.1047"/>
      <point x="14.6736" y="20.8439" type="curve" smooth="yes"/>
      <point x="14.6736" y="2.33701"/>
      <point x="28.4455" y="-2"/>
    </contour>
    <contour>
      <point x="78" y="54" type="curve"/>
      <point x="137" y="330" type="line"/>
      <point x="343" y="330" type="line" smooth="yes"/>
      <point x="411.674" y="330"/>
      <point x="487.697" y="300.606"/>
      <point x="487.697" y="228.537" type="curve" smooth="yes"/>
      <point x="487.697" y="220.849"/>
      <point x="486.831" y="212.675"/>
      <point x="485" y="204" type="curve" smooth="yes"/>
      <point x="463" y="99"/>
      <point x="281" y="54"/>
    </contour>
    <contour>
      <point x="149" y="387" type="line"/>
      <point x="199" y="624" type="line"/>
      <point x="352" y="624" type="line" smooth="yes"/>
      <point x="475.387" y="624"/>
      <point x="492.683" y="560.741"/>
      <point x="492.683" y="527.297" type="curve" smooth="yes"/>
      <point x="492.683" y="519.541"/>
      <point x="491.753" y="513.388"/>
      <point x="491" y="510" type="curve" smooth="yes"/>
      <point x="478" y="448"/>
      <point x="414" y="387"/>
      <point x="345" y="387" type="curve" smooth="yes"/>
    </contour>
  </outline>
</glyph>
<glyph name="F" format="1">
  <advance width="545"/>
  <unicode hex="0046"/>
  <outline>
    <contour>
      <point x="130" y="323" type="line"/>
      <point x="67" y="28" type="line" smooth="yes"/>
      <point x="64" y="12"/>
      <point x="49" y="-1"/>
      <point x="33" y="-1" type="curve" smooth="yes"/>
      <point x="18.9074" y="-1"/>
      <point x="9.46948" y="9.08527"/>
      <point x="9.46948" y="22.4227" type="curve" smooth="yes"/>
      <point x="9.46948" y="24.2279"/>
      <point x="9.64237" y="26.0926"/>
      <point x="10" y="28" type="curve" smooth="yes"/>
      <point x="143" y="652" type="line" smooth="yes"/>
      <point x="146" y="668"/>
      <point x="162" y="681"/>
      <point x="178" y="681" type="curve" smooth="yes"/>
      <point x="606" y="681" type="line" smooth="yes"/>
      <point x="619.945" y="681"/>
      <point x="628.573" y="671.125"/>
      <point x="628.573" y="657.995" type="curve" smooth="yes"/>
      <point x="628.573" y="656.06"/>
      <point x="628.385" y="654.055"/>
      <point x="628" y="652" type="curve" smooth="yes"/>
      <point x="625" y="637"/>
      <point x="610" y="624"/>
      <point x="594" y="624" type="curve" smooth="yes"/>
      <point x="194" y="624" type="line"/>
      <point x="142" y="380" type="line"/>
      <point x="453" y="380" type="line" smooth="yes"/>
      <point x="466.612" y="380"/>
      <point x="475.882" y="370.59"/>
      <point x="475.882" y="357.929" type="curve" smooth="yes"/>
      <point x="475.882" y="355.708"/>
      <point x="475.597" y="353.388"/>
      <point x="475" y="351" type="curve" smooth="yes"/>
      <point x="472" y="336"/>
      <point x="457" y="323"/>
      <point x="441" y="323" type="curve" smooth="yes"/>
    </contour>
  </outline>
</glyph>
<glyph name="G" format="1">
  <advance width="751"/>
  <unicode hex="0047"/>
  <outline>
    <contour>
      <point x="305" y="-1" type="curve" smooth="yes"/>
      <point x="460" y="-1"/>
      <point x="583" y="101"/>
      <point x="640" y="228" type="curve"/>
      <point x="645" y="226"/>
      <point x="651" y="224"/>
      <point x="654" y="224" type="curve" smooth="yes"/>
      <point x="668" y="224"/>
      <point x="684" y="235"/>
      <point x="688" y="252" type="curve" smooth="yes"/>
      <point x="688.643" y="254.571"/>
      <point x="688.964" y="257.097"/>
      <point x="688.964" y="259.517" type="curve" smooth="yes"/>
      <point x="688.964" y="268.393"/>
      <point x="684.643" y="275.857"/>
      <point x="676" y="279" type="curve" smooth="yes"/>
      <point x="668" y="282"/>
      <point x="632" y="296"/>
      <point x="569" y="296" type="curve" smooth="yes"/>
      <point x="495" y="296"/>
      <point x="431" y="278"/>
      <point x="427" y="277" type="curve" smooth="yes"/>
      <point x="414" y="273"/>
      <point x="404" y="262"/>
      <point x="402" y="250" type="curve" smooth="yes"/>
      <point x="401.435" y="247.456"/>
      <point x="401.169" y="245.052"/>
      <point x="401.169" y="242.799" type="curve" smooth="yes"/>
      <point x="401.169" y="229.111"/>
      <point x="410.979" y="221"/>
      <point x="423" y="221" type="curve" smooth="yes"/>
      <point x="440" y="221"/>
      <point x="478" y="239"/>
      <point x="558" y="239" type="curve" smooth="yes"/>
      <point x="568" y="239"/>
      <point x="577" y="239"/>
      <point x="586" y="238" type="curve"/>
      <point x="534" y="126"/>
      <point x="432" y="56"/>
      <point x="317" y="56" type="curve" smooth="yes"/>
      <point x="179.229" y="56"/>
      <point x="125.493" y="163.455"/>
      <point x="125.493" y="268.03" type="curve" smooth="yes"/>
      <point x="125.493" y="289.457"/>
      <point x="127.749" y="310.764"/>
      <point x="132" y="331" type="curve" smooth="yes"/>
      <point x="151" y="422"/>
      <point x="262" y="626"/>
      <point x="455" y="626" type="curve" smooth="yes"/>
      <point x="581" y="626"/>
      <point x="623" y="554"/>
      <point x="634" y="489" type="curve"/>
      <point x="637" y="476"/>
      <point x="647" y="470"/>
      <point x="658" y="470" type="curve" smooth="yes"/>
      <point x="674" y="470"/>
      <point x="688" y="480"/>
      <point x="691" y="495" type="curve" smooth="yes"/>
      <point x="691.587" y="498.01"/>
      <point x="691.9" y="501.591"/>
      <point x="691.9" y="505.643" type="curve" smooth="yes"/>
      <point x="691.9" y="556.791"/>
      <point x="642.125" y="683"/>
      <point x="467" y="683" type="curve" smooth="yes"/>
      <point x="272" y="683"/>
      <point x="110" y="498"/>
      <point x="75" y="331" type="curve" smooth="yes"/>
      <point x="69.3759" y="304.598"/>
      <point x="66.5829" y="278.343"/>
      <point x="66.5829" y="252.832" type="curve" smooth="yes"/>
      <point x="66.5829" y="115.049"/>
      <point x="148.058" y="-1"/>
    </contour>
  </outline>
</glyph>
<glyph name="H" format="1">
  <advance width="685"/>
  <unicode hex="0048"/>
  <outline>
    <contour>
      <point x="681" y="681" type="curve" smooth="yes"/>
      <point x="693.891" y="681"/>
      <point x="703.828" y="672.137"/>
      <point x="703.828" y="659.488" type="curve" smooth="yes"/>
      <point x="703.828" y="657.419"/>
      <point x="703.562" y="655.249"/>
      <point x="703" y="653" type="curve" smooth="yes"/>
      <point x="570" y="28" type="line" smooth="yes"/>
      <point x="567" y="13"/>
      <point x="552" y="0"/>
      <point x="537" y="0" type="curve" smooth="yes"/>
      <point x="521" y="0"/>
      <point x="510" y="13"/>
      <point x="513" y="28" type="curve" smooth="yes"/>
      <point x="582" y="349" type="line"/>
      <point x="128" y="288" type="line"/>
      <point x="72" y="28" type="line" smooth="yes"/>
      <point x="69" y="13"/>
      <point x="54" y="0"/>
      <point x="38" y="0" type="curve" smooth="yes"/>
      <point x="23.9074" y="-1.77636e-15"/>
      <point x="14.4695" y="10.0853"/>
      <point x="14.4695" y="22.7394" type="curve" smooth="yes"/>
      <point x="14.4695" y="24.4521"/>
      <point x="14.6424" y="26.2118"/>
      <point x="15" y="28" type="curve" smooth="yes"/>
      <point x="148" y="653" type="line" smooth="yes"/>
      <point x="152" y="669"/>
      <point x="166" y="681"/>
      <point x="182" y="681" type="curve" smooth="yes"/>
      <point x="195.762" y="681"/>
      <point x="205.825" y="672.122"/>
      <point x="205.825" y="659.456" type="curve" smooth="yes"/>
      <point x="205.825" y="657.397"/>
      <point x="205.559" y="655.238"/>
      <point x="205" y="653" type="curve" smooth="yes"/>
      <point x="140" y="346" type="line"/>
      <point x="594" y="407" type="line"/>
      <point x="646" y="653" type="line" smooth="yes"/>
      <point x="650" y="669"/>
      <point x="665" y="681"/>
    </contour>
  </outline>
</glyph>
<glyph name="I" format="1">
  <advance width="433"/>
  <unicode hex="0049"/>
  <outline>
    <contour>
      <point x="33" y="-1" type="curve" smooth="yes"/>
      <point x="289" y="-1" type="line" smooth="yes"/>
      <point x="305" y="-1"/>
      <point x="320" y="12"/>
      <point x="323" y="28" type="curve" smooth="yes"/>
      <point x="323.635" y="30.539"/>
      <point x="323.942" y="32.9773"/>
      <point x="323.942" y="35.2829" type="curve" smooth="yes"/>
      <point x="323.942" y="47.5063"/>
      <point x="315.302" y="56"/>
      <point x="301" y="56" type="curve" smooth="yes"/>
      <point x="202" y="56" type="line"/>
      <point x="323" y="624" type="line"/>
      <point x="422" y="624" type="line" smooth="yes"/>
      <point x="438" y="624"/>
      <point x="453" y="637"/>
      <point x="456" y="653" type="curve" smooth="yes"/>
      <point x="456.597" y="655.388"/>
      <point x="456.882" y="657.686"/>
      <point x="456.882" y="659.869" type="curve" smooth="yes"/>
      <point x="456.882" y="672.314"/>
      <point x="447.612" y="681"/>
      <point x="434" y="681" type="curve" smooth="yes"/>
      <point x="178" y="681" type="line" smooth="yes"/>
      <point x="162" y="681"/>
      <point x="147" y="669"/>
      <point x="143" y="653" type="curve" smooth="yes"/>
      <point x="142.642" y="651.093"/>
      <point x="142.469" y="649.228"/>
      <point x="142.469" y="647.423" type="curve" smooth="yes"/>
      <point x="142.469" y="634.085"/>
      <point x="151.907" y="624"/>
      <point x="166" y="624" type="curve" smooth="yes"/>
      <point x="266" y="624" type="line"/>
      <point x="145" y="56" type="line"/>
      <point x="45" y="56" type="line" smooth="yes"/>
      <point x="29" y="56"/>
      <point x="14" y="44"/>
      <point x="10" y="28" type="curve" smooth="yes"/>
      <point x="9.64237" y="26.0926"/>
      <point x="9.46948" y="24.2279"/>
      <point x="9.46948" y="22.4227" type="curve" smooth="yes"/>
      <point x="9.46948" y="9.08527"/>
      <point x="18.9074" y="-1"/>
    </contour>
  </outline>
</glyph>
<glyph name="K" format="1">
  <advance width="570"/>
  <unicode hex="004B"/>
  <outline>
    <contour>
      <point x="436" y="-1" type="curve" smooth="yes"/>
      <point x="451" y="-1"/>
      <point x="466" y="11"/>
      <point x="469" y="27" type="curve" smooth="yes"/>
      <point x="471" y="35"/>
      <point x="470" y="42"/>
      <point x="464" y="49" type="curve"/>
      <point x="157" y="335" type="line"/>
      <point x="569" y="633" type="line" smooth="yes"/>
      <point x="576.263" y="638.188"/>
      <point x="583.255" y="647.333"/>
      <point x="583.255" y="657.594" type="curve" smooth="yes"/>
      <point x="583.255" y="670.299"/>
      <point x="573.799" y="682"/>
      <point x="561" y="682" type="curve" smooth="yes"/>
      <point x="554" y="682"/>
      <point x="548" y="679"/>
      <point x="542" y="675" type="curve" smooth="yes"/>
      <point x="147" y="389" type="line"/>
      <point x="204" y="654" type="line" smooth="yes"/>
      <point x="207" y="669"/>
      <point x="196" y="681"/>
      <point x="181" y="681" type="curve" smooth="yes"/>
      <point x="166" y="681"/>
      <point x="152" y="669"/>
      <point x="149" y="654" type="curve" smooth="yes"/>
      <point x="15" y="28" type="line" smooth="yes"/>
      <point x="14.6406" y="26.203"/>
      <point x="14.4678" y="24.4347"/>
      <point x="14.4678" y="22.714" type="curve" smooth="yes"/>
      <point x="14.4678" y="10.0718"/>
      <point x="23.797" y="0"/>
      <point x="37" y="0" type="curve" smooth="yes"/>
      <point x="52" y="0"/>
      <point x="67" y="13"/>
      <point x="70" y="28" type="curve" smooth="yes"/>
      <point x="124" y="282" type="line"/>
      <point x="421" y="5" type="line" smooth="yes"/>
      <point x="425" y="1"/>
      <point x="430" y="-1"/>
    </contour>
  </outline>
</glyph>
<glyph name="P" format="1">
  <advance width="547"/>
  <unicode hex="0050"/>
  <outline>
    <contour>
      <point x="38" y="0" type="curve" smooth="yes"/>
      <point x="24.6739" y="0"/>
      <point x="14.5048" y="9.47127"/>
      <point x="14.5048" y="22.8042" type="curve" smooth="yes"/>
      <point x="14.5048" y="24.4789"/>
      <point x="14.6652" y="26.2146"/>
      <point x="15" y="28" type="curve" smooth="yes"/>
      <point x="146" y="641" type="line" smooth="yes"/>
      <point x="152" y="671"/>
      <point x="156" y="682"/>
      <point x="233" y="682" type="curve" smooth="yes"/>
      <point x="458.794" y="682"/>
      <point x="567.374" y="622.591"/>
      <point x="567.374" y="516.001" type="curve" smooth="yes"/>
      <point x="567.374" y="503.63"/>
      <point x="565.912" y="490.623"/>
      <point x="563" y="477" type="curve" smooth="yes"/>
      <point x="523" y="291"/>
      <point x="256" y="239"/>
      <point x="116" y="239" type="curve"/>
      <point x="71" y="28" type="line" smooth="yes"/>
      <point x="68" y="12"/>
      <point x="54" y="0"/>
    </contour>
    <contour>
      <point x="198" y="625" type="curve"/>
      <point x="128" y="295" type="line"/>
      <point x="214" y="295"/>
      <point x="474" y="322"/>
      <point x="507" y="477" type="curve" smooth="yes"/>
      <point x="508.737" y="485.338"/>
      <point x="509.599" y="493.352"/>
      <point x="509.599" y="501.035" type="curve" smooth="yes"/>
      <point x="509.599" y="581.807"/>
      <point x="414.323" y="626"/>
      <point x="239" y="626" type="curve" smooth="yes"/>
      <point x="226" y="626"/>
      <point x="208" y="626"/>
    </contour>
  </outline>
</glyph>
<glyph name="Q" format="1">
  <advance width="714"/>
  <unicode hex="0051"/>
  <outline>
    <contour>
      <point x="514" y="93" type="curve"/>
      <point x="601" y="27" type="line" smooth="yes"/>
      <point x="609" y="21"/>
      <point x="610" y="12"/>
      <point x="608" y="3" type="curve" smooth="yes"/>
      <point x="605" y="-14"/>
      <point x="588" y="-24"/>
      <point x="574" y="-24" type="curve" smooth="yes"/>
      <point x="569" y="-24"/>
      <point x="565" y="-23"/>
      <point x="560" y="-20" type="curve" smooth="yes"/>
      <point x="462" y="56" type="line"/>
      <point x="404" y="19"/>
      <point x="339" y="-2"/>
      <point x="277" y="-2" type="curve" smooth="yes"/>
      <point x="137.695" y="-2"/>
      <point x="53.9471" y="101.898"/>
      <point x="53.9471" y="236.762" type="curve" smooth="yes"/>
      <point x="53.9471" y="260.67"/>
      <point x="56.5791" y="285.552"/>
      <point x="62" y="311" type="curve" smooth="yes"/>
      <point x="104" y="512"/>
      <point x="293" y="680"/>
      <point x="469" y="680" type="curve" smooth="yes"/>
      <point x="607.618" y="680"/>
      <point x="691.995" y="575.858"/>
      <point x="691.995" y="440.147" type="curve" smooth="yes"/>
      <point x="691.995" y="416.276"/>
      <point x="689.385" y="391.429"/>
      <point x="684" y="366" type="curve" smooth="yes"/>
      <point x="662" y="260"/>
      <point x="597" y="161"/>
    </contour>
    <contour>
      <point x="289" y="52" type="curve" smooth="yes"/>
      <point x="332" y="52"/>
      <point x="376" y="65"/>
      <point x="419" y="89" type="curve"/>
      <point x="351" y="141" type="line" smooth="yes"/>
      <point x="345" y="146"/>
      <point x="341" y="155"/>
      <point x="343" y="164" type="curve" smooth="yes"/>
      <point x="347" y="180"/>
      <point x="362" y="192"/>
      <point x="376" y="192" type="curve" smooth="yes"/>
      <point x="382" y="192"/>
      <point x="387" y="191"/>
      <point x="391" y="188" type="curve" smooth="yes"/>
      <point x="473" y="125" type="line"/>
      <point x="543" y="182"/>
      <point x="603" y="269"/>
      <point x="623" y="363" type="curve" smooth="yes"/>
      <point x="627.184" y="383.025"/>
      <point x="629.225" y="402.938"/>
      <point x="629.225" y="422.326" type="curve" smooth="yes"/>
      <point x="629.225" y="532.674"/>
      <point x="563.125" y="626"/>
      <point x="450" y="626" type="curve" smooth="yes"/>
      <point x="313" y="626"/>
      <point x="159" y="487"/>
      <point x="122" y="315" type="curve" smooth="yes"/>
      <point x="117.036" y="291.461"/>
      <point x="114.636" y="268.717"/>
      <point x="114.636" y="247.117" type="curve" smooth="yes"/>
      <point x="114.636" y="133.825"/>
      <point x="180.657" y="52"/>
    </contour>
  </outline>
</glyph>
<glyph name="T" format="1">
  <advance width="522"/>
  <unicode hex="0054"/>
  <outline>
    <contour>
      <point x="199" y="0" type="curve" smooth="yes"/>
      <point x="215" y="0"/>
      <point x="229" y="13"/>
      <point x="232" y="28" type="curve" smooth="yes"/>
      <point x="359" y="625" type="line"/>
      <point x="561" y="625" type="line" smooth="yes"/>
      <point x="577" y="625"/>
      <point x="592" y="638"/>
      <point x="595" y="653" type="curve" smooth="yes"/>
      <point x="595.597" y="655.388"/>
      <point x="595.882" y="657.686"/>
      <point x="595.882" y="659.869" type="curve" smooth="yes"/>
      <point x="595.882" y="672.314"/>
      <point x="586.612" y="681"/>
      <point x="573" y="681" type="curve"/>
      <point x="127" y="681" type="line" smooth="yes"/>
      <point x="112" y="681"/>
      <point x="97" y="669"/>
      <point x="93" y="653" type="curve" smooth="yes"/>
      <point x="92.6406" y="651.203"/>
      <point x="92.4678" y="649.435"/>
      <point x="92.4678" y="647.714" type="curve" smooth="yes"/>
      <point x="92.4678" y="635.072"/>
      <point x="101.797" y="625"/>
      <point x="115" y="625" type="curve" smooth="yes"/>
      <point x="303" y="625" type="line"/>
      <point x="176" y="28" type="line" smooth="yes"/>
      <point x="173" y="13"/>
      <point x="184" y="0"/>
    </contour>
  </outline>
</glyph>
<glyph name="U" format="1">
  <advance width="683"/>
  <unicode hex="0055"/>
  <outline>
    <contour>
      <point x="278" y="0" type="curve" smooth="yes"/>
      <point x="455" y="0"/>
      <point x="555" y="110"/>
      <point x="610" y="270" type="curve" smooth="yes"/>
      <point x="655" y="400"/>
      <point x="677" y="527"/>
      <point x="699" y="653" type="curve" smooth="yes"/>
      <point x="699.359" y="654.797"/>
      <point x="699.532" y="656.565"/>
      <point x="699.532" y="658.286" type="curve" smooth="yes"/>
      <point x="699.532" y="670.928"/>
      <point x="690.203" y="681"/>
      <point x="677" y="681" type="curve" smooth="yes"/>
      <point x="659" y="681"/>
      <point x="646" y="667"/>
      <point x="643" y="651" type="curve" smooth="yes"/>
      <point x="615" y="518"/>
      <point x="594" y="397"/>
      <point x="555" y="277" type="curve" smooth="yes"/>
      <point x="510" y="139"/>
      <point x="425" y="49"/>
      <point x="290" y="49" type="curve" smooth="yes"/>
      <point x="167.05" y="49"/>
      <point x="134.383" y="140.258"/>
      <point x="134.383" y="244.705" type="curve" smooth="yes"/>
      <point x="134.383" y="289.772"/>
      <point x="140.464" y="337.294"/>
      <point x="148" y="381" type="curve"/>
      <point x="165" y="474"/>
      <point x="185" y="564"/>
      <point x="206" y="653" type="curve" smooth="yes"/>
      <point x="206.562" y="655.249"/>
      <point x="206.828" y="657.419"/>
      <point x="206.828" y="659.488" type="curve" smooth="yes"/>
      <point x="206.828" y="672.137"/>
      <point x="196.891" y="681"/>
      <point x="184" y="681" type="curve" smooth="yes"/>
      <point x="170" y="681"/>
      <point x="154" y="670"/>
      <point x="151" y="654" type="curve"/>
      <point x="131" y="569"/>
      <point x="108" y="474"/>
      <point x="90" y="367" type="curve"/>
      <point x="81.2699" y="317.868"/>
      <point x="76.9091" y="273.559"/>
      <point x="76.9091" y="234.139" type="curve" smooth="yes"/>
      <point x="76.9091" y="79.3962"/>
      <point x="144.108" y="0"/>
    </contour>
  </outline>
</glyph>
<glyph name="V" format="1">
  <advance width="535"/>
  <unicode hex="0056"/>
  <outline>
    <contour>
      <point x="195" y="0" type="curve" smooth="yes"/>
      <point x="206" y="0"/>
      <point x="217" y="7"/>
      <point x="224" y="18" type="curve" smooth="yes"/>
      <point x="603" y="642" type="line" smooth="yes"/>
      <point x="605" y="646"/>
      <point x="606" y="649"/>
      <point x="607" y="653" type="curve" smooth="yes"/>
      <point x="607.417" y="654.946"/>
      <point x="607.621" y="656.873"/>
      <point x="607.621" y="658.748" type="curve" smooth="yes"/>
      <point x="607.621" y="670.363"/>
      <point x="599.776" y="680"/>
      <point x="586" y="680" type="curve" smooth="yes"/>
      <point x="574" y="680"/>
      <point x="563" y="674"/>
      <point x="555" y="663" type="curve"/>
      <point x="220" y="110" type="line"/>
      <point x="151" y="661" type="line" smooth="yes"/>
      <point x="150" y="673"/>
      <point x="140" y="680"/>
      <point x="128" y="680" type="curve" smooth="yes"/>
      <point x="110" y="680"/>
      <point x="97" y="668"/>
      <point x="94" y="653" type="curve" smooth="yes"/>
      <point x="94" y="650"/>
      <point x="93" y="643"/>
      <point x="94" y="638" type="curve" smooth="yes"/>
      <point x="172" y="19" type="line" smooth="yes"/>
      <point x="173" y="8"/>
      <point x="183" y="0"/>
    </contour>
  </outline>
</glyph>
<glyph name="W" format="1">
  <advance width="867"/>
  <unicode hex="0057"/>
  <outline>
    <contour>
      <point x="548" y="0" type="curve" smooth="yes"/>
      <point x="534" y="0"/>
      <point x="525" y="7"/>
      <point x="525" y="20" type="curve"/>
      <point x="491" y="556" type="line"/>
      <point x="204" y="19" type="line" smooth="yes"/>
      <point x="197" y="6"/>
      <point x="186" y="0"/>
      <point x="173" y="0" type="curve" smooth="yes"/>
      <point x="161" y="0"/>
      <point x="151" y="8"/>
      <point x="151" y="19" type="curve"/>
      <point x="95" y="632" type="line" smooth="yes"/>
      <point x="94" y="645"/>
      <point x="94" y="651"/>
      <point x="95" y="654" type="curve" smooth="yes"/>
      <point x="98" y="670"/>
      <point x="112" y="681"/>
      <point x="127" y="681" type="curve" smooth="yes"/>
      <point x="140" y="681"/>
      <point x="149" y="673"/>
      <point x="150" y="661" type="curve" smooth="yes"/>
      <point x="199" y="121" type="line"/>
      <point x="489" y="662" type="line" smooth="yes"/>
      <point x="496" y="675"/>
      <point x="507" y="681"/>
      <point x="520" y="681" type="curve" smooth="yes"/>
      <point x="532" y="681"/>
      <point x="542" y="673"/>
      <point x="542" y="661" type="curve"/>
      <point x="576" y="120" type="line"/>
      <point x="887" y="663" type="line" smooth="yes"/>
      <point x="894" y="674"/>
      <point x="906" y="681"/>
      <point x="917" y="681" type="curve" smooth="yes"/>
      <point x="931.521" y="681"/>
      <point x="940.276" y="669.469"/>
      <point x="940.276" y="658.367" type="curve" smooth="yes"/>
      <point x="940.276" y="652.438"/>
      <point x="937.45" y="647.675"/>
      <point x="935" y="644" type="curve" smooth="yes"/>
      <point x="577" y="18" type="line" smooth="yes"/>
      <point x="571" y="7"/>
      <point x="560" y="0"/>
    </contour>
  </outline>
</glyph>
<glyph name="Y" format="1">
  <advance width="593"/>
  <unicode hex="0059"/>
  <outline>
    <contour>
      <point x="138" y="0" type="curve" smooth="yes"/>
      <point x="148" y="0"/>
      <point x="158" y="5"/>
      <point x="164" y="14" type="curve"/>
      <point x="663" y="632" type="line" smooth="yes"/>
      <point x="672" y="644"/>
      <point x="674" y="648"/>
      <point x="675" y="653" type="curve" smooth="yes"/>
      <point x="675.531" y="655.123"/>
      <point x="675.78" y="657.176"/>
      <point x="675.78" y="659.14" type="curve" smooth="yes"/>
      <point x="675.78" y="671.974"/>
      <point x="665.142" y="681"/>
      <point x="653" y="681" type="curve" smooth="yes"/>
      <point x="643" y="681"/>
      <point x="633" y="676"/>
      <point x="626" y="667" type="curve" smooth="yes"/>
      <point x="306" y="269" type="line"/>
      <point x="158" y="667" type="line" smooth="yes"/>
      <point x="155" y="676"/>
      <point x="147" y="681"/>
      <point x="138" y="681" type="curve" smooth="yes"/>
      <point x="122" y="681"/>
      <point x="106" y="668"/>
      <point x="103" y="653" type="curve" smooth="yes"/>
      <point x="102" y="648"/>
      <point x="103" y="642"/>
      <point x="105" y="635" type="curve" smooth="yes"/>
      <point x="261" y="214" type="line"/>
      <point x="125" y="46" type="line" smooth="yes"/>
      <point x="121" y="41"/>
      <point x="117" y="34"/>
      <point x="115" y="28" type="curve" smooth="yes"/>
      <point x="114.642" y="26.3311"/>
      <point x="114.469" y="24.6621"/>
      <point x="114.469" y="23.0169" type="curve" smooth="yes"/>
      <point x="114.469" y="10.8611"/>
      <point x="123.907" y="0"/>
    </contour>
  </outline>
</glyph>
<glyph name="Z" format="1">
  <advance width="639"/>
  <unicode hex="005A"/>
  <outline>
    <contour>
      <point x="26" y="0" type="curve" smooth="yes"/>
      <point x="488" y="0" type="line" smooth="yes"/>
      <point x="504" y="0"/>
      <point x="519" y="14"/>
      <point x="523" y="30" type="curve"/>
      <point x="523.358" y="32.0266"/>
      <point x="523.531" y="33.9963"/>
      <point x="523.531" y="35.894" type="curve" smooth="yes"/>
      <point x="523.531" y="49.9147"/>
      <point x="514.093" y="60"/>
      <point x="500" y="60" type="curve" smooth="yes"/>
      <point x="83" y="60" type="line"/>
      <point x="659" y="626" type="line"/>
      <point x="664" y="632"/>
      <point x="669" y="639"/>
      <point x="671" y="648" type="curve" smooth="yes"/>
      <point x="671.521" y="650.346"/>
      <point x="671.771" y="652.623"/>
      <point x="671.771" y="654.811" type="curve" smooth="yes"/>
      <point x="671.771" y="669.411"/>
      <point x="660.654" y="680"/>
      <point x="645" y="680" type="curve" smooth="yes"/>
      <point x="183" y="680" type="line" smooth="yes"/>
      <point x="167" y="680"/>
      <point x="151" y="666"/>
      <point x="148" y="650" type="curve" smooth="yes"/>
      <point x="147.403" y="647.463"/>
      <point x="147.118" y="644.993"/>
      <point x="147.118" y="642.627" type="curve" smooth="yes"/>
      <point x="147.118" y="629.134"/>
      <point x="156.388" y="619"/>
      <point x="170" y="619" type="curve" smooth="yes"/>
      <point x="587" y="619" type="line"/>
      <point x="12" y="55" type="line"/>
      <point x="6" y="48"/>
      <point x="1" y="40"/>
      <point x="-1" y="30" type="curve" smooth="yes"/>
      <point x="-1.2919" y="28.2486"/>
      <point x="-1.43232" y="26.554"/>
      <point x="-1.43232" y="24.9217" type="curve" smooth="yes"/>
      <point x="-1.43232" y="9.7784"/>
      <point x="10.6541" y="0"/>
    </contour>
  </outline>
</glyph>
<glyph name="bracketleft" format="1">
  <advance width="315"/>
  <unicode hex="005B"/>
  <outline>
    <contour>
      <point x="133" y="-124" type="curve" smooth="yes"/>
      <point x="12" y="-124" type="line" smooth="yes"/>
      <point x="-1.94501" y="-124"/>
      <point x="-10.5727" y="-114.885"/>
      <point x="-10.5727" y="-101.95" type="curve" smooth="yes"/>
      <point x="-10.5727" y="-100.044"/>
      <point x="-10.3853" y="-98.055"/>
      <point x="-10" y="-96" type="curve" smooth="yes"/>
      <point x="176" y="778" type="line" smooth="yes"/>
      <point x="179" y="793"/>
      <point x="194" y="806"/>
      <point x="210" y="806" type="curve" smooth="yes"/>
      <point x="347" y="806" type="line" smooth="yes"/>
      <point x="360.203" y="806"/>
      <point x="369.532" y="795.928"/>
      <point x="369.532" y="783.286" type="curve" smooth="yes"/>
      <point x="369.532" y="781.565"/>
      <point x="369.359" y="779.797"/>
      <point x="369" y="778" type="curve" smooth="yes"/>
      <point x="365" y="762"/>
      <point x="350" y="750"/>
      <point x="335" y="750" type="curve" smooth="yes"/>
      <point x="226" y="750" type="line"/>
      <point x="52" y="-68" type="line"/>
      <point x="145" y="-68" type="line" smooth="yes"/>
      <point x="158.203" y="-68"/>
      <point x="167.532" y="-78.0718"/>
      <point x="167.532" y="-90.714" type="curve" smooth="yes"/>
      <point x="167.532" y="-92.4347"/>
      <point x="167.359" y="-94.203"/>
      <point x="167" y="-96" type="curve" smooth="yes"/>
      <point x="164" y="-112"/>
      <point x="148" y="-124"/>
    </contour>
  </outline>
</glyph>
<glyph name="backslash" format="1">
  <advance width="545"/>
  <unicode hex="005C"/>
  <outline>
    <contour>
      <point x="392" y="-1" type="curve" smooth="yes"/>
      <point x="382" y="-1"/>
      <point x="374" y="4"/>
      <point x="371" y="13" type="curve" smooth="yes"/>
      <point x="157" y="641" type="line" smooth="yes"/>
      <point x="154" y="648"/>
      <point x="151" y="657"/>
      <point x="153" y="666" type="curve" smooth="yes"/>
      <point x="156" y="679"/>
      <point x="171" y="692"/>
      <point x="187" y="692" type="curve" smooth="yes"/>
      <point x="197" y="692"/>
      <point x="206" y="687"/>
      <point x="209" y="678" type="curve" smooth="yes"/>
      <point x="426" y="41" type="line" smooth="yes"/>
      <point x="427" y="37"/>
      <point x="427" y="32"/>
      <point x="426" y="27" type="curve" smooth="yes"/>
      <point x="423" y="12"/>
      <point x="409" y="-1"/>
    </contour>
  </outline>
</glyph>
<glyph name="bracketright" format="1">
  <advance width="315"/>
  <unicode hex="005D"/>
  <outline>
    <contour>
      <point x="7" y="-124" type="curve" smooth="yes"/>
      <point x="144" y="-124" type="line" smooth="yes"/>
      <point x="160" y="-124"/>
      <point x="175" y="-111"/>
      <point x="178" y="-96" type="curve" smooth="yes"/>
      <point x="364" y="778" type="line" smooth="yes"/>
      <point x="364.385" y="780.055"/>
      <point x="364.573" y="782.044"/>
      <point x="364.573" y="783.95" type="curve" smooth="yes"/>
      <point x="364.573" y="796.885"/>
      <point x="355.945" y="806"/>
      <point x="342" y="806" type="curve" smooth="yes"/>
      <point x="221" y="806" type="line" smooth="yes"/>
      <point x="206" y="806"/>
      <point x="190" y="794"/>
      <point x="187" y="778" type="curve" smooth="yes"/>
      <point x="186.641" y="776.203"/>
      <point x="186.468" y="774.435"/>
      <point x="186.468" y="772.714" type="curve" smooth="yes"/>
      <point x="186.468" y="760.072"/>
      <point x="195.797" y="750"/>
      <point x="209" y="750" type="curve" smooth="yes"/>
      <point x="302" y="750" type="line"/>
      <point x="128" y="-68" type="line"/>
      <point x="19" y="-68" type="line" smooth="yes"/>
      <point x="4" y="-68"/>
      <point x="-12" y="-80"/>
      <point x="-15" y="-96" type="curve" smooth="yes"/>
      <point x="-15.3594" y="-97.797"/>
      <point x="-15.5322" y="-99.5653"/>
      <point x="-15.5322" y="-101.286" type="curve" smooth="yes"/>
      <point x="-15.5322" y="-113.928"/>
      <point x="-6.20299" y="-124"/>
    </contour>
  </outline>
</glyph>
<glyph name="asciicircum" format="1">
  <advance width="500"/>
  <unicode hex="005E"/>
  <outline>
    <contour>
      <point x="373" y="641" type="curve" smooth="yes"/>
      <point x="433" y="438" type="line"/>
      <point x="434" y="432"/>
      <point x="434" y="426"/>
      <point x="433" y="422" type="curve" smooth="yes"/>
      <point x="430" y="407"/>
      <point x="415" y="395"/>
      <point x="400" y="395" type="curve" smooth="yes"/>
      <point x="390" y="395"/>
      <point x="382" y="401"/>
      <point x="379" y="409" type="curve" smooth="yes"/>
      <point x="327" y="582" type="line"/>
      <point x="327" y="582"/>
      <point x="184" y="411"/>
      <point x="184" y="411" type="curve"/>
      <point x="177" y="401"/>
      <point x="166" y="395"/>
      <point x="155" y="395" type="curve" smooth="yes"/>
      <point x="141.938" y="395"/>
      <point x="133.425" y="404.1"/>
      <point x="133.425" y="416.357" type="curve" smooth="yes"/>
      <point x="133.425" y="418.175"/>
      <point x="133.612" y="420.062"/>
      <point x="134" y="422" type="curve" smooth="yes"/>
      <point x="135" y="427"/>
      <point x="137" y="432"/>
      <point x="141" y="436" type="curve" smooth="yes"/>
      <point x="309" y="643" type="line"/>
      <point x="319" y="654"/>
      <point x="331" y="663"/>
      <point x="345" y="663" type="curve" smooth="yes"/>
      <point x="359" y="663"/>
      <point x="369" y="654"/>
    </contour>
  </outline>
</glyph>
<glyph name="underscore" format="1">
  <advance width="490"/>
  <unicode hex="005F"/>
  <outline>
    <contour>
      <point x="-66" y="-56" type="curve" smooth="yes"/>
      <point x="423" y="-56" type="line"/>
      <point x="438" y="-56"/>
      <point x="453" y="-44"/>
      <point x="457" y="-28" type="curve" smooth="yes"/>
      <point x="457.359" y="-26.203"/>
      <point x="457.532" y="-24.4347"/>
      <point x="457.532" y="-22.714" type="curve" smooth="yes"/>
      <point x="457.532" y="-10.0718"/>
      <point x="448.203" y="0"/>
      <point x="435" y="0" type="curve" smooth="yes"/>
      <point x="-55" y="0" type="line" smooth="yes"/>
      <point x="-71" y="0"/>
      <point x="-85" y="-13"/>
      <point x="-88" y="-28" type="curve" smooth="yes"/>
      <point x="-88.5969" y="-30.3875"/>
      <point x="-88.882" y="-32.6859"/>
      <point x="-88.882" y="-34.8687" type="curve" smooth="yes"/>
      <point x="-88.882" y="-47.3141"/>
      <point x="-79.6125" y="-56"/>
    </contour>
  </outline>
</glyph>
<glyph name="grave" format="1">
  <advance width="500"/>
  <unicode hex="0060"/>
  <outline>
    <contour>
      <point x="377" y="574" type="curve" smooth="yes"/>
      <point x="391" y="574"/>
      <point x="407" y="585"/>
      <point x="410" y="600" type="curve" smooth="yes"/>
      <point x="411" y="606"/>
      <point x="410" y="611"/>
      <point x="407" y="618" type="curve"/>
      <point x="329" y="748" type="line" smooth="yes"/>
      <point x="324" y="756"/>
      <point x="315" y="763"/>
      <point x="304" y="763" type="curve" smooth="yes"/>
      <point x="286" y="763"/>
      <point x="265" y="747"/>
      <point x="261" y="729" type="curve" smooth="yes"/>
      <point x="259" y="719"/>
      <point x="262" y="711"/>
      <point x="267" y="704" type="curve" smooth="yes"/>
      <point x="359" y="583" type="line" smooth="yes"/>
      <point x="363" y="578"/>
      <point x="369" y="574"/>
    </contour>
  </outline>
</glyph>
<glyph name="a" format="1">
  <advance width="505"/>
  <unicode hex="0061"/>
  <outline>
    <contour>
      <point x="485" y="473" type="curve"/>
      <point x="391" y="30" type="line" smooth="yes"/>
      <point x="387" y="14"/>
      <point x="373" y="0"/>
      <point x="357" y="0" type="curve" smooth="yes"/>
      <point x="341.057" y="0"/>
      <point x="334.268" y="10.561"/>
      <point x="334.268" y="24.003" type="curve" smooth="yes"/>
      <point x="334.268" y="26.5808"/>
      <point x="334.517" y="29.2645"/>
      <point x="335" y="32" type="curve" smooth="yes"/>
      <point x="340" y="55" type="line"/>
      <point x="300" y="33"/>
      <point x="239" y="8"/>
      <point x="184" y="8" type="curve" smooth="yes"/>
      <point x="93.2068" y="8"/>
      <point x="35.6304" y="69.4863"/>
      <point x="35.6304" y="165.723" type="curve" smooth="yes"/>
      <point x="35.6304" y="183.961"/>
      <point x="37.6983" y="203.447"/>
      <point x="42" y="224" type="curve" smooth="yes"/>
      <point x="64" y="328"/>
      <point x="169" y="514"/>
      <point x="343" y="514" type="curve" smooth="yes"/>
      <point x="417" y="514"/>
      <point x="472" y="481"/>
    </contour>
    <contour>
      <point x="352" y="121" type="curve"/>
      <point x="424" y="438" type="line"/>
      <point x="406" y="446"/>
      <point x="368" y="459"/>
      <point x="334" y="459" type="curve" smooth="yes"/>
      <point x="197" y="459"/>
      <point x="117" y="309"/>
      <point x="100" y="226" type="curve" smooth="yes"/>
      <point x="96.7514" y="210.84"/>
      <point x="94.8631" y="194.601"/>
      <point x="94.8631" y="178.462" type="curve" smooth="yes"/>
      <point x="94.8631" y="120.08"/>
      <point x="119.574" y="63"/>
      <point x="194" y="63" type="curve" smooth="yes"/>
      <point x="255" y="63"/>
      <point x="326" y="105"/>
    </contour>
  </outline>
</glyph>
<glyph name="b" format="1">
  <advance width="524"/>
  <unicode hex="0062"/>
  <outline>
    <contour>
      <point x="38" y="0" type="curve" smooth="yes"/>
      <point x="53" y="0"/>
      <point x="67" y="13"/>
      <point x="70" y="26" type="curve" smooth="yes"/>
      <point x="72" y="35" type="line"/>
      <point x="100" y="22"/>
      <point x="151" y="7"/>
      <point x="203" y="7" type="curve" smooth="yes"/>
      <point x="357" y="7"/>
      <point x="445" y="125"/>
      <point x="476" y="271" type="curve" smooth="yes"/>
      <point x="480.837" y="293.644"/>
      <point x="483.595" y="316.965"/>
      <point x="483.595" y="339.57" type="curve" smooth="yes"/>
      <point x="483.595" y="419.789"/>
      <point x="448.86" y="491"/>
      <point x="349" y="491" type="curve" smooth="yes"/>
      <point x="280" y="491"/>
      <point x="205" y="460"/>
      <point x="152" y="410" type="curve"/>
      <point x="206" y="665" type="line" smooth="yes"/>
      <point x="209" y="680"/>
      <point x="198" y="690"/>
      <point x="184" y="690" type="curve" smooth="yes"/>
      <point x="169" y="690"/>
      <point x="154" y="680"/>
      <point x="151" y="665" type="curve" smooth="yes"/>
      <point x="15" y="26" type="line" smooth="yes"/>
      <point x="12" y="12"/>
      <point x="23" y="0"/>
    </contour>
    <contour>
      <point x="206" y="60" type="curve" smooth="yes"/>
      <point x="149" y="60"/>
      <point x="98" y="79"/>
      <point x="83" y="87" type="curve"/>
      <point x="127" y="294" type="line" smooth="yes"/>
      <point x="144" y="372"/>
      <point x="236" y="435"/>
      <point x="341" y="435" type="curve" smooth="yes"/>
      <point x="408.639" y="435"/>
      <point x="429.318" y="382.515"/>
      <point x="429.318" y="327.234" type="curve" smooth="yes"/>
      <point x="429.318" y="308.141"/>
      <point x="426.851" y="288.714"/>
      <point x="423" y="271" type="curve" smooth="yes"/>
      <point x="396" y="144"/>
      <point x="332" y="60"/>
    </contour>
  </outline>
</glyph>
<glyph name="d" format="1">
  <advance width="530"/>
  <unicode hex="0064"/>
  <outline>
    <contour>
      <point x="366" y="0" type="curve" smooth="yes"/>
      <point x="382" y="0"/>
      <point x="397" y="11"/>
      <point x="400" y="27" type="curve"/>
      <point x="551" y="667" type="line" smooth="yes"/>
      <point x="551.6" y="669.402"/>
      <point x="551.885" y="671.758"/>
      <point x="551.885" y="674.029" type="curve" smooth="yes"/>
      <point x="551.885" y="686.887"/>
      <point x="542.749" y="697"/>
      <point x="530" y="697" type="curve" smooth="yes"/>
      <point x="514" y="697"/>
      <point x="498" y="684"/>
      <point x="494" y="668" type="curve" smooth="yes"/>
      <point x="447" y="467" type="line"/>
      <point x="417" y="482"/>
      <point x="371" y="498"/>
      <point x="315" y="498" type="curve" smooth="yes"/>
      <point x="160" y="498"/>
      <point x="74" y="368"/>
      <point x="44" y="226" type="curve" smooth="yes"/>
      <point x="38.9952" y="203.061"/>
      <point x="36.3387" y="180.036"/>
      <point x="36.3387" y="157.957" type="curve" smooth="yes"/>
      <point x="36.3387" y="74.1592"/>
      <point x="74.6068" y="4"/>
      <point x="168" y="4" type="curve" smooth="yes"/>
      <point x="247" y="4"/>
      <point x="313" y="46"/>
      <point x="356" y="79" type="curve"/>
      <point x="345" y="34" type="line" smooth="yes"/>
      <point x="343.958" y="30.4583"/>
      <point x="343.438" y="26.9167"/>
      <point x="343.438" y="23.5287" type="curve" smooth="yes"/>
      <point x="343.438" y="10.6545"/>
      <point x="350.958" y="0"/>
    </contour>
    <contour>
      <point x="179" y="53" type="curve" smooth="yes"/>
      <point x="111.969" y="53"/>
      <point x="92.1839" y="107.679"/>
      <point x="92.1839" y="165.593" type="curve" smooth="yes"/>
      <point x="92.1839" y="187.166"/>
      <point x="94.929" y="209.188"/>
      <point x="99" y="229" type="curve" smooth="yes"/>
      <point x="118" y="316"/>
      <point x="170" y="444"/>
      <point x="306" y="444" type="curve" smooth="yes"/>
      <point x="365" y="444"/>
      <point x="416" y="416"/>
      <point x="433" y="406" type="curve"/>
      <point x="376" y="161" type="line"/>
      <point x="368" y="130"/>
      <point x="283" y="53"/>
    </contour>
  </outline>
</glyph>
<glyph name="g" format="1">
  <advance width="521"/>
  <unicode hex="0067"/>
  <outline>
    <contour>
      <point x="25" y="-170" type="curve" smooth="yes"/>
      <point x="14.8731" y="-167.468"/>
      <point x="8.3071" y="-159.239"/>
      <point x="8.3071" y="-148.919" type="curve" smooth="yes"/>
      <point x="8.3071" y="-147.01"/>
      <point x="8.53173" y="-145.029"/>
      <point x="9" y="-143" type="curve" smooth="yes"/>
      <point x="13" y="-127"/>
      <point x="28" y="-115"/>
      <point x="43" y="-115" type="curve" smooth="yes"/>
      <point x="62" y="-115"/>
      <point x="80" y="-129"/>
      <point x="156" y="-129" type="curve" smooth="yes"/>
      <point x="265" y="-129"/>
      <point x="316" y="-69"/>
      <point x="338" y="23" type="curve" smooth="yes"/>
      <point x="352" y="78" type="line"/>
      <point x="306" y="29"/>
      <point x="251" y="1"/>
      <point x="193" y="-1" type="curve"/>
      <point x="97.3584" y="-1"/>
      <point x="39.7586" y="72.3169"/>
      <point x="39.7586" y="175.233" type="curve" smooth="yes"/>
      <point x="39.7586" y="196.063"/>
      <point x="42.1183" y="218.107"/>
      <point x="47" y="241" type="curve" smooth="yes"/>
      <point x="75" y="374"/>
      <point x="204" y="500"/>
      <point x="339" y="500" type="curve" smooth="yes"/>
      <point x="386" y="500"/>
      <point x="420" y="483"/>
      <point x="443" y="468" type="curve"/>
      <point x="448" y="492"/>
      <point x="457" y="511"/>
      <point x="481" y="511" type="curve" smooth="yes"/>
      <point x="494.203" y="511"/>
      <point x="503.532" y="500.928"/>
      <point x="503.532" y="487.604" type="curve" smooth="yes"/>
      <point x="503.532" y="485.791"/>
      <point x="503.359" y="483.917"/>
      <point x="503" y="482" type="curve"/>
      <point x="394" y="19" type="line" smooth="yes"/>
      <point x="361" y="-122"/>
      <point x="262" y="-185"/>
      <point x="145" y="-185" type="curve" smooth="yes"/>
      <point x="97" y="-185"/>
      <point x="55" y="-177"/>
    </contour>
    <contour>
      <point x="396" y="267" type="curve" smooth="yes"/>
      <point x="427" y="412" type="line"/>
      <point x="409" y="431"/>
      <point x="370" y="445"/>
      <point x="331" y="445" type="curve" smooth="yes"/>
      <point x="226" y="445"/>
      <point x="121" y="356"/>
      <point x="96" y="237" type="curve" smooth="yes"/>
      <point x="92.8625" y="221.94"/>
      <point x="91.0375" y="205.086"/>
      <point x="91.0375" y="187.848" type="curve" smooth="yes"/>
      <point x="91.0375" y="122.672"/>
      <point x="117.126" y="52"/>
      <point x="197" y="52" type="curve" smooth="yes"/>
      <point x="266" y="52"/>
      <point x="361" y="102"/>
    </contour>
  </outline>
</glyph>
<glyph name="i" format="1">
  <advance width="194"/>
  <unicode hex="0069"/>
  <outline>
    <contour>
      <point x="173" y="467" type="curve"/>
      <point x="173" y="467"/>
      <point x="74" y="29"/>
      <point x="74" y="29" type="curve"/>
      <point x="70" y="13"/>
      <point x="55" y="0"/>
      <point x="39" y="0" type="curve" smooth="yes"/>
      <point x="25.2376" y="0"/>
      <point x="15.1746" y="9.61809"/>
      <point x="15.1746" y="22.4904" type="curve" smooth="yes"/>
      <point x="15.1746" y="24.5834"/>
      <point x="15.4406" y="26.7624"/>
      <point x="16" y="29" type="curve"/>
      <point x="16" y="29"/>
      <point x="115" y="467"/>
      <point x="115" y="467" type="curve"/>
      <point x="118" y="483"/>
      <point x="134" y="496"/>
      <point x="150" y="496" type="curve" smooth="yes"/>
      <point x="164.093" y="496"/>
      <point x="173.531" y="485.915"/>
      <point x="173.531" y="472.577" type="curve" smooth="yes"/>
      <point x="173.531" y="470.772"/>
      <point x="173.358" y="468.907"/>
    </contour>
    <contour>
      <point x="169" y="585" type="curve" smooth="yes"/>
      <point x="155.938" y="585"/>
      <point x="147.425" y="594.858"/>
      <point x="147.425" y="607.311" type="curve" smooth="yes"/>
      <point x="147.425" y="609.158"/>
      <point x="147.612" y="611.062"/>
      <point x="148" y="613" type="curve" smooth="yes"/>
      <point x="158" y="654" type="line" smooth="yes"/>
      <point x="161" y="669"/>
      <point x="176" y="681"/>
      <point x="191" y="681" type="curve" smooth="yes"/>
      <point x="204.062" y="681"/>
      <point x="212.575" y="670.383"/>
      <point x="212.575" y="658.395" type="curve" smooth="yes"/>
      <point x="212.575" y="656.617"/>
      <point x="212.388" y="654.808"/>
      <point x="212" y="653" type="curve" smooth="yes"/>
      <point x="203" y="612" type="line"/>
      <point x="198" y="596"/>
      <point x="184" y="585"/>
    </contour>
  </outline>
</glyph>
<glyph name="k" format="1">
  <advance width="494"/>
  <unicode hex="006B"/>
  <outline>
    <contour>
      <point x="40" y="0" type="curve" smooth="yes"/>
      <point x="56" y="0"/>
      <point x="70" y="13"/>
      <point x="73" y="28" type="curve" smooth="yes"/>
      <point x="110" y="202" type="line"/>
      <point x="135" y="215"/>
      <point x="172" y="236"/>
      <point x="216" y="266" type="curve"/>
      <point x="240" y="227"/>
      <point x="317" y="95"/>
      <point x="360" y="13" type="curve"/>
      <point x="364" y="7"/>
      <point x="371" y="3"/>
      <point x="380" y="3" type="curve" smooth="yes"/>
      <point x="397" y="3"/>
      <point x="411" y="17"/>
      <point x="415" y="33" type="curve" smooth="yes"/>
      <point x="416" y="40"/>
      <point x="413" y="46"/>
      <point x="410" y="50" type="curve" smooth="yes"/>
      <point x="367" y="126"/>
      <point x="268" y="291"/>
      <point x="265" y="298" type="curve"/>
      <point x="316" y="336"/>
      <point x="414" y="418"/>
      <point x="469" y="475" type="curve" smooth="yes"/>
      <point x="473" y="479"/>
      <point x="478" y="485"/>
      <point x="479" y="491" type="curve" smooth="yes"/>
      <point x="479.388" y="492.938"/>
      <point x="479.575" y="494.825"/>
      <point x="479.575" y="496.643" type="curve" smooth="yes"/>
      <point x="479.575" y="508.9"/>
      <point x="471.062" y="518"/>
      <point x="458" y="518" type="curve" smooth="yes"/>
      <point x="448" y="518"/>
      <point x="439" y="513"/>
      <point x="432" y="506" type="curve" smooth="yes"/>
      <point x="334" y="405"/>
      <point x="185" y="291"/>
      <point x="120" y="254" type="curve"/>
      <point x="206" y="661" type="line" smooth="yes"/>
      <point x="206.414" y="663.071"/>
      <point x="206.619" y="665.124"/>
      <point x="206.619" y="667.123" type="curve" smooth="yes"/>
      <point x="206.619" y="679.6"/>
      <point x="198.652" y="690"/>
      <point x="184" y="690" type="curve" smooth="yes"/>
      <point x="169" y="690"/>
      <point x="154" y="678"/>
      <point x="150" y="663" type="curve"/>
      <point x="17" y="28" type="line" smooth="yes"/>
      <point x="14" y="13"/>
      <point x="25" y="0"/>
    </contour>
  </outline>
</glyph>
<glyph name="l" format="1">
  <advance width="226"/>
  <unicode hex="006C"/>
  <outline>
    <contour>
      <point x="226" y="663" type="curve"/>
      <point x="91" y="25" type="line" smooth="yes"/>
      <point x="88" y="11"/>
      <point x="72" y="0"/>
      <point x="58" y="0" type="curve" smooth="yes"/>
      <point x="44" y="0"/>
      <point x="32" y="11"/>
      <point x="35" y="25" type="curve" smooth="yes"/>
      <point x="170" y="663" type="line"/>
      <point x="174" y="678"/>
      <point x="188" y="690"/>
      <point x="204" y="690" type="curve" smooth="yes"/>
      <point x="216.891" y="690"/>
      <point x="226.828" y="681.137"/>
      <point x="226.828" y="669.123" type="curve" smooth="yes"/>
      <point x="226.828" y="667.158"/>
      <point x="226.562" y="665.109"/>
    </contour>
  </outline>
</glyph>
<glyph name="m" format="1">
  <advance width="813"/>
  <unicode hex="006D"/>
  <outline>
    <contour>
      <point x="38" y="0" type="curve" smooth="yes"/>
      <point x="53" y="0"/>
      <point x="68" y="12"/>
      <point x="71" y="27" type="curve" smooth="yes"/>
      <point x="122" y="265" type="line"/>
      <point x="126" y="278"/>
      <point x="135" y="297"/>
      <point x="143" y="307" type="curve" smooth="yes"/>
      <point x="232" y="415"/>
      <point x="313" y="462"/>
      <point x="355" y="462" type="curve" smooth="yes"/>
      <point x="381.804" y="462"/>
      <point x="413.581" y="453.92"/>
      <point x="413.581" y="394.152" type="curve" smooth="yes"/>
      <point x="413.581" y="378.108"/>
      <point x="411.291" y="358.338"/>
      <point x="406" y="334" type="curve" smooth="yes"/>
      <point x="341" y="27" type="line" smooth="yes"/>
      <point x="338" y="12"/>
      <point x="349" y="0"/>
      <point x="364" y="0" type="curve" smooth="yes"/>
      <point x="380" y="0"/>
      <point x="394" y="12"/>
      <point x="397" y="27" type="curve" smooth="yes"/>
      <point x="452" y="283" type="line" smooth="yes"/>
      <point x="476" y="396"/>
      <point x="600" y="462"/>
      <point x="655" y="462" type="curve" smooth="yes"/>
      <point x="681.914" y="462"/>
      <point x="714.467" y="453.854"/>
      <point x="714.467" y="393.418" type="curve" smooth="yes"/>
      <point x="714.467" y="377.505"/>
      <point x="712.21" y="357.968"/>
      <point x="707" y="334" type="curve" smooth="yes"/>
      <point x="642" y="27" type="line" smooth="yes"/>
      <point x="639" y="12"/>
      <point x="650" y="0"/>
      <point x="665" y="0" type="curve" smooth="yes"/>
      <point x="680" y="0"/>
      <point x="695" y="12"/>
      <point x="698" y="27" type="curve" smooth="yes"/>
      <point x="762" y="327" type="line" smooth="yes"/>
      <point x="767.706" y="354.104"/>
      <point x="770.264" y="377.393"/>
      <point x="770.264" y="397.365" type="curve" smooth="yes"/>
      <point x="770.264" y="489.395"/>
      <point x="715.944" y="511"/>
      <point x="665" y="511" type="curve" smooth="yes"/>
      <point x="611" y="511"/>
      <point x="531" y="468"/>
      <point x="470" y="401" type="curve"/>
      <point x="469" y="490"/>
      <point x="415" y="511"/>
      <point x="365" y="511" type="curve" smooth="yes"/>
      <point x="297" y="511"/>
      <point x="211" y="436"/>
      <point x="142" y="362" type="curve"/>
      <point x="166" y="471" type="line" smooth="yes"/>
      <point x="166.385" y="472.927"/>
      <point x="166.573" y="474.82"/>
      <point x="166.573" y="476.657" type="curve" smooth="yes"/>
      <point x="166.573" y="489.125"/>
      <point x="157.945" y="499"/>
      <point x="144" y="499" type="curve" smooth="yes"/>
      <point x="129" y="499"/>
      <point x="113" y="486"/>
      <point x="110" y="471" type="curve" smooth="yes"/>
      <point x="15" y="27" type="line" smooth="yes"/>
      <point x="12" y="12"/>
      <point x="23" y="0"/>
    </contour>
  </outline>
</glyph>
<glyph name="n" format="1">
  <advance width="535"/>
  <unicode hex="006E"/>
  <outline>
    <contour>
      <point x="166" y="473" type="curve" smooth="yes"/>
      <point x="128" y="292" type="line"/>
      <point x="172" y="406"/>
      <point x="273" y="499"/>
      <point x="379" y="499" type="curve" smooth="yes"/>
      <point x="452.679" y="499"/>
      <point x="480.544" y="460.254"/>
      <point x="480.544" y="379.281" type="curve" smooth="yes"/>
      <point x="480.544" y="301.997"/>
      <point x="455.161" y="186.246"/>
      <point x="420" y="29" type="curve" smooth="yes"/>
      <point x="416" y="13"/>
      <point x="404" y="0"/>
      <point x="388" y="0" type="curve" smooth="yes"/>
      <point x="374.797" y="3.55271e-15"/>
      <point x="365.468" y="10.0718"/>
      <point x="365.468" y="22.714" type="curve" smooth="yes"/>
      <point x="365.468" y="24.4347"/>
      <point x="365.641" y="26.203"/>
      <point x="366" y="28" type="curve" smooth="yes"/>
      <point x="396.747" y="185.72"/>
      <point x="425.873" y="299.025"/>
      <point x="425.873" y="367.36" type="curve" smooth="yes"/>
      <point x="425.873" y="419.04"/>
      <point x="409.214" y="445"/>
      <point x="364" y="445" type="curve" smooth="yes"/>
      <point x="320" y="445"/>
      <point x="263" y="424"/>
      <point x="189" y="326" type="curve" smooth="yes"/>
      <point x="142" y="264"/>
      <point x="105" y="181"/>
      <point x="89" y="111" type="curve" smooth="yes"/>
      <point x="71" y="30" type="line" smooth="yes"/>
      <point x="67" y="13"/>
      <point x="55" y="0"/>
      <point x="38" y="0" type="curve" smooth="yes"/>
      <point x="23" y="0"/>
      <point x="12" y="12"/>
      <point x="15" y="26" type="curve" smooth="yes"/>
      <point x="110" y="473" type="line" smooth="yes"/>
      <point x="113" y="488"/>
      <point x="129" y="500"/>
      <point x="144" y="500" type="curve" smooth="yes"/>
      <point x="157.203" y="500"/>
      <point x="166.532" y="490.703"/>
      <point x="166.532" y="478.246" type="curve" smooth="yes"/>
      <point x="166.532" y="476.551"/>
      <point x="166.359" y="474.797"/>
    </contour>
  </outline>
</glyph>
<glyph name="o" format="1">
  <advance width="535"/>
  <unicode hex="006F"/>
  <outline>
    <contour>
      <point x="197" y="0" type="curve" smooth="yes"/>
      <point x="98.9943" y="-1.42109e-14"/>
      <point x="37.3029" y="75.5336"/>
      <point x="37.3029" y="175.846" type="curve" smooth="yes"/>
      <point x="37.3029" y="193.241"/>
      <point x="39.1578" y="211.38"/>
      <point x="43" y="230" type="curve" smooth="yes"/>
      <point x="74" y="376"/>
      <point x="208" y="500"/>
      <point x="334" y="500" type="curve" smooth="yes"/>
      <point x="431.139" y="500"/>
      <point x="492.7" y="423.037"/>
      <point x="492.7" y="323.555" type="curve" smooth="yes"/>
      <point x="492.7" y="306.287"/>
      <point x="490.846" y="288.34"/>
      <point x="487" y="270" type="curve" smooth="yes"/>
      <point x="456" y="123"/>
      <point x="323" y="0"/>
    </contour>
    <contour>
      <point x="319" y="452" type="curve" smooth="yes"/>
      <point x="226" y="452"/>
      <point x="126" y="349"/>
      <point x="101" y="232" type="curve" smooth="yes"/>
      <point x="97.3109" y="214.608"/>
      <point x="95.5043" y="197.649"/>
      <point x="95.5043" y="181.506" type="curve" smooth="yes"/>
      <point x="95.5043" y="105.759"/>
      <point x="135.284" y="48"/>
      <point x="207" y="48" type="curve" smooth="yes"/>
      <point x="298" y="48"/>
      <point x="403" y="149"/>
      <point x="428" y="265" type="curve" smooth="yes"/>
      <point x="431.37" y="281.047"/>
      <point x="432.989" y="296.759"/>
      <point x="432.989" y="311.831" type="curve" smooth="yes"/>
      <point x="432.989" y="390.682"/>
      <point x="388.681" y="452"/>
    </contour>
  </outline>
</glyph>
<glyph name="p" format="1">
  <advance width="520"/>
  <unicode hex="0070"/>
  <outline>
    <contour>
      <point x="-4" y="-195" type="curve" smooth="yes"/>
      <point x="11" y="-195"/>
      <point x="27" y="-182"/>
      <point x="30" y="-167" type="curve" smooth="yes"/>
      <point x="73" y="36" type="line"/>
      <point x="102" y="24"/>
      <point x="145" y="8"/>
      <point x="197" y="8" type="curve" smooth="yes"/>
      <point x="373" y="8"/>
      <point x="449" y="162"/>
      <point x="473" y="276" type="curve" smooth="yes"/>
      <point x="477.737" y="298.607"/>
      <point x="480.295" y="321.631"/>
      <point x="480.295" y="343.894" type="curve" smooth="yes"/>
      <point x="480.295" y="425.036"/>
      <point x="446.317" y="496.077"/>
      <point x="360" y="500" type="curve"/>
      <point x="271" y="500"/>
      <point x="206" y="469"/>
      <point x="157" y="431" type="curve"/>
      <point x="166" y="471" type="line" smooth="yes"/>
      <point x="166.385" y="473.055"/>
      <point x="166.573" y="475.06"/>
      <point x="166.573" y="476.995" type="curve" smooth="yes"/>
      <point x="166.573" y="490.125"/>
      <point x="157.945" y="500"/>
      <point x="144" y="500" type="curve" smooth="yes"/>
      <point x="128" y="500"/>
      <point x="113" y="487"/>
      <point x="110" y="471" type="curve" smooth="yes"/>
      <point x="-26" y="-167" type="line" smooth="yes"/>
      <point x="-26.3594" y="-168.797"/>
      <point x="-26.5322" y="-170.565"/>
      <point x="-26.5322" y="-172.286" type="curve" smooth="yes"/>
      <point x="-26.5322" y="-184.928"/>
      <point x="-17.203" y="-195"/>
    </contour>
    <contour>
      <point x="215" y="65" type="curve" smooth="yes"/>
      <point x="156" y="65"/>
      <point x="104" y="90"/>
      <point x="87" y="99" type="curve"/>
      <point x="143" y="363" type="line"/>
      <point x="165" y="388"/>
      <point x="236" y="451"/>
      <point x="341" y="451" type="curve" smooth="yes"/>
      <point x="410.047" y="451"/>
      <point x="428.915" y="390.031"/>
      <point x="428.915" y="333.09" type="curve" smooth="yes"/>
      <point x="428.915" y="312.511"/>
      <point x="426.451" y="292.459"/>
      <point x="423" y="276" type="curve" smooth="yes"/>
      <point x="398" y="156"/>
      <point x="337" y="65"/>
    </contour>
  </outline>
</glyph>
<glyph name="q" format="1">
  <advance width="514"/>
  <unicode hex="0071"/>
  <outline>
    <contour>
      <point x="283" y="-158" type="curve" smooth="yes"/>
      <point x="337" y="61" type="line"/>
      <point x="337" y="61"/>
      <point x="298" y="-6"/>
      <point x="203" y="-6" type="curve" smooth="yes"/>
      <point x="95.6284" y="-6"/>
      <point x="33.2793" y="62.2599"/>
      <point x="33.2793" y="158.557" type="curve" smooth="yes"/>
      <point x="33.2793" y="175.264"/>
      <point x="35.156" y="192.815"/>
      <point x="39" y="211" type="curve" smooth="yes"/>
      <point x="75" y="381"/>
      <point x="207" y="489"/>
      <point x="369" y="489" type="curve" smooth="yes"/>
      <point x="392" y="489"/>
      <point x="416" y="487"/>
      <point x="442" y="482" type="curve"/>
      <point x="444" y="491" type="line" smooth="yes"/>
      <point x="447" y="506"/>
      <point x="462" y="518"/>
      <point x="477" y="518" type="curve" smooth="yes"/>
      <point x="489.749" y="518"/>
      <point x="498.885" y="509.332"/>
      <point x="498.885" y="497.521" type="curve" smooth="yes"/>
      <point x="498.885" y="495.435"/>
      <point x="498.6" y="493.251"/>
      <point x="498" y="491" type="curve" smooth="yes"/>
      <point x="336" y="-160" type="line" smooth="yes"/>
      <point x="331" y="-180"/>
      <point x="317" y="-189"/>
      <point x="301" y="-189" type="curve" smooth="yes"/>
      <point x="288.798" y="-189"/>
      <point x="281.89" y="-178.413"/>
      <point x="281.89" y="-166.389" type="curve" smooth="yes"/>
      <point x="281.89" y="-163.632"/>
      <point x="282.254" y="-160.798"/>
    </contour>
    <contour>
      <point x="205" y="44" type="curve" smooth="yes"/>
      <point x="284" y="44"/>
      <point x="346" y="87"/>
      <point x="364" y="164" type="curve"/>
      <point x="430" y="433" type="line"/>
      <point x="404" y="437"/>
      <point x="381" y="439"/>
      <point x="359" y="439" type="curve" smooth="yes"/>
      <point x="229" y="439"/>
      <point x="120" y="356"/>
      <point x="89" y="209" type="curve" smooth="yes"/>
      <point x="85.9216" y="194.781"/>
      <point x="84.4549" y="181.185"/>
      <point x="84.4549" y="168.335" type="curve" smooth="yes"/>
      <point x="84.4549" y="93.525"/>
      <point x="134.167" y="44"/>
    </contour>
  </outline>
</glyph>
<glyph name="r" format="1">
  <advance width="416"/>
  <unicode hex="0072"/>
  <outline>
    <contour>
      <point x="38" y="0" type="curve" smooth="yes"/>
      <point x="53" y="0"/>
      <point x="68" y="12"/>
      <point x="71" y="26" type="curve" smooth="yes"/>
      <point x="120" y="253" type="line" smooth="yes"/>
      <point x="127" y="285"/>
      <point x="152" y="332"/>
      <point x="176" y="357" type="curve" smooth="yes"/>
      <point x="224" y="407"/>
      <point x="278" y="447"/>
      <point x="326" y="447" type="curve" smooth="yes"/>
      <point x="349.493" y="447"/>
      <point x="355.923" y="437.156"/>
      <point x="355.923" y="424.379" type="curve" smooth="yes"/>
      <point x="355.923" y="421.384"/>
      <point x="355.57" y="418.228"/>
      <point x="355" y="415" type="curve"/>
      <point x="349" y="390" type="line"/>
      <point x="348.624" y="387.555"/>
      <point x="348.389" y="385.039"/>
      <point x="348.389" y="382.565" type="curve" smooth="yes"/>
      <point x="348.389" y="371.888"/>
      <point x="352.762" y="362"/>
      <point x="369" y="362" type="curve" smooth="yes"/>
      <point x="385" y="362"/>
      <point x="400" y="374"/>
      <point x="403" y="389" type="curve" smooth="yes"/>
      <point x="410" y="422" type="line" smooth="yes"/>
      <point x="411.554" y="428.993"/>
      <point x="412.466" y="436.287"/>
      <point x="412.466" y="443.502" type="curve" smooth="yes"/>
      <point x="412.466" y="473.433"/>
      <point x="396.763" y="502"/>
      <point x="346" y="502" type="curve" smooth="yes"/>
      <point x="258" y="502"/>
      <point x="188" y="430"/>
      <point x="146" y="376" type="curve"/>
      <point x="167" y="472" type="line" smooth="yes"/>
      <point x="167.358" y="473.788"/>
      <point x="167.531" y="475.534"/>
      <point x="167.531" y="477.221" type="curve" smooth="yes"/>
      <point x="167.531" y="489.691"/>
      <point x="158.093" y="499"/>
      <point x="144" y="499" type="curve" smooth="yes"/>
      <point x="129" y="499"/>
      <point x="113" y="487"/>
      <point x="110" y="472" type="curve" smooth="yes"/>
      <point x="15" y="26" type="line" smooth="yes"/>
      <point x="12" y="12"/>
      <point x="24" y="0"/>
    </contour>
  </outline>
</glyph>
<glyph name="t" format="1">
  <advance width="387"/>
  <unicode hex="0074"/>
  <outline>
    <contour>
      <point x="137" y="-1" type="curve" smooth="yes"/>
      <point x="152" y="-1"/>
      <point x="168" y="11"/>
      <point x="171" y="26" type="curve" smooth="yes"/>
      <point x="260" y="444" type="line"/>
      <point x="378" y="444" type="line" smooth="yes"/>
      <point x="394" y="444"/>
      <point x="409" y="457"/>
      <point x="412" y="472" type="curve" smooth="yes"/>
      <point x="412.385" y="474.055"/>
      <point x="412.573" y="476.044"/>
      <point x="412.573" y="477.95" type="curve" smooth="yes"/>
      <point x="412.573" y="490.885"/>
      <point x="403.945" y="500"/>
      <point x="390" y="500" type="curve" smooth="yes"/>
      <point x="272" y="500" type="line"/>
      <point x="302" y="643" type="line" smooth="yes"/>
      <point x="302.414" y="645.071"/>
      <point x="302.619" y="647.124"/>
      <point x="302.619" y="649.123" type="curve" smooth="yes"/>
      <point x="302.619" y="661.6"/>
      <point x="294.652" y="672"/>
      <point x="280" y="672" type="curve" smooth="yes"/>
      <point x="264" y="672"/>
      <point x="249" y="658"/>
      <point x="246" y="643" type="curve" smooth="yes"/>
      <point x="216" y="500" type="line"/>
      <point x="101" y="500" type="line" smooth="yes"/>
      <point x="85" y="500"/>
      <point x="68" y="489"/>
      <point x="65" y="472" type="curve" smooth="yes"/>
      <point x="64.6147" y="470.073"/>
      <point x="64.4273" y="468.18"/>
      <point x="64.4273" y="466.343" type="curve" smooth="yes"/>
      <point x="64.4273" y="453.875"/>
      <point x="73.055" y="444"/>
      <point x="87" y="444" type="curve" smooth="yes"/>
      <point x="204" y="444" type="line"/>
      <point x="115" y="26" type="line" smooth="yes"/>
      <point x="114.641" y="24.203"/>
      <point x="114.468" y="22.449"/>
      <point x="114.468" y="20.7536" type="curve" smooth="yes"/>
      <point x="114.468" y="8.29701"/>
      <point x="123.797" y="-1"/>
    </contour>
  </outline>
</glyph>
<glyph name="w" format="1">
  <advance width="594"/>
  <unicode hex="0077"/>
  <outline>
    <contour>
      <point x="78" y="0" type="curve" smooth="yes"/>
      <point x="90" y="0"/>
      <point x="101" y="9"/>
      <point x="108" y="21" type="curve" smooth="yes"/>
      <point x="321" y="391" type="line"/>
      <point x="336" y="22" type="line" smooth="yes"/>
      <point x="336" y="9"/>
      <point x="346" y="0"/>
      <point x="359" y="0" type="curve" smooth="yes"/>
      <point x="373" y="0"/>
      <point x="383" y="9"/>
      <point x="390" y="22" type="curve" smooth="yes"/>
      <point x="625" y="462" type="line" smooth="yes"/>
      <point x="626" y="465"/>
      <point x="628" y="468"/>
      <point x="629" y="471" type="curve" smooth="yes"/>
      <point x="629.359" y="472.797"/>
      <point x="629.532" y="474.565"/>
      <point x="629.532" y="476.286" type="curve" smooth="yes"/>
      <point x="629.532" y="488.928"/>
      <point x="620.203" y="499"/>
      <point x="607" y="499" type="curve" smooth="yes"/>
      <point x="594" y="499"/>
      <point x="580" y="489"/>
      <point x="575" y="477" type="curve"/>
      <point x="382" y="99" type="line"/>
      <point x="371" y="474" type="line" smooth="yes"/>
      <point x="371" y="487"/>
      <point x="362" y="500"/>
      <point x="348" y="500" type="curve" smooth="yes"/>
      <point x="334" y="500"/>
      <point x="319" y="489"/>
      <point x="314" y="479" type="curve" smooth="yes"/>
      <point x="105" y="104" type="line"/>
      <point x="111" y="476" type="line" smooth="yes"/>
      <point x="111" y="490"/>
      <point x="103" y="500"/>
      <point x="88" y="500" type="curve" smooth="yes"/>
      <point x="73" y="500"/>
      <point x="58" y="487"/>
      <point x="55" y="472" type="curve" smooth="yes"/>
      <point x="54" y="469"/>
      <point x="54" y="462"/>
      <point x="54" y="458" type="curve" smooth="yes"/>
      <point x="54" y="24" type="line" smooth="yes"/>
      <point x="54" y="11"/>
      <point x="64" y="0"/>
    </contour>
  </outline>
</glyph>
<glyph name="y" format="1">
  <advance width="489"/>
  <unicode hex="0079"/>
  <outline>
    <contour>
      <point x="49" y="-197" type="curve" smooth="yes"/>
      <point x="62" y="-197"/>
      <point x="73" y="-189"/>
      <point x="79" y="-179" type="curve" smooth="yes"/>
      <point x="509" y="461" type="line" smooth="yes"/>
      <point x="512" y="465"/>
      <point x="513" y="469"/>
      <point x="514" y="473" type="curve" smooth="yes"/>
      <point x="514.359" y="474.917"/>
      <point x="514.532" y="476.776"/>
      <point x="514.532" y="478.564" type="curve" smooth="yes"/>
      <point x="514.532" y="491.703"/>
      <point x="505.203" y="501"/>
      <point x="492" y="501" type="curve" smooth="yes"/>
      <point x="479" y="501"/>
      <point x="467" y="493"/>
      <point x="461" y="483" type="curve" smooth="yes"/>
      <point x="222" y="127" type="line"/>
      <point x="122" y="481" type="line" smooth="yes"/>
      <point x="119" y="491"/>
      <point x="111" y="500"/>
      <point x="99" y="500" type="curve" smooth="yes"/>
      <point x="83" y="500"/>
      <point x="68" y="487"/>
      <point x="65" y="471" type="curve" smooth="yes"/>
      <point x="64" y="466"/>
      <point x="64" y="460"/>
      <point x="65" y="456" type="curve" smooth="yes"/>
      <point x="177" y="61" type="line"/>
      <point x="32" y="-156" type="line" smooth="yes"/>
      <point x="29" y="-160"/>
      <point x="28" y="-164"/>
      <point x="27" y="-168" type="curve" smooth="yes"/>
      <point x="26.4377" y="-170.249"/>
      <point x="26.1718" y="-172.439"/>
      <point x="26.1718" y="-174.542" type="curve" smooth="yes"/>
      <point x="26.1718" y="-187.398"/>
      <point x="36.1087" y="-197"/>
    </contour>
  </outline>
</glyph>
<glyph name="z" format="1">
  <advance width="509"/>
  <unicode hex="007A"/>
  <outline>
    <contour>
      <point x="409" y="28" type="curve" smooth="yes"/>
      <point x="406" y="13"/>
      <point x="391" y="0"/>
      <point x="376" y="0" type="curve" smooth="yes"/>
      <point x="23" y="0" type="line" smooth="yes"/>
      <point x="9.67385" y="-1.77636e-15"/>
      <point x="-0.495208" y="10.2605"/>
      <point x="-0.495208" y="23.0684" type="curve" smooth="yes"/>
      <point x="-0.495208" y="32.8839"/>
      <point x="4.52231" y="39.5223"/>
      <point x="10" y="45" type="curve" smooth="yes"/>
      <point x="412" y="445" type="line"/>
      <point x="128" y="445" type="line" smooth="yes"/>
      <point x="114.055" y="445"/>
      <point x="105.427" y="454.115"/>
      <point x="105.427" y="467.05" type="curve" smooth="yes"/>
      <point x="105.427" y="468.956"/>
      <point x="105.615" y="470.945"/>
      <point x="106" y="473" type="curve" smooth="yes"/>
      <point x="109" y="488"/>
      <point x="124" y="501"/>
      <point x="140" y="501" type="curve" smooth="yes"/>
      <point x="477" y="501" type="line" smooth="yes"/>
      <point x="490.203" y="501"/>
      <point x="499.532" y="490.928"/>
      <point x="499.532" y="478.286" type="curve" smooth="yes"/>
      <point x="499.532" y="476.565"/>
      <point x="499.359" y="474.797"/>
      <point x="499" y="473" type="curve" smooth="yes"/>
      <point x="498" y="466"/>
      <point x="496" y="462"/>
      <point x="489" y="456" type="curve" smooth="yes"/>
      <point x="87" y="56" type="line"/>
      <point x="387" y="56" type="line" smooth="yes"/>
      <point x="399.891" y="56"/>
      <point x="409.828" y="46.3982"/>
      <point x="409.828" y="34.1769" type="curve" smooth="yes"/>
      <point x="409.828" y="32.1779"/>
      <point x="409.562" y="30.1087"/>
    </contour>
  </outline>
</glyph>
<glyph name="braceleft" format="1">
  <advance width="376"/>
  <unicode hex="007B"/>
  <outline>
    <contour>
      <point x="186" y="226" type="curve"/>
      <point x="142" y="22" type="line" smooth="yes"/>
      <point x="140.516" y="15.1078"/>
      <point x="139.829" y="8.72149"/>
      <point x="139.829" y="2.80301" type="curve" smooth="yes"/>
      <point x="139.829" y="-47.0952"/>
      <point x="188.605" y="-63.7422"/>
      <point x="219" y="-70" type="curve"/>
      <point x="231.901" y="-71.7202"/>
      <point x="239.624" y="-80.0979"/>
      <point x="239.624" y="-91.3159" type="curve" smooth="yes"/>
      <point x="239.624" y="-93.1409"/>
      <point x="239.42" y="-95.0411"/>
      <point x="239" y="-97" type="curve" smooth="yes"/>
      <point x="235.551" y="-113.383"/>
      <point x="221.694" y="-123.817"/>
      <point x="204.479" y="-123.817" type="curve" smooth="yes"/>
      <point x="201.729" y="-123.817"/>
      <point x="198.893" y="-123.551"/>
      <point x="196" y="-123" type="curve" smooth="yes"/>
      <point x="144.911" y="-112.43"/>
      <point x="84.5116" y="-81.6868"/>
      <point x="84.5116" y="-9.58423" type="curve" smooth="yes"/>
      <point x="84.5116" y="0.169506"/>
      <point x="85.6169" y="10.6801"/>
      <point x="88" y="22" type="curve" smooth="yes"/>
      <point x="132" y="227" type="line" smooth="yes"/>
      <point x="133.889" y="235.759"/>
      <point x="134.775" y="243.987"/>
      <point x="134.775" y="251.679" type="curve" smooth="yes"/>
      <point x="134.775" y="288.774"/>
      <point x="114.161" y="313.404"/>
      <point x="86" y="325" type="curve" smooth="yes"/>
      <point x="74" y="330"/>
      <point x="71" y="341"/>
      <point x="73" y="350" type="curve" smooth="yes"/>
      <point x="76" y="364"/>
      <point x="81" y="368"/>
      <point x="95" y="374" type="curve" smooth="yes"/>
      <point x="155" y="401"/>
      <point x="175" y="432"/>
      <point x="184" y="473" type="curve" smooth="yes"/>
      <point x="224" y="662" type="line" smooth="yes"/>
      <point x="245" y="758"/>
      <point x="335" y="798"/>
      <point x="399" y="808" type="curve" smooth="yes"/>
      <point x="400.655" y="808.248"/>
      <point x="402.234" y="808.366"/>
      <point x="403.738" y="808.366" type="curve" smooth="yes"/>
      <point x="418.761" y="808.366"/>
      <point x="426.273" y="796.578"/>
      <point x="426.273" y="784.852" type="curve" smooth="yes"/>
      <point x="426.273" y="767.886"/>
      <point x="412.065" y="757.011"/>
      <point x="394" y="754" type="curve" smooth="yes"/>
      <point x="357" y="748"/>
      <point x="292" y="727"/>
      <point x="278" y="662" type="curve" smooth="yes"/>
      <point x="238" y="474" type="line" smooth="yes"/>
      <point x="227" y="419"/>
      <point x="194" y="378"/>
      <point x="153" y="350" type="curve"/>
      <point x="174.931" y="330.419"/>
      <point x="189.5" y="299.795"/>
      <point x="189.5" y="260.532" type="curve" smooth="yes"/>
      <point x="189.5" y="249.666"/>
      <point x="188.384" y="238.138"/>
    </contour>
  </outline>
</glyph>
<glyph name="bar" format="1">
  <advance width="193"/>
  <unicode hex="007C"/>
  <outline>
    <contour>
      <point x="5" y="-168" type="curve" smooth="yes"/>
      <point x="21" y="-168"/>
      <point x="35" y="-156"/>
      <point x="39" y="-140" type="curve" smooth="yes"/>
      <point x="241" y="812" type="line" smooth="yes"/>
      <point x="241.385" y="813.927"/>
      <point x="241.573" y="815.82"/>
      <point x="241.573" y="817.657" type="curve" smooth="yes"/>
      <point x="241.573" y="830.125"/>
      <point x="232.945" y="840"/>
      <point x="219" y="840" type="curve" smooth="yes"/>
      <point x="204" y="840"/>
      <point x="188" y="827"/>
      <point x="185" y="812" type="curve" smooth="yes"/>
      <point x="-17" y="-140" type="line" smooth="yes"/>
      <point x="-17.5623" y="-142.249"/>
      <point x="-17.8282" y="-144.419"/>
      <point x="-17.8282" y="-146.488" type="curve" smooth="yes"/>
      <point x="-17.8282" y="-159.137"/>
      <point x="-7.89131" y="-168"/>
    </contour>
  </outline>
</glyph>
<glyph name="braceright" format="1">
  <advance width="376"/>
  <unicode hex="007D"/>
  <outline>
    <contour>
      <point x="-0.52853" y="-124.366" type="curve" smooth="yes"/>
      <point x="0.91787" y="-124.366"/>
      <point x="2.42814" y="-124.248"/>
      <point x="4" y="-124" type="curve" smooth="yes"/>
      <point x="68" y="-114"/>
      <point x="159" y="-74"/>
      <point x="179" y="22" type="curve" smooth="yes"/>
      <point x="219" y="211" type="line" smooth="yes"/>
      <point x="228" y="252"/>
      <point x="249" y="283"/>
      <point x="308" y="310" type="curve" smooth="yes"/>
      <point x="323" y="316"/>
      <point x="328" y="320"/>
      <point x="330" y="334" type="curve" smooth="yes"/>
      <point x="332" y="343"/>
      <point x="330" y="354"/>
      <point x="318" y="359" type="curve" smooth="yes"/>
      <point x="289.839" y="370.596"/>
      <point x="269.225" y="395.226"/>
      <point x="269.225" y="432.321" type="curve" smooth="yes"/>
      <point x="269.225" y="440.013"/>
      <point x="270.111" y="448.241"/>
      <point x="272" y="457" type="curve" smooth="yes"/>
      <point x="315" y="662" type="line" smooth="yes"/>
      <point x="317.383" y="673.32"/>
      <point x="318.488" y="683.83"/>
      <point x="318.488" y="693.584" type="curve" smooth="yes"/>
      <point x="318.488" y="765.687"/>
      <point x="258.089" y="796.43"/>
      <point x="207" y="807" type="curve" smooth="yes"/>
      <point x="204.245" y="807.551"/>
      <point x="201.527" y="807.817"/>
      <point x="198.88" y="807.817" type="curve" smooth="yes"/>
      <point x="182.306" y="807.817"/>
      <point x="168.449" y="797.383"/>
      <point x="165" y="781" type="curve" smooth="yes"/>
      <point x="164.547" y="778.884"/>
      <point x="164.322" y="776.837"/>
      <point x="164.322" y="774.878" type="curve" smooth="yes"/>
      <point x="164.322" y="763.88"/>
      <point x="171.418" y="755.698"/>
      <point x="185" y="754" type="curve"/>
      <point x="214.498" y="747.743"/>
      <point x="263.172" y="731.099"/>
      <point x="263.172" y="681.212" type="curve" smooth="yes"/>
      <point x="263.172" y="675.29"/>
      <point x="262.486" y="668.898"/>
      <point x="261" y="662" type="curve" smooth="yes"/>
      <point x="218" y="458" type="line" smooth="yes"/>
      <point x="215.321" y="445.053"/>
      <point x="214.088" y="432.954"/>
      <point x="214.088" y="421.69" type="curve" smooth="yes"/>
      <point x="214.088" y="382.493"/>
      <point x="229.027" y="353.42"/>
      <point x="250" y="334" type="curve"/>
      <point x="210" y="306"/>
      <point x="177" y="265"/>
      <point x="165" y="210" type="curve" smooth="yes"/>
      <point x="125" y="22" type="line" smooth="yes"/>
      <point x="111" y="-43"/>
      <point x="46" y="-64"/>
      <point x="10" y="-70" type="curve" smooth="yes"/>
      <point x="-9" y="-73"/>
      <point x="-19" y="-83"/>
      <point x="-22" y="-97" type="curve" smooth="yes"/>
      <point x="-22.3525" y="-98.6451"/>
      <point x="-22.5255" y="-100.318"/>
      <point x="-22.5255" y="-101.984" type="curve" smooth="yes"/>
      <point x="-22.5255" y="-113.325"/>
      <point x="-14.5112" y="-124.366"/>
    </contour>
  </outline>
</glyph>
<glyph name="exclamdown" format="1">
  <advance width="196"/>
  <unicode hex="00A1"/>
  <outline>
    <contour>
      <point x="126" y="315" type="curve" smooth="yes"/>
      <point x="23" y="-167" type="line" smooth="yes"/>
      <point x="20" y="-183"/>
      <point x="4" y="-197"/>
      <point x="-12" y="-197" type="curve" smooth="yes"/>
      <point x="-26.0926" y="-197"/>
      <point x="-35.5305" y="-186.139"/>
      <point x="-35.5305" y="-172.617" type="curve" smooth="yes"/>
      <point x="-35.5305" y="-170.786"/>
      <point x="-35.3576" y="-168.907"/>
      <point x="-35" y="-167" type="curve" smooth="yes"/>
      <point x="68" y="315" type="line" smooth="yes"/>
      <point x="72" y="331"/>
      <point x="88" y="344"/>
      <point x="104" y="344" type="curve" smooth="yes"/>
      <point x="117.612" y="344"/>
      <point x="126.882" y="334.59"/>
      <point x="126.882" y="321.929" type="curve" smooth="yes"/>
      <point x="126.882" y="319.708"/>
      <point x="126.597" y="317.388"/>
    </contour>
    <contour>
      <point x="95" y="449" type="curve" smooth="yes"/>
      <point x="101" y="476"/>
      <point x="125" y="496"/>
      <point x="145" y="496" type="curve" smooth="yes"/>
      <point x="160.72" y="496"/>
      <point x="170.279" y="485.047"/>
      <point x="170.279" y="469.372" type="curve" smooth="yes"/>
      <point x="170.279" y="466.101"/>
      <point x="169.863" y="462.625"/>
      <point x="169" y="459" type="curve" smooth="yes"/>
      <point x="164" y="435"/>
      <point x="140" y="413"/>
      <point x="119" y="413" type="curve" smooth="yes"/>
      <point x="102.977" y="413"/>
      <point x="94.0657" y="425.09"/>
      <point x="94.0657" y="440.274" type="curve" smooth="yes"/>
      <point x="94.0657" y="443.095"/>
      <point x="94.3733" y="446.023"/>
    </contour>
  </outline>
</glyph>
<glyph name="cent" format="1">
  <advance width="556"/>
  <unicode hex="00A2"/>
  <outline>
    <contour>
      <point x="216" y="0" type="curve" smooth="yes"/>
      <point x="230" y="0"/>
      <point x="243" y="11"/>
      <point x="246" y="24" type="curve" smooth="yes"/>
      <point x="264" y="99" type="line"/>
      <point x="338" y="99"/>
      <point x="411" y="139"/>
      <point x="460" y="192" type="curve" smooth="yes"/>
      <point x="466" y="198"/>
      <point x="470" y="203"/>
      <point x="471" y="210" type="curve" smooth="yes"/>
      <point x="471.388" y="211.938"/>
      <point x="471.575" y="213.842"/>
      <point x="471.575" y="215.689" type="curve" smooth="yes"/>
      <point x="471.575" y="228.142"/>
      <point x="463.062" y="238"/>
      <point x="450" y="238" type="curve" smooth="yes"/>
      <point x="436" y="238"/>
      <point x="425" y="225"/>
      <point x="421" y="221" type="curve" smooth="yes"/>
      <point x="383" y="180"/>
      <point x="332" y="154"/>
      <point x="277" y="151" type="curve"/>
      <point x="371" y="546" type="line"/>
      <point x="408" y="543"/>
      <point x="438" y="524"/>
      <point x="454" y="492" type="curve"/>
      <point x="458" y="486"/>
      <point x="464" y="483"/>
      <point x="473" y="483" type="curve" smooth="yes"/>
      <point x="488.691" y="483"/>
      <point x="506.462" y="496.563"/>
      <point x="506.462" y="514.777" type="curve" smooth="yes"/>
      <point x="506.462" y="549.124"/>
      <point x="439.13" y="598.053"/>
      <point x="386.947" y="598.053" type="curve" smooth="yes"/>
      <point x="385.959" y="598.053"/>
      <point x="384.977" y="598.036"/>
      <point x="384" y="598" type="curve"/>
      <point x="400" y="665" type="line" smooth="yes"/>
      <point x="400.39" y="666.689"/>
      <point x="400.577" y="668.378"/>
      <point x="400.577" y="670.039" type="curve" smooth="yes"/>
      <point x="400.577" y="681.159"/>
      <point x="392.181" y="691"/>
      <point x="380" y="691" type="curve" smooth="yes"/>
      <point x="367" y="691"/>
      <point x="353" y="680"/>
      <point x="350" y="666" type="curve" smooth="yes"/>
      <point x="333" y="595" type="line"/>
      <point x="206" y="558"/>
      <point x="109" y="428"/>
      <point x="85" y="314" type="curve" smooth="yes"/>
      <point x="82.0395" y="300.255"/>
      <point x="80.0627" y="284.452"/>
      <point x="80.0627" y="267.746" type="curve" smooth="yes"/>
      <point x="80.0627" y="205.453"/>
      <point x="107.548" y="130.599"/>
      <point x="214" y="103" type="curve"/>
      <point x="196" y="26" type="line" smooth="yes"/>
      <point x="195.61" y="24.1811"/>
      <point x="195.423" y="22.3959"/>
      <point x="195.423" y="20.6664" type="curve" smooth="yes"/>
      <point x="195.423" y="9.0844"/>
      <point x="203.819" y="0"/>
    </contour>
    <contour>
      <point x="228" y="156" type="line"/>
      <point x="169.932" y="175.356"/>
      <point x="135.235" y="223.042"/>
      <point x="135.235" y="281.772" type="curve" smooth="yes"/>
      <point x="135.235" y="292.828"/>
      <point x="136.465" y="304.276"/>
      <point x="139" y="316" type="curve" smooth="yes"/>
      <point x="150" y="369"/>
      <point x="205" y="488"/>
      <point x="319" y="540" type="curve"/>
    </contour>
  </outline>
</glyph>
<glyph name="sterling" format="1">
  <advance width="744"/>
  <unicode hex="00A3"/>
  <outline>
    <contour>
      <point x="468" y="-10" type="curve" smooth="yes"/>
      <point x="514" y="-10"/>
      <point x="599" y="7"/>
      <point x="650" y="119" type="curve" smooth="yes"/>
      <point x="652.728" y="124.758"/>
      <point x="654.077" y="130.516"/>
      <point x="654.077" y="135.746" type="curve" smooth="yes"/>
      <point x="654.077" y="147.771"/>
      <point x="646.939" y="157"/>
      <point x="633" y="157" type="curve" smooth="yes"/>
      <point x="620" y="157"/>
      <point x="607" y="148"/>
      <point x="599" y="130" type="curve" smooth="yes"/>
      <point x="574" y="72"/>
      <point x="532" y="44"/>
      <point x="480" y="44" type="curve" smooth="yes"/>
      <point x="439" y="44"/>
      <point x="394" y="61"/>
      <point x="359" y="94" type="curve" smooth="yes"/>
      <point x="337" y="114"/>
      <point x="308" y="125"/>
      <point x="275" y="125" type="curve" smooth="yes"/>
      <point x="258" y="125"/>
      <point x="240" y="122"/>
      <point x="221" y="117" type="curve"/>
      <point x="241" y="145"/>
      <point x="254" y="183"/>
      <point x="260" y="211" type="curve" smooth="yes"/>
      <point x="263.24" y="225.76"/>
      <point x="264.277" y="240.261"/>
      <point x="264.277" y="254.456" type="curve" smooth="yes"/>
      <point x="264.277" y="279.691"/>
      <point x="261" y="303.96"/>
      <point x="261" y="327" type="curve"/>
      <point x="487" y="327" type="line" smooth="yes"/>
      <point x="502" y="327"/>
      <point x="517" y="340"/>
      <point x="520" y="354" type="curve" smooth="yes"/>
      <point x="520.359" y="355.797"/>
      <point x="520.532" y="357.551"/>
      <point x="520.532" y="359.246" type="curve" smooth="yes"/>
      <point x="520.532" y="371.703"/>
      <point x="511.203" y="381"/>
      <point x="498" y="381" type="curve" smooth="yes"/>
      <point x="262" y="381" type="line"/>
      <point x="263" y="418"/>
      <point x="268" y="452"/>
      <point x="274" y="482" type="curve" smooth="yes"/>
      <point x="302" y="615"/>
      <point x="372" y="672"/>
      <point x="513" y="672" type="curve" smooth="yes"/>
      <point x="586.431" y="672"/>
      <point x="632.063" y="624.07"/>
      <point x="632.063" y="542.288" type="curve" smooth="yes"/>
      <point x="632.063" y="539.714"/>
      <point x="631.924" y="536.997"/>
      <point x="631.924" y="534.472" type="curve" smooth="yes"/>
      <point x="631.924" y="519.013"/>
      <point x="640.709" y="510"/>
      <point x="654" y="510" type="curve" smooth="yes"/>
      <point x="674.244" y="510"/>
      <point x="687.054" y="525.798"/>
      <point x="687.054" y="544.853" type="curve" smooth="yes"/>
      <point x="687.054" y="624.226"/>
      <point x="655.564" y="726"/>
      <point x="525" y="726" type="curve" smooth="yes"/>
      <point x="355" y="726"/>
      <point x="254" y="644"/>
      <point x="220" y="482" type="curve" smooth="yes"/>
      <point x="213" y="451"/>
      <point x="209" y="417"/>
      <point x="207" y="381" type="curve"/>
      <point x="116" y="381" type="line" smooth="yes"/>
      <point x="101" y="381"/>
      <point x="87" y="369"/>
      <point x="84" y="354" type="curve" smooth="yes"/>
      <point x="83.6125" y="352.192"/>
      <point x="83.4252" y="350.4"/>
      <point x="83.4252" y="348.651" type="curve" smooth="yes"/>
      <point x="83.4252" y="336.858"/>
      <point x="91.9376" y="327"/>
      <point x="105" y="327" type="curve" smooth="yes"/>
      <point x="206" y="327" type="line"/>
      <point x="206.645" y="305.707"/>
      <point x="209.788" y="279.419"/>
      <point x="209.788" y="253.238" type="curve" smooth="yes"/>
      <point x="209.788" y="238.844"/>
      <point x="208.838" y="224.481"/>
      <point x="206" y="211" type="curve" smooth="yes"/>
      <point x="195" y="159"/>
      <point x="155" y="91"/>
      <point x="92" y="49" type="curve" smooth="yes"/>
      <point x="84" y="44"/>
      <point x="78" y="36"/>
      <point x="76" y="27" type="curve" smooth="yes"/>
      <point x="75.6406" y="25.203"/>
      <point x="75.4678" y="23.449"/>
      <point x="75.4678" y="21.7536" type="curve" smooth="yes"/>
      <point x="75.4678" y="9.29701"/>
      <point x="84.797" y="0"/>
      <point x="98" y="0" type="curve" smooth="yes"/>
      <point x="117" y="0"/>
      <point x="188" y="71"/>
      <point x="264" y="71" type="curve" smooth="yes"/>
      <point x="283" y="71"/>
      <point x="301" y="65"/>
      <point x="317" y="51" type="curve" smooth="yes"/>
      <point x="362" y="11"/>
      <point x="416" y="-10"/>
    </contour>
  </outline>
</glyph>
<glyph name="currency" format="1">
  <advance width="517"/>
  <unicode hex="00A4"/>
  <outline>
    <contour>
      <point x="30" y="44" type="curve" smooth="yes"/>
      <point x="37" y="44"/>
      <point x="44" y="47"/>
      <point x="50" y="52" type="curve" smooth="yes"/>
      <point x="135" y="122" type="line"/>
      <point x="157" y="103"/>
      <point x="188" y="91"/>
      <point x="223" y="91" type="curve" smooth="yes"/>
      <point x="259" y="91"/>
      <point x="293" y="103"/>
      <point x="324" y="122" type="curve"/>
      <point x="380" y="52" type="line"/>
      <point x="383" y="47"/>
      <point x="390" y="44"/>
      <point x="396" y="44" type="curve" smooth="yes"/>
      <point x="411" y="44"/>
      <point x="424" y="57"/>
      <point x="426" y="70" type="curve"/>
      <point x="428" y="76"/>
      <point x="427" y="83"/>
      <point x="423" y="88" type="curve" smooth="yes"/>
      <point x="368" y="159" type="line"/>
      <point x="392" y="185"/>
      <point x="410" y="217"/>
      <point x="417" y="251" type="curve" smooth="yes"/>
      <point x="419.152" y="261.76"/>
      <point x="420.17" y="272.33"/>
      <point x="420.17" y="282.567" type="curve" smooth="yes"/>
      <point x="420.17" y="305.628"/>
      <point x="415.004" y="326.993"/>
      <point x="406" y="345" type="curve"/>
      <point x="493" y="418" type="line" smooth="yes"/>
      <point x="499" y="423"/>
      <point x="503" y="429"/>
      <point x="504" y="436" type="curve" smooth="yes"/>
      <point x="504.39" y="437.689"/>
      <point x="504.577" y="439.361"/>
      <point x="504.577" y="440.992" type="curve" smooth="yes"/>
      <point x="504.577" y="451.916"/>
      <point x="496.181" y="461"/>
      <point x="484" y="461" type="curve" smooth="yes"/>
      <point x="477" y="461"/>
      <point x="471" y="459"/>
      <point x="465" y="454" type="curve" smooth="yes"/>
      <point x="377" y="381" type="line"/>
      <point x="356" y="400"/>
      <point x="326" y="410"/>
      <point x="291" y="410" type="curve" smooth="yes"/>
      <point x="257" y="410"/>
      <point x="223" y="400"/>
      <point x="192" y="381" type="curve"/>
      <point x="135" y="454" type="line" smooth="yes"/>
      <point x="131" y="459"/>
      <point x="125" y="461"/>
      <point x="118" y="461" type="curve" smooth="yes"/>
      <point x="104" y="461"/>
      <point x="90" y="450"/>
      <point x="87" y="436" type="curve" smooth="yes"/>
      <point x="86" y="429"/>
      <point x="87" y="423"/>
      <point x="91" y="418" type="curve" smooth="yes"/>
      <point x="149" y="345" type="line"/>
      <point x="123" y="319"/>
      <point x="105" y="286"/>
      <point x="98" y="251" type="curve" smooth="yes"/>
      <point x="95.6667" y="239.667"/>
      <point x="94.5556" y="228.556"/>
      <point x="94.5556" y="217.815" type="curve" smooth="yes"/>
      <point x="94.5556" y="196.333"/>
      <point x="99" y="176.333"/>
      <point x="107" y="159" type="curve"/>
      <point x="21" y="88" type="line" smooth="yes"/>
      <point x="14.3351" y="82.4459"/>
      <point x="8.50198" y="74.5214"/>
      <point x="8.50198" y="65.3622" type="curve" smooth="yes"/>
      <point x="8.50198" y="53.4503"/>
      <point x="18.4635" y="44"/>
    </contour>
    <contour>
      <point x="234" y="142" type="curve" smooth="yes"/>
      <point x="182.683" y="142"/>
      <point x="146.496" y="179.07"/>
      <point x="146.496" y="228.204" type="curve" smooth="yes"/>
      <point x="146.496" y="235.56"/>
      <point x="147.307" y="243.187"/>
      <point x="149" y="251" type="curve" smooth="yes"/>
      <point x="162" y="311"/>
      <point x="221" y="359"/>
      <point x="280" y="359" type="curve" smooth="yes"/>
      <point x="332.198" y="359"/>
      <point x="368.502" y="322.672"/>
      <point x="368.502" y="273.719" type="curve" smooth="yes"/>
      <point x="368.502" y="266.402"/>
      <point x="367.691" y="258.802"/>
      <point x="366" y="251" type="curve" smooth="yes"/>
      <point x="353" y="191"/>
      <point x="294" y="142"/>
    </contour>
  </outline>
</glyph>
<glyph name="yen" format="1">
  <advance width="573"/>
  <unicode hex="00A5"/>
  <outline>
    <contour>
      <point x="220" y="0" type="curve" smooth="yes"/>
      <point x="236" y="0"/>
      <point x="250" y="13"/>
      <point x="253" y="28" type="curve" smooth="yes"/>
      <point x="276" y="134" type="line"/>
      <point x="393" y="134" type="line" smooth="yes"/>
      <point x="408" y="134"/>
      <point x="423" y="146"/>
      <point x="426" y="161" type="curve" smooth="yes"/>
      <point x="426.359" y="162.797"/>
      <point x="426.532" y="164.551"/>
      <point x="426.532" y="166.246" type="curve" smooth="yes"/>
      <point x="426.532" y="178.703"/>
      <point x="417.203" y="188"/>
      <point x="404" y="188" type="curve" smooth="yes"/>
      <point x="287" y="188" type="line"/>
      <point x="309" y="288" type="line"/>
      <point x="426" y="288" type="line" smooth="yes"/>
      <point x="441" y="288"/>
      <point x="455" y="300"/>
      <point x="458" y="315" type="curve" smooth="yes"/>
      <point x="458.6" y="317.251"/>
      <point x="458.885" y="319.435"/>
      <point x="458.885" y="321.521" type="curve" smooth="yes"/>
      <point x="458.885" y="333.332"/>
      <point x="449.749" y="342"/>
      <point x="437" y="342" type="curve" smooth="yes"/>
      <point x="343" y="342" type="line"/>
      <point x="578" y="652" type="line" smooth="yes"/>
      <point x="581" y="656"/>
      <point x="583" y="661"/>
      <point x="584" y="665" type="curve" smooth="yes"/>
      <point x="584.335" y="666.785"/>
      <point x="584.495" y="668.534"/>
      <point x="584.495" y="670.23" type="curve" smooth="yes"/>
      <point x="584.495" y="683.739"/>
      <point x="574.326" y="694"/>
      <point x="561" y="694" type="curve" smooth="yes"/>
      <point x="552" y="694"/>
      <point x="541" y="688"/>
      <point x="534" y="679" type="curve" smooth="yes"/>
      <point x="299" y="368" type="line"/>
      <point x="210" y="677" type="line"/>
      <point x="208" y="687"/>
      <point x="200" y="692"/>
      <point x="190" y="692" type="curve" smooth="yes"/>
      <point x="173" y="692"/>
      <point x="158" y="678"/>
      <point x="155" y="664" type="curve" smooth="yes"/>
      <point x="154" y="660"/>
      <point x="154" y="656"/>
      <point x="155" y="652" type="curve" smooth="yes"/>
      <point x="243" y="342" type="line"/>
      <point x="148" y="342" type="line" smooth="yes"/>
      <point x="133" y="342"/>
      <point x="119" y="330"/>
      <point x="115" y="315" type="curve" smooth="yes"/>
      <point x="114.641" y="313.203"/>
      <point x="114.468" y="311.449"/>
      <point x="114.468" y="309.754" type="curve" smooth="yes"/>
      <point x="114.468" y="297.297"/>
      <point x="123.797" y="288"/>
      <point x="137" y="288" type="curve" smooth="yes"/>
      <point x="253" y="288" type="line"/>
      <point x="231" y="188" type="line"/>
      <point x="115" y="188" type="line" smooth="yes"/>
      <point x="100" y="188"/>
      <point x="86" y="176"/>
      <point x="83" y="161" type="curve" smooth="yes"/>
      <point x="82.6125" y="159.062"/>
      <point x="82.4252" y="157.175"/>
      <point x="82.4252" y="155.357" type="curve" smooth="yes"/>
      <point x="82.4252" y="143.1"/>
      <point x="90.9376" y="134"/>
      <point x="104" y="134" type="curve" smooth="yes"/>
      <point x="220" y="134" type="line"/>
      <point x="197" y="28" type="line" smooth="yes"/>
      <point x="194" y="13"/>
      <point x="205" y="0"/>
    </contour>
  </outline>
</glyph>
<glyph name="section" format="1">
  <advance width="457"/>
  <unicode hex="00A7"/>
  <outline>
    <contour>
      <point x="463" y="284" type="curve" smooth="yes"/>
      <point x="458" y="262"/>
      <point x="446" y="239"/>
      <point x="428" y="218" type="curve"/>
      <point x="434.023" y="206.556"/>
      <point x="437.144" y="192.935"/>
      <point x="437.144" y="176.7" type="curve" smooth="yes"/>
      <point x="437.144" y="165.981"/>
      <point x="435.784" y="154.123"/>
      <point x="433" y="141" type="curve" smooth="yes"/>
      <point x="419" y="74"/>
      <point x="338" y="0"/>
      <point x="233" y="0" type="curve" smooth="yes"/>
      <point x="119.082" y="-1.42109e-14"/>
      <point x="77.2171" y="82.347"/>
      <point x="77.2171" y="121.518" type="curve" smooth="yes"/>
      <point x="77.2171" y="124.641"/>
      <point x="77.4832" y="127.49"/>
      <point x="78" y="130" type="curve" smooth="yes"/>
      <point x="81" y="145"/>
      <point x="96" y="157"/>
      <point x="111" y="157" type="curve" smooth="yes"/>
      <point x="124" y="157"/>
      <point x="131" y="149"/>
      <point x="132" y="138" type="curve" smooth="yes"/>
      <point x="139" y="85"/>
      <point x="180" y="53"/>
      <point x="244" y="53" type="curve" smooth="yes"/>
      <point x="333" y="53"/>
      <point x="374" y="110"/>
      <point x="382" y="147" type="curve" smooth="yes"/>
      <point x="383.188" y="152.94"/>
      <point x="383.869" y="158.527"/>
      <point x="383.869" y="163.834" type="curve" smooth="yes"/>
      <point x="383.869" y="194.26"/>
      <point x="361.486" y="215.455"/>
      <point x="284" y="241" type="curve" smooth="yes"/>
      <point x="198.646" y="268.589"/>
      <point x="157.891" y="300.639"/>
      <point x="157.891" y="354.452" type="curve" smooth="yes"/>
      <point x="157.891" y="363.055"/>
      <point x="158.932" y="372.214"/>
      <point x="161" y="382" type="curve" smooth="yes"/>
      <point x="167" y="412"/>
      <point x="182" y="434"/>
      <point x="201" y="452" type="curve"/>
      <point x="191.96" y="465.907"/>
      <point x="187.272" y="481.748"/>
      <point x="187.272" y="499.86" type="curve" smooth="yes"/>
      <point x="187.272" y="507.795"/>
      <point x="188.172" y="516.165"/>
      <point x="190" y="525" type="curve" smooth="yes"/>
      <point x="210" y="620"/>
      <point x="314" y="644"/>
      <point x="385" y="644" type="curve" smooth="yes"/>
      <point x="473.981" y="644"/>
      <point x="519.497" y="609.849"/>
      <point x="519.497" y="555.223" type="curve" smooth="yes"/>
      <point x="519.497" y="547.845"/>
      <point x="518.666" y="540.092"/>
      <point x="517" y="532" type="curve" smooth="yes"/>
      <point x="510" y="502"/>
      <point x="499" y="486"/>
      <point x="479" y="486" type="curve" smooth="yes"/>
      <point x="463.921" y="486"/>
      <point x="457.263" y="495.123"/>
      <point x="457.263" y="506.315" type="curve" smooth="yes"/>
      <point x="457.263" y="508.483"/>
      <point x="457.513" y="510.728"/>
      <point x="458" y="513" type="curve" smooth="yes"/>
      <point x="458" y="516"/>
      <point x="462" y="524"/>
      <point x="464" y="533" type="curve" smooth="yes"/>
      <point x="464.951" y="537.398"/>
      <point x="465.436" y="541.612"/>
      <point x="465.436" y="545.624" type="curve" smooth="yes"/>
      <point x="465.436" y="575.366"/>
      <point x="438.799" y="594"/>
      <point x="378" y="594" type="curve" smooth="yes"/>
      <point x="307" y="594"/>
      <point x="251" y="569"/>
      <point x="242" y="524" type="curve" smooth="yes"/>
      <point x="240.982" y="519.164"/>
      <point x="240.504" y="514.601"/>
      <point x="240.504" y="510.293" type="curve" smooth="yes"/>
      <point x="240.504" y="463.826"/>
      <point x="296.139" y="446.982"/>
      <point x="330" y="436" type="curve" smooth="yes"/>
      <point x="406.091" y="409.762"/>
      <point x="466.883" y="389.643"/>
      <point x="466.883" y="318.108" type="curve" smooth="yes"/>
      <point x="466.883" y="307.852"/>
      <point x="465.633" y="296.539"/>
    </contour>
    <contour>
      <point x="212" y="381" type="curve"/>
      <point x="210.982" y="376.167"/>
      <point x="210.504" y="371.607"/>
      <point x="210.504" y="367.301" type="curve" smooth="yes"/>
      <point x="210.504" y="320.828"/>
      <point x="266.222" y="303.982"/>
      <point x="301" y="293" type="curve" smooth="yes"/>
      <point x="337" y="281"/>
      <point x="371" y="269"/>
      <point x="395" y="253" type="curve"/>
      <point x="404" y="265"/>
      <point x="408" y="277"/>
      <point x="411" y="291" type="curve" smooth="yes"/>
      <point x="412.26" y="296.72"/>
      <point x="412.863" y="302.017"/>
      <point x="412.863" y="306.943" type="curve" smooth="yes"/>
      <point x="412.863" y="352.818"/>
      <point x="360.601" y="366.424"/>
      <point x="301" y="389" type="curve" smooth="yes"/>
      <point x="280" y="397"/>
      <point x="257" y="406"/>
      <point x="236" y="419" type="curve"/>
      <point x="223" y="408"/>
      <point x="216" y="396"/>
    </contour>
  </outline>
</glyph>
<glyph name="copyright" format="1">
  <advance width="544"/>
  <unicode hex="00A9"/>
  <outline>
    <contour>
      <point x="267" y="236" type="curve" smooth="yes"/>
      <point x="389" y="236"/>
      <point x="510" y="338"/>
      <point x="537" y="463" type="curve" smooth="yes"/>
      <point x="540.376" y="479.233"/>
      <point x="541.999" y="495.078"/>
      <point x="541.999" y="510.363" type="curve" smooth="yes"/>
      <point x="541.999" y="612.772"/>
      <point x="469.156" y="690"/>
      <point x="363" y="690" type="curve" smooth="yes"/>
      <point x="241" y="690"/>
      <point x="119" y="588"/>
      <point x="93" y="463" type="curve" smooth="yes"/>
      <point x="89.4203" y="446.427"/>
      <point x="87.7038" y="430.259"/>
      <point x="87.7038" y="414.679" type="curve" smooth="yes"/>
      <point x="87.7038" y="312.746"/>
      <point x="161.175" y="236"/>
    </contour>
    <contour>
      <point x="282" y="348" type="curve" smooth="yes"/>
      <point x="340" y="348"/>
      <point x="381" y="376"/>
      <point x="406" y="403" type="curve"/>
      <point x="413" y="412"/>
      <point x="415" y="416"/>
      <point x="416" y="420" type="curve" smooth="yes"/>
      <point x="416.426" y="421.844"/>
      <point x="416.63" y="423.628"/>
      <point x="416.63" y="425.331" type="curve" smooth="yes"/>
      <point x="416.63" y="435.636"/>
      <point x="409.156" y="443"/>
      <point x="398" y="443" type="curve" smooth="yes"/>
      <point x="390" y="443"/>
      <point x="381" y="439"/>
      <point x="371" y="427" type="curve"/>
      <point x="356" y="405"/>
      <point x="321" y="394"/>
      <point x="292" y="394" type="curve" smooth="yes"/>
      <point x="262.048" y="394"/>
      <point x="234.424" y="415.73"/>
      <point x="234.424" y="449.618" type="curve" smooth="yes"/>
      <point x="234.424" y="454.198"/>
      <point x="234.928" y="459"/>
      <point x="236" y="464" type="curve" smooth="yes"/>
      <point x="241" y="489"/>
      <point x="261" y="545"/>
      <point x="334" y="545" type="curve" smooth="yes"/>
      <point x="354" y="545"/>
      <point x="369" y="536"/>
      <point x="378" y="528" type="curve" smooth="yes"/>
      <point x="383" y="523"/>
      <point x="387" y="521"/>
      <point x="393" y="521" type="curve" smooth="yes"/>
      <point x="406" y="521"/>
      <point x="418" y="531"/>
      <point x="421" y="544" type="curve" smooth="yes"/>
      <point x="423" y="552"/>
      <point x="420" y="558"/>
      <point x="414" y="565" type="curve"/>
      <point x="399" y="577"/>
      <point x="376" y="591"/>
      <point x="344" y="591" type="curve" smooth="yes"/>
      <point x="267" y="591"/>
      <point x="205" y="541"/>
      <point x="189" y="464" type="curve" smooth="yes"/>
      <point x="187.405" y="456.27"/>
      <point x="186.638" y="448.691"/>
      <point x="186.638" y="441.341" type="curve" smooth="yes"/>
      <point x="186.638" y="388.792"/>
      <point x="225.853" y="348"/>
    </contour>
    <contour>
      <point x="276" y="282" type="curve" smooth="yes"/>
      <point x="191.902" y="282"/>
      <point x="134.864" y="342.885"/>
      <point x="134.864" y="424.251" type="curve" smooth="yes"/>
      <point x="134.864" y="436.734"/>
      <point x="136.207" y="449.699"/>
      <point x="139" y="463" type="curve" smooth="yes"/>
      <point x="160" y="563"/>
      <point x="256" y="644"/>
      <point x="353" y="644" type="curve" smooth="yes"/>
      <point x="437.244" y="644"/>
      <point x="495.088" y="582.903"/>
      <point x="495.088" y="501.325" type="curve" smooth="yes"/>
      <point x="495.088" y="488.973"/>
      <point x="493.762" y="476.151"/>
      <point x="491" y="463" type="curve" smooth="yes"/>
      <point x="470" y="363"/>
      <point x="373" y="282"/>
    </contour>
  </outline>
</glyph>
<glyph name="ordfeminine" format="1">
  <advance width="250"/>
  <unicode hex="00AA"/>
  <outline>
    <contour>
      <point x="242" y="342" type="curve" smooth="yes"/>
      <point x="255" y="342"/>
      <point x="270" y="354"/>
      <point x="273" y="367" type="curve" smooth="yes"/>
      <point x="329" y="639" type="line"/>
      <point x="317" y="651"/>
      <point x="277" y="668"/>
      <point x="233" y="668" type="curve" smooth="yes"/>
      <point x="138" y="668"/>
      <point x="65" y="569"/>
      <point x="47" y="483" type="curve" smooth="yes"/>
      <point x="44.5041" y="470.832"/>
      <point x="43.2979" y="459.152"/>
      <point x="43.2979" y="448.102" type="curve" smooth="yes"/>
      <point x="43.2979" y="388.316"/>
      <point x="78.6076" y="347"/>
      <point x="136" y="347" type="curve" smooth="yes"/>
      <point x="175" y="347"/>
      <point x="196" y="358"/>
      <point x="223" y="369" type="curve"/>
      <point x="222.608" y="367.04"/>
      <point x="222.421" y="365.13"/>
      <point x="222.421" y="363.293" type="curve" smooth="yes"/>
      <point x="222.421" y="351.068"/>
      <point x="230.699" y="342"/>
    </contour>
    <contour>
      <point x="148" y="396" type="curve" smooth="yes"/>
      <point x="109.436" y="396"/>
      <point x="95.0283" y="426.351"/>
      <point x="95.0283" y="458.779" type="curve" smooth="yes"/>
      <point x="95.0283" y="467.554"/>
      <point x="96.0833" y="476.481"/>
      <point x="98" y="485" type="curve" smooth="yes"/>
      <point x="109" y="540"/>
      <point x="155" y="618"/>
      <point x="227" y="618" type="curve" smooth="yes"/>
      <point x="244" y="618"/>
      <point x="268" y="614"/>
      <point x="276" y="609" type="curve"/>
      <point x="234" y="427" type="line"/>
      <point x="224" y="421"/>
      <point x="185" y="396"/>
    </contour>
  </outline>
</glyph>
<glyph name="logicalnot" format="1">
  <advance width="480"/>
  <unicode hex="00AC"/>
  <outline>
    <contour>
      <point x="365" y="125" type="curve" smooth="yes"/>
      <point x="379" y="125"/>
      <point x="392" y="136"/>
      <point x="395" y="150" type="curve" smooth="yes"/>
      <point x="429" y="303" type="line" smooth="yes"/>
      <point x="429.338" y="304.801"/>
      <point x="429.498" y="306.526"/>
      <point x="429.498" y="308.17" type="curve" smooth="yes"/>
      <point x="429.498" y="321.125"/>
      <point x="419.537" y="329"/>
      <point x="408" y="329" type="curve" smooth="yes"/>
      <point x="79" y="329" type="line" smooth="yes"/>
      <point x="65" y="329"/>
      <point x="52" y="317"/>
      <point x="49" y="303" type="curve" smooth="yes"/>
      <point x="48.6102" y="301.181"/>
      <point x="48.423" y="299.413"/>
      <point x="48.423" y="297.713" type="curve" smooth="yes"/>
      <point x="48.423" y="286.327"/>
      <point x="56.8189" y="278"/>
      <point x="69" y="278" type="curve" smooth="yes"/>
      <point x="373" y="278" type="line"/>
      <point x="344" y="150" type="line" smooth="yes"/>
      <point x="343.639" y="148.314"/>
      <point x="343.466" y="146.672"/>
      <point x="343.466" y="145.088" type="curve" smooth="yes"/>
      <point x="343.466" y="133.511"/>
      <point x="352.686" y="125"/>
    </contour>
  </outline>
</glyph>
<glyph name="uni00AD" format="1">
  <advance width="441"/>
  <unicode hex="00AD"/>
  <outline>
    <contour>
      <point x="337" y="223" type="curve" smooth="yes"/>
      <point x="90" y="223" type="line" smooth="yes"/>
      <point x="77.6856" y="223"/>
      <point x="68.466" y="233.058"/>
      <point x="68.466" y="245.008" type="curve" smooth="yes"/>
      <point x="68.466" y="246.643"/>
      <point x="68.6388" y="248.314"/>
      <point x="69" y="250" type="curve" smooth="yes"/>
      <point x="72" y="265"/>
      <point x="87" y="277"/>
      <point x="101" y="277" type="curve" smooth="yes"/>
      <point x="348" y="277" type="line" smooth="yes"/>
      <point x="361.203" y="277"/>
      <point x="370.532" y="267.703"/>
      <point x="370.532" y="255.246" type="curve" smooth="yes"/>
      <point x="370.532" y="253.551"/>
      <point x="370.359" y="251.797"/>
      <point x="370" y="250" type="curve" smooth="yes"/>
      <point x="367" y="236"/>
      <point x="352" y="223"/>
    </contour>
  </outline>
</glyph>
<glyph name="macron" format="1">
  <advance width="500"/>
  <unicode hex="00AF"/>
  <outline>
    <contour>
      <point x="217" y="600" type="curve" smooth="yes"/>
      <point x="426" y="600" type="line" smooth="yes"/>
      <point x="440" y="600"/>
      <point x="454" y="612"/>
      <point x="457" y="626" type="curve" smooth="yes"/>
      <point x="457.39" y="627.819"/>
      <point x="457.577" y="629.587"/>
      <point x="457.577" y="631.287" type="curve" smooth="yes"/>
      <point x="457.577" y="642.673"/>
      <point x="449.181" y="651"/>
      <point x="437" y="651" type="curve" smooth="yes"/>
      <point x="228" y="651" type="line" smooth="yes"/>
      <point x="214" y="651"/>
      <point x="201" y="640"/>
      <point x="198" y="626" type="curve" smooth="yes"/>
      <point x="197.577" y="624.028"/>
      <point x="197.373" y="622.095"/>
      <point x="197.373" y="620.23" type="curve" smooth="yes"/>
      <point x="197.373" y="608.857"/>
      <point x="204.972" y="600"/>
    </contour>
  </outline>
</glyph>
<glyph name="plusminus" format="1">
  <advance width="441"/>
  <unicode hex="00B1"/>
  <outline>
    <contour>
      <point x="65" y="296" type="curve"/>
      <point x="68" y="310"/>
      <point x="83" y="323"/>
      <point x="97" y="323" type="curve" smooth="yes"/>
      <point x="206" y="323" type="line"/>
      <point x="227" y="421" type="line" smooth="yes"/>
      <point x="230" y="434"/>
      <point x="243" y="447"/>
      <point x="260" y="447" type="curve" smooth="yes"/>
      <point x="272.901" y="447"/>
      <point x="280.624" y="437.383"/>
      <point x="280.624" y="426.421" type="curve" smooth="yes"/>
      <point x="280.624" y="424.638"/>
      <point x="280.42" y="422.819"/>
      <point x="280" y="421" type="curve" smooth="yes"/>
      <point x="259" y="323" type="line"/>
      <point x="369" y="323" type="line" smooth="yes"/>
      <point x="380.153" y="323"/>
      <point x="389.834" y="314.168"/>
      <point x="389.834" y="302.186" type="curve" smooth="yes"/>
      <point x="389.834" y="300.202"/>
      <point x="389.568" y="298.131"/>
      <point x="389" y="296" type="curve" smooth="yes"/>
      <point x="386" y="282"/>
      <point x="371" y="270"/>
      <point x="358" y="270" type="curve" smooth="yes"/>
      <point x="248" y="270" type="line"/>
      <point x="225" y="162" type="line" smooth="yes"/>
      <point x="222" y="148"/>
      <point x="206" y="136"/>
      <point x="193" y="136" type="curve" smooth="yes"/>
      <point x="179.938" y="136"/>
      <point x="171.425" y="145.858"/>
      <point x="171.425" y="156.99" type="curve" smooth="yes"/>
      <point x="171.425" y="158.642"/>
      <point x="171.612" y="160.321"/>
      <point x="172" y="162" type="curve" smooth="yes"/>
      <point x="195" y="270" type="line"/>
      <point x="86" y="270" type="line" smooth="yes"/>
      <point x="71" y="270"/>
      <point x="64" y="283"/>
    </contour>
    <contour>
      <point x="24" y="26" type="curve" smooth="yes"/>
      <point x="27" y="41"/>
      <point x="43" y="52"/>
      <point x="56" y="52" type="curve" smooth="yes"/>
      <point x="295" y="52" type="line" smooth="yes"/>
      <point x="307.181" y="52"/>
      <point x="315.577" y="42.9156"/>
      <point x="315.577" y="31.3336" type="curve" smooth="yes"/>
      <point x="315.577" y="29.6041"/>
      <point x="315.39" y="27.8189"/>
      <point x="315" y="26" type="curve" smooth="yes"/>
      <point x="312" y="10"/>
      <point x="297" y="-1"/>
      <point x="283" y="-1" type="curve" smooth="yes"/>
      <point x="44" y="-1" type="line" smooth="yes"/>
      <point x="32.8471" y="-1"/>
      <point x="23.1662" y="6.36025"/>
      <point x="23.1662" y="19.1864" type="curve" smooth="yes"/>
      <point x="23.1662" y="21.3106"/>
      <point x="23.4317" y="23.5846"/>
    </contour>
  </outline>
</glyph>
<glyph name="twosuperior" format="1">
  <advance width="240"/>
  <unicode hex="00B2"/>
  <outline>
    <contour>
      <point x="42" y="443" type="line"/>
      <point x="251" y="443" type="line" smooth="yes"/>
      <point x="262" y="443"/>
      <point x="276" y="454"/>
      <point x="279" y="466" type="curve" smooth="yes"/>
      <point x="279.342" y="467.712"/>
      <point x="279.502" y="469.345"/>
      <point x="279.502" y="470.897" type="curve" smooth="yes"/>
      <point x="279.502" y="482.937"/>
      <point x="269.859" y="490"/>
      <point x="261" y="490" type="curve" smooth="yes"/>
      <point x="100" y="490" type="line"/>
      <point x="110" y="541"/>
      <point x="168" y="580"/>
      <point x="215" y="606" type="curve" smooth="yes"/>
      <point x="264" y="632"/>
      <point x="316" y="664"/>
      <point x="329" y="727" type="curve" smooth="yes"/>
      <point x="330.503" y="734.283"/>
      <point x="331.217" y="741.206"/>
      <point x="331.217" y="747.753" type="curve" smooth="yes"/>
      <point x="331.217" y="797.843"/>
      <point x="289.41" y="826"/>
      <point x="239" y="826" type="curve" smooth="yes"/>
      <point x="185" y="826"/>
      <point x="133" y="788"/>
      <point x="114" y="769" type="curve" smooth="yes"/>
      <point x="108" y="763"/>
      <point x="106" y="759"/>
      <point x="105" y="753" type="curve" smooth="yes"/>
      <point x="104.633" y="751.655"/>
      <point x="104.461" y="750.295"/>
      <point x="104.461" y="748.943" type="curve" smooth="yes"/>
      <point x="104.461" y="739.245"/>
      <point x="113.345" y="730"/>
      <point x="123" y="730" type="curve" smooth="yes"/>
      <point x="134" y="730"/>
      <point x="139" y="735"/>
      <point x="153" y="748" type="curve" smooth="yes"/>
      <point x="166" y="759"/>
      <point x="195" y="780"/>
      <point x="230" y="780" type="curve" smooth="yes"/>
      <point x="264.428" y="780"/>
      <point x="284.049" y="760.518"/>
      <point x="284.049" y="736.689" type="curve" smooth="yes"/>
      <point x="284.049" y="733.524"/>
      <point x="283.703" y="730.283"/>
      <point x="283" y="727" type="curve" smooth="yes"/>
      <point x="277" y="698"/>
      <point x="257" y="678"/>
      <point x="229" y="663" type="curve" smooth="yes"/>
      <point x="122" y="603"/>
      <point x="68" y="565"/>
      <point x="47" y="466" type="curve" smooth="yes"/>
    </contour>
  </outline>
</glyph>
<glyph name="acute" format="1">
  <advance width="500"/>
  <unicode hex="00B4"/>
  <outline>
    <contour>
      <point x="242" y="563" type="curve" smooth="yes"/>
      <point x="248" y="563"/>
      <point x="257" y="567"/>
      <point x="265" y="572" type="curve" smooth="yes"/>
      <point x="423" y="666" type="line" smooth="yes"/>
      <point x="431" y="671"/>
      <point x="436" y="680"/>
      <point x="438" y="689" type="curve" smooth="yes"/>
      <point x="438.551" y="691.755"/>
      <point x="438.817" y="694.435"/>
      <point x="438.817" y="697.007" type="curve" smooth="yes"/>
      <point x="438.817" y="713.105"/>
      <point x="428.383" y="725"/>
      <point x="412" y="725" type="curve" smooth="yes"/>
      <point x="401" y="725"/>
      <point x="389" y="717"/>
      <point x="379" y="710" type="curve" smooth="yes"/>
      <point x="232" y="607" type="line" smooth="yes"/>
      <point x="226" y="603"/>
      <point x="223" y="596"/>
      <point x="222" y="590" type="curve" smooth="yes"/>
      <point x="221.61" y="588.051"/>
      <point x="221.423" y="586.153"/>
      <point x="221.423" y="584.325" type="curve" smooth="yes"/>
      <point x="221.423" y="572.084"/>
      <point x="229.819" y="563"/>
    </contour>
  </outline>
</glyph>
<glyph name="mu" format="1">
  <advance width="500"/>
  <unicode hex="00B5"/>
  <outline>
    <contour>
      <point x="32" y="-181" type="curve" smooth="yes"/>
      <point x="52" y="-181"/>
      <point x="65" y="-164"/>
      <point x="65" y="-149" type="curve" smooth="yes"/>
      <point x="67" y="-101"/>
      <point x="74" y="-26"/>
      <point x="80" y="18" type="curve"/>
      <point x="80" y="18"/>
      <point x="108" y="-3"/>
      <point x="160" y="-3" type="curve" smooth="yes"/>
      <point x="237" y="-3"/>
      <point x="313" y="40"/>
      <point x="346" y="76" type="curve"/>
      <point x="337" y="33" type="line" smooth="yes"/>
      <point x="336.373" y="30.1798"/>
      <point x="336.066" y="27.4332"/>
      <point x="336.066" y="24.8064" type="curve" smooth="yes"/>
      <point x="336.066" y="10.6679"/>
      <point x="344.977" y="0"/>
      <point x="361" y="0" type="curve" smooth="yes"/>
      <point x="377" y="0"/>
      <point x="393" y="13"/>
      <point x="396" y="28" type="curve" smooth="yes"/>
      <point x="491" y="475" type="line"/>
      <point x="491.604" y="477.265"/>
      <point x="491.889" y="479.416"/>
      <point x="491.889" y="481.436" type="curve" smooth="yes"/>
      <point x="491.889" y="492.792"/>
      <point x="482.886" y="500"/>
      <point x="471" y="500" type="curve" smooth="yes"/>
      <point x="457" y="500"/>
      <point x="443" y="490"/>
      <point x="439" y="475" type="curve" smooth="yes"/>
      <point x="368" y="161" type="line"/>
      <point x="368" y="161"/>
      <point x="362" y="133"/>
      <point x="346" y="118" type="curve" smooth="yes"/>
      <point x="319" y="94"/>
      <point x="239" y="46"/>
      <point x="170" y="46" type="curve" smooth="yes"/>
      <point x="121.774" y="46"/>
      <point x="101.167" y="67.8035"/>
      <point x="101.167" y="125.868" type="curve" smooth="yes"/>
      <point x="101.167" y="164.126"/>
      <point x="110.113" y="218.124"/>
      <point x="126" y="292" type="curve" smooth="yes"/>
      <point x="145" y="384"/>
      <point x="170" y="450"/>
      <point x="177" y="474" type="curve" smooth="yes"/>
      <point x="177.562" y="476.109"/>
      <point x="177.828" y="478.138"/>
      <point x="177.828" y="480.069" type="curve" smooth="yes"/>
      <point x="177.828" y="491.875"/>
      <point x="167.891" y="500"/>
      <point x="155" y="500" type="curve" smooth="yes"/>
      <point x="141" y="500"/>
      <point x="131" y="495"/>
      <point x="121" y="466" type="curve" smooth="yes"/>
      <point x="107" y="428"/>
      <point x="78" y="333"/>
      <point x="64" y="256" type="curve" smooth="yes"/>
      <point x="46" y="158"/>
      <point x="30" y="41"/>
      <point x="25" y="0" type="curve"/>
      <point x="13" y="-83"/>
      <point x="12" y="-122"/>
      <point x="10" y="-159" type="curve"/>
      <point x="10" y="-172"/>
      <point x="19" y="-181"/>
    </contour>
  </outline>
</glyph>
<glyph name="paragraph" format="1">
  <advance width="559"/>
  <unicode hex="00B6"/>
  <outline>
    <contour>
      <point x="578" y="714" type="curve"/>
      <point x="527" y="440"/>
      <point x="442" y="182"/>
      <point x="345" y="-57" type="curve" smooth="yes"/>
      <point x="340" y="-70"/>
      <point x="327" y="-79"/>
      <point x="314" y="-79" type="curve" smooth="yes"/>
      <point x="301.367" y="-79"/>
      <point x="291.851" y="-70.2722"/>
      <point x="291.851" y="-57.7389" type="curve" smooth="yes"/>
      <point x="291.851" y="-54.3985"/>
      <point x="292.527" y="-50.7878"/>
      <point x="294" y="-47" type="curve" smooth="yes"/>
      <point x="379" y="168"/>
      <point x="465" y="414"/>
      <point x="522" y="712" type="curve"/>
      <point x="524" y="728"/>
      <point x="539" y="740"/>
      <point x="555" y="741" type="curve" smooth="yes"/>
      <point x="570" y="741"/>
      <point x="580" y="729"/>
    </contour>
    <contour>
      <point x="467" y="729" type="line"/>
      <point x="419" y="452"/>
      <point x="328" y="171"/>
      <point x="233" y="-58" type="curve" smooth="yes"/>
      <point x="227" y="-71"/>
      <point x="214" y="-80"/>
      <point x="201" y="-80" type="curve" smooth="yes"/>
      <point x="188.628" y="-80"/>
      <point x="178.05" y="-70.4333"/>
      <point x="178.05" y="-57.7726" type="curve" smooth="yes"/>
      <point x="178.05" y="-54.0601"/>
      <point x="178.959" y="-50.0814"/>
      <point x="181" y="-46" type="curve" smooth="yes"/>
      <point x="218" y="29"/>
      <point x="299" y="270"/>
      <point x="321" y="349" type="curve"/>
      <point x="302" y="349" type="line" smooth="yes"/>
      <point x="204.932" y="349"/>
      <point x="120.324" y="387.934"/>
      <point x="120.324" y="484.356" type="curve" smooth="yes"/>
      <point x="120.324" y="497.202"/>
      <point x="121.826" y="511.069"/>
      <point x="125" y="526" type="curve" smooth="yes"/>
      <point x="156" y="671"/>
      <point x="327" y="756"/>
      <point x="493" y="786" type="curve" smooth="yes"/>
      <point x="494.307" y="786.261"/>
      <point x="495.568" y="786.386"/>
      <point x="496.78" y="786.386" type="curve" smooth="yes"/>
      <point x="507.681" y="786.386"/>
      <point x="514.575" y="776.294"/>
      <point x="514.575" y="764.774" type="curve" smooth="yes"/>
      <point x="514.575" y="762.875"/>
      <point x="514.388" y="760.938"/>
      <point x="514" y="759" type="curve" smooth="yes"/>
      <point x="511" y="746"/>
      <point x="499" y="734"/>
      <point x="487" y="732" type="curve" smooth="yes"/>
    </contour>
  </outline>
</glyph>
<glyph name="periodcentered" format="1">
  <advance width="172"/>
  <unicode hex="00B7"/>
  <outline>
    <contour>
      <point x="71" y="210" type="curve" smooth="yes"/>
      <point x="92" y="210"/>
      <point x="116" y="231"/>
      <point x="121" y="257" type="curve" smooth="yes"/>
      <point x="121.59" y="259.95"/>
      <point x="121.875" y="262.814"/>
      <point x="121.875" y="265.552" type="curve" smooth="yes"/>
      <point x="121.875" y="281.372"/>
      <point x="112.345" y="293"/>
      <point x="97" y="293" type="curve" smooth="yes"/>
      <point x="76" y="293"/>
      <point x="52" y="271"/>
      <point x="47" y="248" type="curve" smooth="yes"/>
      <point x="46.3733" y="244.71"/>
      <point x="46.0657" y="241.518"/>
      <point x="46.0657" y="238.474" type="curve" smooth="yes"/>
      <point x="46.0657" y="222.09"/>
      <point x="54.9769" y="210"/>
    </contour>
  </outline>
</glyph>
<glyph name="onesuperior" format="1">
  <advance width="166"/>
  <unicode hex="00B9"/>
  <outline>
    <contour>
      <point x="64" y="444" type="curve" smooth="yes"/>
      <point x="182" y="444" type="line" smooth="yes"/>
      <point x="193.093" y="444"/>
      <point x="210.306" y="453.269"/>
      <point x="210.306" y="470.672" type="curve" smooth="yes"/>
      <point x="210.306" y="481.153"/>
      <point x="202.762" y="490"/>
      <point x="192" y="490" type="curve" smooth="yes"/>
      <point x="160" y="490" type="line"/>
      <point x="232" y="805" type="line"/>
      <point x="234" y="817"/>
      <point x="226" y="829"/>
      <point x="213" y="829" type="curve" smooth="yes"/>
      <point x="207" y="829"/>
      <point x="200" y="826"/>
      <point x="194" y="821" type="curve" smooth="yes"/>
      <point x="109" y="746" type="line" smooth="yes"/>
      <point x="104" y="741"/>
      <point x="101" y="735"/>
      <point x="99" y="729" type="curve"/>
      <point x="97" y="716"/>
      <point x="107" y="707"/>
      <point x="117" y="707" type="curve" smooth="yes"/>
      <point x="125" y="707"/>
      <point x="130" y="709"/>
      <point x="136" y="714" type="curve" smooth="yes"/>
      <point x="172" y="745" type="line"/>
      <point x="114" y="490" type="line"/>
      <point x="74" y="490" type="line" smooth="yes"/>
      <point x="62" y="490"/>
      <point x="49" y="481"/>
      <point x="46" y="467" type="curve" smooth="yes"/>
      <point x="45.456" y="464.824"/>
      <point x="45.1751" y="462.681"/>
      <point x="45.1751" y="460.63" type="curve" smooth="yes"/>
      <point x="45.1751" y="451.372"/>
      <point x="50.9014" y="444"/>
    </contour>
  </outline>
</glyph>
<glyph name="ordmasculine" format="1">
  <advance width="277"/>
  <unicode hex="00BA"/>
  <outline>
    <contour>
      <point x="147" y="347" type="curve" smooth="yes"/>
      <point x="247" y="347"/>
      <point x="317" y="449"/>
      <point x="331" y="515" type="curve" smooth="yes"/>
      <point x="333.84" y="528.302"/>
      <point x="335.183" y="540.934"/>
      <point x="335.183" y="552.798" type="curve" smooth="yes"/>
      <point x="335.183" y="620.318"/>
      <point x="291.687" y="663"/>
      <point x="233" y="663" type="curve" smooth="yes"/>
      <point x="141" y="663"/>
      <point x="66" y="572"/>
      <point x="49" y="491" type="curve" smooth="yes"/>
      <point x="46.3817" y="479.072"/>
      <point x="45.1387" y="467.568"/>
      <point x="45.1387" y="456.616" type="curve" smooth="yes"/>
      <point x="45.1387" y="392.275"/>
      <point x="88.0368" y="347"/>
    </contour>
    <contour>
      <point x="157" y="392" type="curve" smooth="yes"/>
      <point x="119.977" y="392"/>
      <point x="97.8455" y="423.814"/>
      <point x="97.8455" y="465.723" type="curve" smooth="yes"/>
      <point x="97.8455" y="474.752"/>
      <point x="98.8728" y="484.25"/>
      <point x="101" y="494" type="curve" smooth="yes"/>
      <point x="115" y="562"/>
      <point x="173" y="618"/>
      <point x="221" y="618" type="curve" smooth="yes"/>
      <point x="259.547" y="618"/>
      <point x="282.646" y="582.187"/>
      <point x="282.646" y="539.983" type="curve" smooth="yes"/>
      <point x="282.646" y="531.824"/>
      <point x="281.782" y="523.425"/>
      <point x="280" y="515" type="curve" smooth="yes"/>
      <point x="265" y="444"/>
      <point x="204" y="392"/>
    </contour>
  </outline>
</glyph>
<glyph name="guillemotright" format="1">
  <advance width="591"/>
  <unicode hex="00BB"/>
  <outline>
    <contour>
      <point x="281" y="76" type="curve" smooth="yes"/>
      <point x="288" y="76"/>
      <point x="294" y="78"/>
      <point x="301" y="83" type="curve" smooth="yes"/>
      <point x="495" y="229" type="line" smooth="yes"/>
      <point x="502" y="234"/>
      <point x="507" y="242"/>
      <point x="509" y="250" type="curve" smooth="yes"/>
      <point x="510" y="258"/>
      <point x="509" y="266"/>
      <point x="504" y="271" type="curve" smooth="yes"/>
      <point x="357" y="426" type="line" smooth="yes"/>
      <point x="353" y="430"/>
      <point x="347" y="433"/>
      <point x="341" y="433" type="curve" smooth="yes"/>
      <point x="327" y="433"/>
      <point x="310" y="421"/>
      <point x="307" y="405" type="curve" smooth="yes"/>
      <point x="305" y="397"/>
      <point x="307" y="390"/>
      <point x="312" y="384" type="curve" smooth="yes"/>
      <point x="438" y="249" type="line"/>
      <point x="272" y="124" type="line" smooth="yes"/>
      <point x="264.315" y="118.511"/>
      <point x="257.505" y="109.156"/>
      <point x="257.505" y="98.103" type="curve" smooth="yes"/>
      <point x="257.505" y="85.4713"/>
      <point x="267.674" y="76"/>
    </contour>
    <contour>
      <point x="76" y="76" type="curve" smooth="yes"/>
      <point x="83" y="76"/>
      <point x="89" y="78"/>
      <point x="96" y="83" type="curve" smooth="yes"/>
      <point x="290" y="229" type="line" smooth="yes"/>
      <point x="297" y="234"/>
      <point x="302" y="242"/>
      <point x="304" y="250" type="curve" smooth="yes"/>
      <point x="305" y="258"/>
      <point x="304" y="266"/>
      <point x="299" y="271" type="curve" smooth="yes"/>
      <point x="152" y="426" type="line" smooth="yes"/>
      <point x="148" y="430"/>
      <point x="142" y="433"/>
      <point x="136" y="433" type="curve" smooth="yes"/>
      <point x="122" y="433"/>
      <point x="105" y="421"/>
      <point x="102" y="405" type="curve" smooth="yes"/>
      <point x="100" y="397"/>
      <point x="102" y="390"/>
      <point x="107" y="384" type="curve" smooth="yes"/>
      <point x="233" y="249" type="line"/>
      <point x="67" y="124" type="line" smooth="yes"/>
      <point x="59.3151" y="118.511"/>
      <point x="52.5048" y="109.156"/>
      <point x="52.5048" y="98.103" type="curve" smooth="yes"/>
      <point x="52.5048" y="85.4713"/>
      <point x="62.6739" y="76"/>
    </contour>
  </outline>
</glyph>
